<?xml version="1.0" encoding="UTF-8"?><svg xmlns="http://www.w3.org/2000/svg" xmlns:xlink="http://www.w3.org/1999/xlink" fill-opacity="1" color-rendering="auto" color-interpolation="auto" text-rendering="auto" stroke="black" stroke-linecap="square" width="917" stroke-miterlimit="10" shape-rendering="auto" stroke-opacity="1" fill="black" stroke-dasharray="none" font-weight="normal" stroke-width="1" height="600" font-family="'Dialog'" font-style="normal" stroke-linejoin="miter" font-size="12px" stroke-dashoffset="0" image-rendering="auto">
  <!--Generated by ySVG 2.5-->
  <defs id="genericDefs"/>
  <g>
    <defs id="defs1">
      <clipPath clipPathUnits="userSpaceOnUse" id="clipPath1">
        <path d="M0 0 L917 0 L917 600 L0 600 L0 0 Z"/>
      </clipPath>
      <clipPath clipPathUnits="userSpaceOnUse" id="clipPath2">
        <path d="M716 620 L1633 620 L1633 1220 L716 1220 L716 620 Z"/>
      </clipPath>
    </defs>
    <g fill="white" text-rendering="geometricPrecision" shape-rendering="geometricPrecision" transform="translate(-716,-620)" stroke="white">
      <rect x="716" width="917" height="600" y="620" clip-path="url(#clipPath2)" stroke="none"/>
    </g>
    <g fill="rgb(245,245,245)" text-rendering="geometricPrecision" shape-rendering="geometricPrecision" transform="matrix(1,0,0,1,-716,-620)" stroke="rgb(245,245,245)">
      <rect x="990.2018" y="879.803" clip-path="url(#clipPath2)" width="443.7177" rx="4" ry="4" height="179.058" stroke="none"/>
      <rect x="990.2018" y="879.803" clip-path="url(#clipPath2)" fill="rgb(235,235,235)" width="443.7177" height="16.9551" stroke="none"/>
    </g>
    <g font-size="11px" stroke-linecap="butt" transform="matrix(1,0,0,1,-716,-620)" text-rendering="geometricPrecision" font-family="sans-serif" shape-rendering="geometricPrecision" stroke-miterlimit="1.45">
      <text x="1290.3536" xml:space="preserve" y="892.4378" clip-path="url(#clipPath2)" stroke="none">Chess Game Manifestation</text>
      <rect x="990.2018" y="879.803" clip-path="url(#clipPath2)" fill="none" width="443.7177" stroke-dasharray="6,2" rx="4" ry="4" height="179.058"/>
    </g>
    <g fill="rgb(255,204,0)" text-rendering="geometricPrecision" shape-rendering="geometricPrecision" transform="matrix(1,0,0,1,-716,-620)" stroke="rgb(255,204,0)">
      <rect x="1005.2018" y="911.7581" clip-path="url(#clipPath2)" width="160.8418" rx="4" ry="4" height="30" stroke="none"/>
    </g>
    <g text-rendering="geometricPrecision" stroke-miterlimit="1.45" shape-rendering="geometricPrecision" font-family="sans-serif" transform="matrix(1,0,0,1,-716,-620)" stroke-linecap="butt">
      <text x="1012.2018" xml:space="preserve" y="931.2933" clip-path="url(#clipPath2)" stroke="none">ChessGameManifestation</text>
      <rect x="1005.2018" y="911.7581" clip-path="url(#clipPath2)" fill="none" width="160.8418" rx="4" ry="4" height="30"/>
    </g>
    <g fill="yellow" text-rendering="geometricPrecision" shape-rendering="geometricPrecision" transform="matrix(1,0,0,1,-716,-620)" stroke="yellow">
      <rect x="1346.1793" y="1013.8611" clip-path="url(#clipPath2)" width="72.7402" rx="4" ry="4" height="30" stroke="none"/>
    </g>
    <g text-rendering="geometricPrecision" stroke-miterlimit="1.45" shape-rendering="geometricPrecision" font-family="sans-serif" transform="matrix(1,0,0,1,-716,-620)" stroke-linecap="butt">
      <text x="1353.1793" xml:space="preserve" y="1033.3962" clip-path="url(#clipPath2)" stroke="none">xsd:string</text>
      <rect x="1346.1793" y="1013.8611" clip-path="url(#clipPath2)" fill="none" width="72.7402" rx="4" ry="4" height="30"/>
    </g>
    <g fill="rgb(255,204,0)" text-rendering="geometricPrecision" shape-rendering="geometricPrecision" transform="matrix(1,0,0,1,-716,-620)" stroke="rgb(255,204,0)">
      <rect x="1286.3668" y="911.7581" clip-path="url(#clipPath2)" width="132.3652" rx="4" ry="4" height="30" stroke="none"/>
    </g>
    <g text-rendering="geometricPrecision" stroke-miterlimit="1.45" shape-rendering="geometricPrecision" font-family="sans-serif" transform="matrix(1,0,0,1,-716,-620)" stroke-linecap="butt">
      <text x="1293.3668" xml:space="preserve" y="931.2933" clip-path="url(#clipPath2)" stroke="none">HalfMoveAnnotation</text>
      <rect x="1286.3668" y="911.7581" clip-path="url(#clipPath2)" fill="none" width="132.3652" rx="4" ry="4" height="30"/>
    </g>
    <g fill="rgb(255,204,0)" text-rendering="geometricPrecision" shape-rendering="geometricPrecision" transform="matrix(1,0,0,1,-716,-620)" stroke="rgb(255,204,0)">
      <rect x="1048.8746" y="1013.8611" clip-path="url(#clipPath2)" width="73.4961" rx="4" ry="4" height="30" stroke="none"/>
    </g>
    <g text-rendering="geometricPrecision" stroke-miterlimit="1.45" shape-rendering="geometricPrecision" font-family="sans-serif" transform="matrix(1,0,0,1,-716,-620)" stroke-linecap="butt">
      <text x="1055.8746" xml:space="preserve" y="1033.3962" clip-path="url(#clipPath2)" stroke="none">AgentRole</text>
      <rect x="1048.8746" y="1013.8611" clip-path="url(#clipPath2)" fill="none" width="73.4961" rx="4" ry="4" height="30"/>
    </g>
    <g fill="rgb(255,204,0)" text-rendering="geometricPrecision" shape-rendering="geometricPrecision" transform="matrix(1,0,0,1,-716,-620)" stroke="rgb(255,204,0)">
      <rect x="1261.1226" y="1013.8611" clip-path="url(#clipPath2)" width="79.0566" rx="4" ry="4" height="30" stroke="none"/>
    </g>
    <g text-rendering="geometricPrecision" stroke-miterlimit="1.45" shape-rendering="geometricPrecision" font-family="sans-serif" transform="matrix(1,0,0,1,-716,-620)" stroke-linecap="butt">
      <text x="1268.1227" xml:space="preserve" y="1033.3962" clip-path="url(#clipPath2)" stroke="none">AuthorRole</text>
      <rect x="1261.1226" y="1013.8611" clip-path="url(#clipPath2)" fill="none" width="79.0566" rx="4" ry="4" height="30"/>
    </g>
    <g fill="yellow" text-rendering="geometricPrecision" shape-rendering="geometricPrecision" transform="matrix(1,0,0,1,-716,-620)" stroke="yellow">
      <rect x="1261.1226" y="978.8611" clip-path="url(#clipPath2)" width="78.5293" rx="4" ry="4" height="30" stroke="none"/>
    </g>
    <g text-rendering="geometricPrecision" stroke-miterlimit="1.45" shape-rendering="geometricPrecision" font-family="sans-serif" transform="matrix(1,0,0,1,-716,-620)" stroke-linecap="butt">
      <text x="1268.1227" xml:space="preserve" y="998.3962" clip-path="url(#clipPath2)" stroke="none">xsd:anyURI</text>
      <rect x="1261.1226" y="978.8611" clip-path="url(#clipPath2)" fill="none" width="78.5293" rx="4" ry="4" height="30"/>
    </g>
    <g fill="rgb(204,255,255)" text-rendering="geometricPrecision" shape-rendering="geometricPrecision" transform="matrix(1,0,0,1,-716,-620)" stroke="rgb(204,255,255)">
      <rect x="1169.1601" y="635.8296" clip-path="url(#clipPath2)" width="154.8477" rx="4" ry="4" height="30" stroke="none"/>
    </g>
    <g text-rendering="geometricPrecision" stroke-miterlimit="1.45" shape-rendering="geometricPrecision" font-family="sans-serif" transform="matrix(1,0,0,1,-716,-620)" stroke-linecap="butt">
      <text x="1176.1602" xml:space="preserve" y="655.3647" clip-path="url(#clipPath2)" stroke="none">ChessCompetitionSeries</text>
      <rect x="1169.1601" y="635.8296" clip-path="url(#clipPath2)" fill="none" width="154.8477" stroke-dasharray="6,2" rx="4" ry="4" height="30"/>
    </g>
    <g fill="rgb(204,255,255)" text-rendering="geometricPrecision" shape-rendering="geometricPrecision" transform="matrix(1,0,0,1,-716,-620)" stroke="rgb(204,255,255)">
      <rect x="869.1171" y="635.8296" clip-path="url(#clipPath2)" width="168.9336" rx="4" ry="4" height="30" stroke="none"/>
    </g>
    <g text-rendering="geometricPrecision" stroke-miterlimit="1.45" shape-rendering="geometricPrecision" font-family="sans-serif" transform="matrix(1,0,0,1,-716,-620)" stroke-linecap="butt">
      <text x="876.1171" xml:space="preserve" y="655.3647" clip-path="url(#clipPath2)" stroke="none">ChessCompetitionInstance</text>
      <rect x="869.1171" y="635.8296" clip-path="url(#clipPath2)" fill="none" width="168.9336" stroke-dasharray="6,2" rx="4" ry="4" height="30"/>
    </g>
    <g fill="rgb(204,255,255)" text-rendering="geometricPrecision" shape-rendering="geometricPrecision" transform="matrix(1,0,0,1,-716,-620)" stroke="rgb(204,255,255)">
      <rect x="874.622" y="715.8614" clip-path="url(#clipPath2)" width="157.9238" rx="4" ry="4" height="30" stroke="none"/>
    </g>
    <g text-rendering="geometricPrecision" stroke-miterlimit="1.45" shape-rendering="geometricPrecision" font-family="sans-serif" transform="matrix(1,0,0,1,-716,-620)" stroke-linecap="butt">
      <text x="881.622" xml:space="preserve" y="735.3965" clip-path="url(#clipPath2)" stroke="none">ChessCompetitionRound</text>
      <rect x="874.622" y="715.8614" clip-path="url(#clipPath2)" fill="none" width="157.9238" stroke-dasharray="6,2" rx="4" ry="4" height="30"/>
    </g>
    <g fill="rgb(255,204,0)" text-rendering="geometricPrecision" shape-rendering="geometricPrecision" transform="matrix(1,0,0,1,-716,-620)" stroke="rgb(255,204,0)">
      <rect x="912.6552" y="795.8932" clip-path="url(#clipPath2)" width="81.8574" rx="4" ry="4" height="30" stroke="none"/>
    </g>
    <g text-rendering="geometricPrecision" stroke-miterlimit="1.45" shape-rendering="geometricPrecision" font-family="sans-serif" transform="matrix(1,0,0,1,-716,-620)" stroke-linecap="butt">
      <text x="919.6552" xml:space="preserve" y="815.4283" clip-path="url(#clipPath2)" stroke="none">ChessGame</text>
      <rect x="912.6552" y="795.8932" clip-path="url(#clipPath2)" fill="none" width="81.8574" rx="4" ry="4" height="30"/>
    </g>
    <g fill="rgb(255,204,0)" text-rendering="geometricPrecision" shape-rendering="geometricPrecision" transform="matrix(1,0,0,1,-716,-620)" stroke="rgb(255,204,0)">
      <rect x="1445.3895" y="795.8932" clip-path="url(#clipPath2)" width="67.9297" rx="4" ry="4" height="30" stroke="none"/>
    </g>
    <g text-rendering="geometricPrecision" stroke-miterlimit="1.45" shape-rendering="geometricPrecision" font-family="sans-serif" transform="matrix(1,0,0,1,-716,-620)" stroke-linecap="butt">
      <text x="1452.3895" xml:space="preserve" y="815.4283" clip-path="url(#clipPath2)" stroke="none">HalfMove</text>
      <rect x="1445.3895" y="795.8932" clip-path="url(#clipPath2)" fill="none" width="67.9297" rx="4" ry="4" height="30"/>
    </g>
    <g fill="rgb(255,204,0)" text-rendering="geometricPrecision" shape-rendering="geometricPrecision" transform="matrix(1,0,0,1,-716,-620)" stroke="rgb(255,204,0)">
      <rect x="916.8359" y="1168.3874" clip-path="url(#clipPath2)" width="73.4961" rx="4" ry="4" height="30" stroke="none"/>
    </g>
    <g text-rendering="geometricPrecision" stroke-miterlimit="1.45" shape-rendering="geometricPrecision" font-family="sans-serif" transform="matrix(1,0,0,1,-716,-620)" stroke-linecap="butt">
      <text x="923.8359" xml:space="preserve" y="1187.9225" clip-path="url(#clipPath2)" stroke="none">AgentRole</text>
      <rect x="916.8359" y="1168.3874" clip-path="url(#clipPath2)" fill="none" width="73.4961" rx="4" ry="4" height="30"/>
    </g>
    <g fill="rgb(255,204,0)" text-rendering="geometricPrecision" shape-rendering="geometricPrecision" transform="matrix(1,0,0,1,-716,-620)" stroke="rgb(255,204,0)">
      <rect x="1442.6063" y="1168.3874" clip-path="url(#clipPath2)" width="73.4961" rx="4" ry="4" height="30" stroke="none"/>
    </g>
    <g text-rendering="geometricPrecision" stroke-miterlimit="1.45" shape-rendering="geometricPrecision" font-family="sans-serif" transform="matrix(1,0,0,1,-716,-620)" stroke-linecap="butt">
      <text x="1449.6063" xml:space="preserve" y="1187.9225" clip-path="url(#clipPath2)" stroke="none">AgentRole</text>
      <rect x="1442.6063" y="1168.3874" clip-path="url(#clipPath2)" fill="none" width="73.4961" rx="4" ry="4" height="30"/>
    </g>
    <g fill="rgb(204,255,255)" text-rendering="geometricPrecision" shape-rendering="geometricPrecision" transform="matrix(1,0,0,1,-716,-620)" stroke="rgb(204,255,255)">
      <rect x="1207.755" y="1168.3874" clip-path="url(#clipPath2)" width="48.3828" rx="4" ry="4" height="30" stroke="none"/>
    </g>
    <g text-rendering="geometricPrecision" stroke-miterlimit="1.45" shape-rendering="geometricPrecision" font-family="sans-serif" transform="matrix(1,0,0,1,-716,-620)" stroke-linecap="butt">
      <text x="1214.755" xml:space="preserve" y="1187.9225" clip-path="url(#clipPath2)" stroke="none">Agent</text>
      <rect x="1207.755" y="1168.3874" clip-path="url(#clipPath2)" fill="none" width="48.3828" stroke-dasharray="6,2" rx="4" ry="4" height="30"/>
    </g>
    <g fill="rgb(204,255,255)" text-rendering="geometricPrecision" shape-rendering="geometricPrecision" transform="matrix(1,0,0,1,-716,-620)" stroke="rgb(204,255,255)">
      <rect x="1384.3945" y="651.4065" clip-path="url(#clipPath2)" width="106.3789" rx="4" ry="4" height="30" stroke="none"/>
    </g>
    <g text-rendering="geometricPrecision" stroke-miterlimit="1.45" shape-rendering="geometricPrecision" font-family="sans-serif" transform="matrix(1,0,0,1,-716,-620)" stroke-linecap="butt">
      <text x="1391.3945" xml:space="preserve" y="670.9416" clip-path="url(#clipPath2)" stroke="none">TemporalExtent</text>
      <rect x="1384.3945" y="651.4065" clip-path="url(#clipPath2)" fill="none" width="106.3789" stroke-dasharray="6,2" rx="4" ry="4" height="30"/>
    </g>
    <g fill="rgb(204,255,255)" text-rendering="geometricPrecision" shape-rendering="geometricPrecision" transform="matrix(1,0,0,1,-716,-620)" stroke="rgb(204,255,255)">
      <rect x="1436.2018" y="715.8614" clip-path="url(#clipPath2)" width="43.5605" rx="4" ry="4" height="30" stroke="none"/>
    </g>
    <g text-rendering="geometricPrecision" stroke-miterlimit="1.45" shape-rendering="geometricPrecision" font-family="sans-serif" transform="matrix(1,0,0,1,-716,-620)" stroke-linecap="butt">
      <text x="1443.2018" xml:space="preserve" y="735.3965" clip-path="url(#clipPath2)" stroke="none">Place</text>
      <rect x="1436.2018" y="715.8614" clip-path="url(#clipPath2)" fill="none" width="43.5605" stroke-dasharray="6,2" rx="4" ry="4" height="30"/>
    </g>
    <g fill="rgb(255,204,0)" text-rendering="geometricPrecision" shape-rendering="geometricPrecision" transform="matrix(1,0,0,1,-716,-620)" stroke="rgb(255,204,0)">
      <rect x="1109.067" y="1108.3874" clip-path="url(#clipPath2)" width="106.0625" rx="4" ry="4" height="30" stroke="none"/>
    </g>
    <g text-rendering="geometricPrecision" stroke-miterlimit="1.45" shape-rendering="geometricPrecision" font-family="sans-serif" transform="matrix(1,0,0,1,-716,-620)" stroke-linecap="butt">
      <text x="1116.067" xml:space="preserve" y="1127.9225" clip-path="url(#clipPath2)" stroke="none">WhitePlayerRole</text>
      <rect x="1109.067" y="1108.3874" clip-path="url(#clipPath2)" fill="none" width="106.0625" rx="4" ry="4" height="30"/>
    </g>
    <g fill="rgb(255,204,0)" text-rendering="geometricPrecision" shape-rendering="geometricPrecision" transform="matrix(1,0,0,1,-716,-620)" stroke="rgb(255,204,0)">
      <rect x="1005.2018" y="1072.623" clip-path="url(#clipPath2)" width="103.8652" rx="4" ry="4" height="30" stroke="none"/>
    </g>
    <g text-rendering="geometricPrecision" stroke-miterlimit="1.45" shape-rendering="geometricPrecision" font-family="sans-serif" transform="matrix(1,0,0,1,-716,-620)" stroke-linecap="butt">
      <text x="1012.2018" xml:space="preserve" y="1092.1582" clip-path="url(#clipPath2)" stroke="none">BlackPlayerRole</text>
      <rect x="1005.2018" y="1072.623" clip-path="url(#clipPath2)" fill="none" width="103.8652" rx="4" ry="4" height="30"/>
    </g>
    <g fill="rgb(255,204,0)" text-rendering="geometricPrecision" shape-rendering="geometricPrecision" transform="matrix(1,0,0,1,-716,-620)" stroke="rgb(255,204,0)">
      <rect x="1287.5526" y="1087.623" clip-path="url(#clipPath2)" width="111.0195" rx="4" ry="4" height="30" stroke="none"/>
    </g>
    <g text-rendering="geometricPrecision" stroke-miterlimit="1.45" shape-rendering="geometricPrecision" font-family="sans-serif" transform="matrix(1,0,0,1,-716,-620)" stroke-linecap="butt">
      <text x="1294.5526" xml:space="preserve" y="1107.1582" clip-path="url(#clipPath2)" stroke="none">ActingPlayerRole</text>
      <rect x="1287.5526" y="1087.623" clip-path="url(#clipPath2)" fill="none" width="111.0195" rx="4" ry="4" height="30"/>
    </g>
    <g fill="yellow" text-rendering="geometricPrecision" shape-rendering="geometricPrecision" transform="matrix(1,0,0,1,-716,-620)" stroke="yellow">
      <rect x="1544.496" y="890.7581" clip-path="url(#clipPath2)" width="72.7402" rx="4" ry="4" height="30" stroke="none"/>
    </g>
    <g text-rendering="geometricPrecision" stroke-miterlimit="1.45" shape-rendering="geometricPrecision" font-family="sans-serif" transform="matrix(1,0,0,1,-716,-620)" stroke-linecap="butt">
      <text x="1551.496" xml:space="preserve" y="910.2933" clip-path="url(#clipPath2)" stroke="none">xsd:string</text>
      <rect x="1544.496" y="890.7581" clip-path="url(#clipPath2)" fill="none" width="72.7402" rx="4" ry="4" height="30"/>
      <path fill="none" d="M1166.0721 926.7581 L1278.3992 926.7581" clip-path="url(#clipPath2)"/>
      <path d="M1286.3992 926.7581 L1274.3992 921.7581 L1277.3992 926.7581 L1274.3992 931.7581 Z" clip-path="url(#clipPath2)" stroke="none"/>
      <rect x="1173.148" y="896.2947" clip-path="url(#clipPath2)" fill="white" width="117.5488" height="18.1328" stroke="none"/>
      <text x="1175.1481" xml:space="preserve" y="909.8962" clip-path="url(#clipPath2)" stroke="none">containsAnnotation</text>
      <path fill="none" d="M1356.9513 941.7395 L1375.882 1006.1689" clip-path="url(#clipPath2)"/>
      <path d="M1378.1372 1013.8445 L1379.5515 1000.9216 L1375.6001 1005.2095 L1369.9572 1003.7407 Z" clip-path="url(#clipPath2)" stroke="none"/>
      <rect x="1332.3384" y="968.7432" clip-path="url(#clipPath2)" fill="white" width="70.4219" height="18.1328" stroke="none"/>
      <text x="1334.3385" xml:space="preserve" y="982.3447" clip-path="url(#clipPath2)" stroke="none">hasContent</text>
      <path fill="none" d="M1085.6227 941.7644 L1085.6227 1005.8488" clip-path="url(#clipPath2)"/>
      <path d="M1085.6227 1013.8488 L1090.6227 1001.8488 L1085.6227 1004.8488 L1080.6227 1001.8488 Z" clip-path="url(#clipPath2)" stroke="none"/>
      <rect x="997.9401" y="962.7432" clip-path="url(#clipPath2)" fill="white" width="113.3652" height="18.1328" stroke="none"/>
      <text x="999.9401" xml:space="preserve" y="976.3447" clip-path="url(#clipPath2)" stroke="none">providesAgentRole</text>
      <path fill="none" d="M1261.1469 1028.8611 L1137.3473 1028.8611" clip-path="url(#clipPath2)"/>
      <path fill="white" d="M1122.3473 1028.8611 L1138.3473 1034.8611 L1138.3473 1022.8611 Z" clip-path="url(#clipPath2)" stroke="none"/>
      <path fill="none" d="M1122.3473 1028.8611 L1138.3473 1034.8611 L1138.3473 1022.8611 Z" clip-path="url(#clipPath2)"/>
      <rect x="1143.61" y="1019.7947" clip-path="url(#clipPath2)" fill="white" width="96.2734" height="18.1328" stroke="none"/>
      <text x="1145.61" xml:space="preserve" y="1033.3962" clip-path="url(#clipPath2)" stroke="none">rdfs:subClassOf</text>
      <path fill="none" d="M1133.6249 941.7563 L1253.7072 979.2759" clip-path="url(#clipPath2)"/>
      <path d="M1261.3431 981.6617 L1251.3804 973.3104 L1252.7527 978.9776 L1248.3981 982.8553 Z" clip-path="url(#clipPath2)" stroke="none"/>
      <rect x="1133.0318" y="955.2282" clip-path="url(#clipPath2)" fill="white" width="95.7812" height="32.2656" stroke="none"/>
      <text x="1135.0319" xml:space="preserve" y="968.8298" clip-path="url(#clipPath2)" stroke="none">originatesFrom,</text>
      <text x="1148.7135" xml:space="preserve" y="982.9626" clip-path="url(#clipPath2)" stroke="none">hasPGNFile</text>
      <path fill="none" d="M1038.0289 650.8296 L1161.165 650.8296" clip-path="url(#clipPath2)"/>
      <path d="M1169.165 650.8296 L1157.165 645.8296 L1160.165 650.8296 L1157.165 655.8296 Z" clip-path="url(#clipPath2)" stroke="none"/>
      <rect x="1082.9492" y="641.7632" clip-path="url(#clipPath2)" fill="white" width="41.3125" height="18.1328" stroke="none"/>
      <text x="1084.9492" xml:space="preserve" y="655.3647" clip-path="url(#clipPath2)" stroke="none">partOf</text>
      <path fill="none" d="M953.5839 715.8945 L953.5839 673.8568" clip-path="url(#clipPath2)"/>
      <path d="M953.5839 665.8568 L948.5839 677.8568 L953.5839 674.8568 L958.5839 677.8568 Z" clip-path="url(#clipPath2)" stroke="none"/>
      <rect x="918.4902" y="681.7791" clip-path="url(#clipPath2)" fill="white" width="70.1875" height="18.1328" stroke="none"/>
      <text x="920.4902" xml:space="preserve" y="695.3806" clip-path="url(#clipPath2)" stroke="none">subEventOf</text>
      <path fill="none" d="M953.5839 795.9263 L953.5839 753.8885" clip-path="url(#clipPath2)"/>
      <path d="M953.5839 745.8885 L948.5839 757.8885 L953.5839 754.8885 L958.5839 757.8885 Z" clip-path="url(#clipPath2)" stroke="none"/>
      <rect x="918.4902" y="761.8109" clip-path="url(#clipPath2)" fill="white" width="70.1875" height="18.1328" stroke="none"/>
      <text x="920.4902" xml:space="preserve" y="775.4124" clip-path="url(#clipPath2)" stroke="none">subEventOf</text>
      <path fill="none" d="M970.7012 825.9138 L1062.5228 906.4878" clip-path="url(#clipPath2)"/>
      <path d="M1068.536 911.7643 L1062.8142 900.0913 L1061.7712 905.8282 L1056.2185 907.6077 Z" clip-path="url(#clipPath2)" stroke="none"/>
      <rect x="968.0154" y="859.7592" clip-path="url(#clipPath2)" fill="white" width="103.1758" height="18.1328" stroke="none"/>
      <text x="970.0154" xml:space="preserve" y="873.3608" clip-path="url(#clipPath2)" stroke="none">hasManifestation</text>
      <path fill="none" d="M994.5184 820.3574 L1077.6902 839.587 L1356.6217 839.587 L1437.6152 820.6514" clip-path="url(#clipPath2)"/>
      <path d="M1445.4052 818.8302 L1432.582 816.6934 L1436.6415 820.8791 L1434.8585 826.4308 Z" clip-path="url(#clipPath2)" stroke="none"/>
      <rect x="1110.8151" y="823.4542" clip-path="url(#clipPath2)" fill="white" width="212.6816" height="32.2656" stroke="none"/>
      <text x="1112.8152" xml:space="preserve" y="837.0557" clip-path="url(#clipPath2)" stroke="none">hasFirstHalfMove, hasLastHalfMove,</text>
      <text x="1180.0955" xml:space="preserve" y="851.1885" clip-path="url(#clipPath2)" stroke="none">hasHalfMove</text>
      <path fill="none" d="M1479.3544 795.8883 L1479.3544 775.8932 L1554.8579 775.8932 L1554.8579 810.8932 L1521.3088 810.8932" clip-path="url(#clipPath2)"/>
      <path d="M1513.3088 810.8932 L1525.3088 815.8932 L1522.3088 810.8932 L1525.3088 805.8932 Z" clip-path="url(#clipPath2)" stroke="none"/>
      <rect x="1512.9028" y="785.2256" clip-path="url(#clipPath2)" fill="white" width="83.9102" height="18.1328" stroke="none"/>
      <text x="1514.9028" xml:space="preserve" y="798.8271" clip-path="url(#clipPath2)" stroke="none">nextHalfMove</text>
      <path fill="none" d="M1398.0852 911.7514 L1456.9225 892.3611 L1473.1013 833.6029" clip-path="url(#clipPath2)"/>
      <path d="M1475.2251 825.89 L1467.2189 836.132 L1472.8358 834.567 L1476.86 838.7867 Z" clip-path="url(#clipPath2)" stroke="none"/>
      <rect x="1355.3082" y="849.2947" clip-path="url(#clipPath2)" fill="white" width="115.2285" height="18.1328" stroke="none"/>
      <text x="1357.3082" xml:space="preserve" y="862.8962" clip-path="url(#clipPath2)" stroke="none">annotatesHalfMove</text>
      <path fill="none" d="M1445.3706 810.8932 L1002.4961 810.8932" clip-path="url(#clipPath2)"/>
      <path d="M994.4961 810.8932 L1006.4961 815.8932 L1003.4961 810.8932 L1006.4961 805.8932 Z" clip-path="url(#clipPath2)" stroke="none"/>
      <rect x="1184.8573" y="801.8268" clip-path="url(#clipPath2)" fill="white" width="70.1875" height="18.1328" stroke="none"/>
      <text x="1186.8573" xml:space="preserve" y="815.4283" clip-path="url(#clipPath2)" stroke="none">subEventOf</text>
      <path fill="none" d="M953.5839 825.853 L953.5839 1160.4174" clip-path="url(#clipPath2)"/>
      <path d="M953.5839 1168.4174 L958.5839 1156.4174 L953.5839 1159.4174 L948.5839 1156.4174 Z" clip-path="url(#clipPath2)" stroke="none"/>
      <rect x="896.9013" y="988.0739" clip-path="url(#clipPath2)" fill="white" width="113.3652" height="18.1328" stroke="none"/>
      <text x="898.9013" xml:space="preserve" y="1001.6754" clip-path="url(#clipPath2)" stroke="none">providesAgentRole</text>
      <path fill="none" d="M1479.3544 825.853 L1479.3544 1160.4174" clip-path="url(#clipPath2)"/>
      <path d="M1479.3544 1168.4174 L1484.3544 1156.4174 L1479.3544 1159.4174 L1474.3544 1156.4174 Z" clip-path="url(#clipPath2)" stroke="none"/>
      <rect x="1422.6718" y="988.0739" clip-path="url(#clipPath2)" fill="white" width="113.3652" height="18.1328" stroke="none"/>
      <text x="1424.6718" xml:space="preserve" y="1001.6754" clip-path="url(#clipPath2)" stroke="none">providesAgentRole</text>
      <path fill="none" d="M990.3161 1183.3873 L1199.7302 1183.3873" clip-path="url(#clipPath2)"/>
      <path d="M1207.7302 1183.3873 L1195.7302 1178.3873 L1198.7302 1183.3873 L1195.7302 1188.3873 Z" clip-path="url(#clipPath2)" stroke="none"/>
      <rect x="1059.8159" y="1174.321" clip-path="url(#clipPath2)" fill="white" width="78.4551" height="18.1328" stroke="none"/>
      <text x="1061.8159" xml:space="preserve" y="1187.9225" clip-path="url(#clipPath2)" stroke="none">performedBy</text>
      <path fill="none" d="M1442.5996 1183.3873 L1264.1438 1183.3873" clip-path="url(#clipPath2)"/>
      <path d="M1256.1438 1183.3873 L1268.1438 1188.3873 L1265.1438 1183.3873 L1268.1438 1178.3873 Z" clip-path="url(#clipPath2)" stroke="none"/>
      <rect x="1310.1445" y="1174.321" clip-path="url(#clipPath2)" fill="white" width="78.4551" height="18.1328" stroke="none"/>
      <text x="1312.1445" xml:space="preserve" y="1187.9225" clip-path="url(#clipPath2)" stroke="none">performedBy</text>
      <path fill="none" d="M1122.2394 1040.9838 L1231.9464 1077.3046 L1231.9464 1160.3918" clip-path="url(#clipPath2)"/>
      <path d="M1231.9464 1168.3918 L1236.9464 1156.3918 L1231.9464 1159.3918 L1226.9464 1156.3918 Z" clip-path="url(#clipPath2)" stroke="none"/>
      <rect x="1192.7189" y="1080.8784" clip-path="url(#clipPath2)" fill="white" width="78.4551" height="18.1328" stroke="none"/>
      <text x="1194.7189" xml:space="preserve" y="1094.48" clip-path="url(#clipPath2)" stroke="none">performedBy</text>
      <path fill="none" d="M1111.3187 1137.9991 L1004.7756 1168.657" clip-path="url(#clipPath2)"/>
      <path fill="white" d="M990.3605 1172.8049 L1007.3958 1174.1465 L1004.0774 1162.6144 Z" clip-path="url(#clipPath2)" stroke="none"/>
      <path fill="none" d="M990.3605 1172.8049 L1007.3958 1174.1465 L1004.0774 1162.6144 Z" clip-path="url(#clipPath2)"/>
      <rect x="1004.1404" y="1145.922" clip-path="url(#clipPath2)" fill="white" width="96.2734" height="18.1328" stroke="none"/>
      <text x="1006.1404" xml:space="preserve" y="1159.5236" clip-path="url(#clipPath2)" stroke="none">rdfs:subClassOf</text>
      <path fill="none" d="M1040.9293 1102.6096 L980.8245 1158.1951" clip-path="url(#clipPath2)"/>
      <path fill="white" d="M969.812 1168.3796 L985.6324 1161.9211 L977.4848 1153.1111 Z" clip-path="url(#clipPath2)" stroke="none"/>
      <path fill="none" d="M969.812 1168.3796 L985.6324 1161.9211 L977.4848 1153.1111 Z" clip-path="url(#clipPath2)"/>
      <rect x="957.2224" y="1126.4388" clip-path="url(#clipPath2)" fill="white" width="96.2734" height="18.1328" stroke="none"/>
      <text x="959.2225" xml:space="preserve" y="1140.0404" clip-path="url(#clipPath2)" stroke="none">rdfs:subClassOf</text>
      <path fill="none" d="M1368.3842 1117.6283 L1441.1187 1160.7295" clip-path="url(#clipPath2)"/>
      <path fill="white" d="M1454.0231 1168.3765 L1443.3171 1155.058 L1437.1996 1165.3815 Z" clip-path="url(#clipPath2)" stroke="none"/>
      <path fill="none" d="M1454.0231 1168.3765 L1443.3171 1155.058 L1437.1996 1165.3815 Z" clip-path="url(#clipPath2)"/>
      <rect x="1363.0717" y="1133.9388" clip-path="url(#clipPath2)" fill="white" width="96.2734" height="18.1328" stroke="none"/>
      <text x="1365.0717" xml:space="preserve" y="1147.5404" clip-path="url(#clipPath2)" stroke="none">rdfs:subClassOf</text>
      <path fill="none" d="M1495.389 825.8779 L1558.9733 885.2988" clip-path="url(#clipPath2)"/>
      <path d="M1564.8182 890.761 L1559.4646 878.9146 L1558.2427 884.616 L1552.6368 886.2208 Z" clip-path="url(#clipPath2)" stroke="none"/>
      <rect x="1486.0839" y="849.2592" clip-path="url(#clipPath2)" fill="white" width="88.0527" height="18.1328" stroke="none"/>
      <text x="1488.0839" xml:space="preserve" y="862.8608" clip-path="url(#clipPath2)" stroke="none">hasSANRecord</text>
    </g>
    <g fill="rgb(245,245,245)" text-rendering="geometricPrecision" shape-rendering="geometricPrecision" transform="matrix(1,0,0,1,-716,-620)" stroke="rgb(245,245,245)">
      <rect x="764.0902" y="1055.6679" clip-path="url(#clipPath2)" width="147.6523" rx="4" ry="4" height="149.0061" stroke="none"/>
      <rect x="764.0902" y="1055.6679" clip-path="url(#clipPath2)" fill="rgb(235,235,235)" width="147.6523" height="16.9551" stroke="none"/>
    </g>
    <g font-size="11px" stroke-linecap="butt" transform="matrix(1,0,0,1,-716,-620)" text-rendering="geometricPrecision" font-family="sans-serif" shape-rendering="geometricPrecision" stroke-miterlimit="1.45">
      <text x="807.767" xml:space="preserve" y="1068.3027" clip-path="url(#clipPath2)" stroke="none">Chess Game Result</text>
      <rect x="764.0902" y="1055.6679" clip-path="url(#clipPath2)" fill="none" width="147.6523" stroke-dasharray="6,2" rx="4" ry="4" height="149.0061"/>
    </g>
    <g fill="rgb(255,204,0)" text-rendering="geometricPrecision" shape-rendering="geometricPrecision" transform="matrix(1,0,0,1,-716,-620)" stroke="rgb(255,204,0)">
      <rect x="779.0902" y="1087.623" clip-path="url(#clipPath2)" width="117.6523" rx="4" ry="4" height="30" stroke="none"/>
    </g>
    <g text-rendering="geometricPrecision" stroke-miterlimit="1.45" shape-rendering="geometricPrecision" font-family="sans-serif" transform="matrix(1,0,0,1,-716,-620)" stroke-linecap="butt">
      <text x="786.0902" xml:space="preserve" y="1107.1582" clip-path="url(#clipPath2)" stroke="none">ChessGameResult</text>
      <rect x="779.0902" y="1087.623" clip-path="url(#clipPath2)" fill="none" width="117.6523" stroke-dasharray="6,2" rx="4" ry="4" height="30"/>
    </g>
    <g fill="yellow" text-rendering="geometricPrecision" shape-rendering="geometricPrecision" transform="matrix(1,0,0,1,-716,-620)" stroke="yellow">
      <rect x="801.5462" y="1159.674" clip-path="url(#clipPath2)" width="72.7402" rx="4" ry="4" height="30" stroke="none"/>
    </g>
    <g text-rendering="geometricPrecision" stroke-miterlimit="1.45" shape-rendering="geometricPrecision" font-family="sans-serif" transform="matrix(1,0,0,1,-716,-620)" stroke-linecap="butt">
      <text x="808.5463" xml:space="preserve" y="1179.2091" clip-path="url(#clipPath2)" stroke="none">xsd:string</text>
      <rect x="801.5462" y="1159.674" clip-path="url(#clipPath2)" fill="none" width="72.7402" rx="4" ry="4" height="30"/>
      <path fill="none" d="M947.6396 825.8856 L846.8253 1080.1534" clip-path="url(#clipPath2)"/>
      <path d="M843.8767 1087.5902 L852.9476 1078.2778 L847.1938 1079.2238 L843.6516 1074.5922 Z" clip-path="url(#clipPath2)" stroke="none"/>
      <rect x="865.757" y="947.6917" clip-path="url(#clipPath2)" fill="white" width="59.9863" height="18.1328" stroke="none"/>
      <text x="867.757" xml:space="preserve" y="961.2933" clip-path="url(#clipPath2)" stroke="none">hasResult</text>
      <path fill="none" d="M837.9164 1117.6454 L837.9164 1151.665" clip-path="url(#clipPath2)"/>
      <path d="M837.9164 1159.665 L842.9164 1147.665 L837.9164 1150.665 L832.9164 1147.665 Z" clip-path="url(#clipPath2)" stroke="none"/>
      <rect x="792.1937" y="1129.5821" clip-path="url(#clipPath2)" fill="white" width="91.4453" height="18.1328" stroke="none"/>
      <text x="794.1937" xml:space="preserve" y="1143.1837" clip-path="url(#clipPath2)" stroke="none">encodedAsSAN</text>
    </g>
    <g fill="rgb(245,245,245)" text-rendering="geometricPrecision" shape-rendering="geometricPrecision" transform="matrix(1,0,0,1,-716,-620)" stroke="rgb(245,245,245)">
      <rect x="731.944" y="780.3163" clip-path="url(#clipPath2)" width="128.0762" rx="4" ry="4" height="176.4418" stroke="none"/>
      <rect x="731.944" y="780.3163" clip-path="url(#clipPath2)" fill="rgb(235,235,235)" width="128.0762" height="16.9551" stroke="none"/>
    </g>
    <g font-size="11px" stroke-linecap="butt" transform="matrix(1,0,0,1,-716,-620)" text-rendering="geometricPrecision" font-family="sans-serif" shape-rendering="geometricPrecision" stroke-miterlimit="1.45">
      <text x="777.4698" xml:space="preserve" y="792.951" clip-path="url(#clipPath2)" stroke="none">Chess Opening</text>
      <rect x="731.944" y="780.3163" clip-path="url(#clipPath2)" fill="none" width="128.0762" stroke-dasharray="6,2" rx="4" ry="4" height="176.4418"/>
    </g>
    <g fill="rgb(255,204,0)" text-rendering="geometricPrecision" shape-rendering="geometricPrecision" transform="matrix(1,0,0,1,-716,-620)" stroke="rgb(255,204,0)">
      <rect x="746.944" y="812.2714" clip-path="url(#clipPath2)" width="98.0762" rx="4" ry="4" height="30" stroke="none"/>
    </g>
    <g text-rendering="geometricPrecision" stroke-miterlimit="1.45" shape-rendering="geometricPrecision" font-family="sans-serif" transform="matrix(1,0,0,1,-716,-620)" stroke-linecap="butt">
      <text x="753.944" xml:space="preserve" y="831.8065" clip-path="url(#clipPath2)" stroke="none">ChessOpening</text>
      <rect x="746.944" y="812.2714" clip-path="url(#clipPath2)" fill="none" width="98.0762" stroke-dasharray="6,2" rx="4" ry="4" height="30"/>
    </g>
    <g fill="yellow" text-rendering="geometricPrecision" shape-rendering="geometricPrecision" transform="matrix(1,0,0,1,-716,-620)" stroke="yellow">
      <rect x="759.6119" y="911.7581" clip-path="url(#clipPath2)" width="72.7402" rx="4" ry="4" height="30" stroke="none"/>
    </g>
    <g text-rendering="geometricPrecision" stroke-miterlimit="1.45" shape-rendering="geometricPrecision" font-family="sans-serif" transform="matrix(1,0,0,1,-716,-620)" stroke-linecap="butt">
      <text x="766.6119" xml:space="preserve" y="931.2933" clip-path="url(#clipPath2)" stroke="none">xsd:string</text>
      <rect x="759.6119" y="911.7581" clip-path="url(#clipPath2)" fill="none" width="72.7402" rx="4" ry="4" height="30"/>
    </g>
    <g fill="rgb(255,204,0)" text-rendering="geometricPrecision" shape-rendering="geometricPrecision" transform="matrix(1,0,0,1,-716,-620)" stroke="rgb(255,204,0)">
      <rect x="1223.916" y="715.8614" clip-path="url(#clipPath2)" width="45.3359" rx="4" ry="4" height="30" stroke="none"/>
    </g>
    <g text-rendering="geometricPrecision" stroke-miterlimit="1.45" shape-rendering="geometricPrecision" font-family="sans-serif" transform="matrix(1,0,0,1,-716,-620)" stroke-linecap="butt">
      <text x="1230.916" xml:space="preserve" y="735.3965" clip-path="url(#clipPath2)" stroke="none">Event</text>
      <rect x="1223.916" y="715.8614" clip-path="url(#clipPath2)" fill="none" width="45.3359" rx="4" ry="4" height="30"/>
      <path fill="none" d="M912.6172 818.6425 L867 827.2714 L853.0496 827.2714" clip-path="url(#clipPath2)"/>
      <path d="M845.0496 827.2714 L857.0496 832.2714 L854.0496 827.2714 L857.0496 822.2714 Z" clip-path="url(#clipPath2)" stroke="none"/>
      <rect x="850.0706" y="835.7141" clip-path="url(#clipPath2)" fill="white" width="73.5977" height="18.1328" stroke="none"/>
      <text x="852.0706" xml:space="preserve" y="849.3157" clip-path="url(#clipPath2)" stroke="none">hasOpening</text>
      <path fill="none" d="M795.9821 842.2818 L795.9821 903.785" clip-path="url(#clipPath2)"/>
      <path d="M795.9821 911.785 L800.9821 899.785 L795.9821 902.785 L790.9821 899.785 Z" clip-path="url(#clipPath2)" stroke="none"/>
      <rect x="756.8658" y="860.8819" clip-path="url(#clipPath2)" fill="white" width="78.2324" height="32.2656" stroke="none"/>
      <text x="767.2975" xml:space="preserve" y="874.4835" clip-path="url(#clipPath2)" stroke="none">hasName,</text>
      <text x="758.8658" xml:space="preserve" y="888.6163" clip-path="url(#clipPath2)" stroke="none">hasECOCode</text>
      <path fill="none" d="M994.5367 799.7071 L1209.4384 741.0076" clip-path="url(#clipPath2)"/>
      <path fill="white" d="M1223.9082 737.0551 L1206.8927 735.4831 L1210.0546 747.059 Z" clip-path="url(#clipPath2)" stroke="none"/>
      <path fill="none" d="M1223.9082 737.0551 L1206.8927 735.4831 L1210.0546 747.059 Z" clip-path="url(#clipPath2)"/>
      <rect x="1061.0776" y="759.3169" clip-path="url(#clipPath2)" fill="white" width="96.2734" height="18.1328" stroke="none"/>
      <text x="1063.0776" xml:space="preserve" y="772.9185" clip-path="url(#clipPath2)" stroke="none">rdfs:subClassOf</text>
      <path fill="none" d="M1032.5209 730.8614 L1208.9286 730.8614" clip-path="url(#clipPath2)"/>
      <path fill="white" d="M1223.9286 730.8614 L1207.9286 724.8614 L1207.9286 736.8614 Z" clip-path="url(#clipPath2)" stroke="none"/>
      <path fill="none" d="M1223.9286 730.8614 L1207.9286 724.8614 L1207.9286 736.8614 Z" clip-path="url(#clipPath2)"/>
      <rect x="1080.0942" y="721.795" clip-path="url(#clipPath2)" fill="white" width="96.2734" height="18.1328" stroke="none"/>
      <text x="1082.0942" xml:space="preserve" y="735.3965" clip-path="url(#clipPath2)" stroke="none">rdfs:subClassOf</text>
      <path fill="none" d="M1246.584 665.7964 L1246.584 700.8342" clip-path="url(#clipPath2)"/>
      <path fill="white" d="M1246.584 715.8342 L1252.584 699.8342 L1240.584 699.8342 Z" clip-path="url(#clipPath2)" stroke="none"/>
      <path fill="none" d="M1246.584 715.8342 L1252.584 699.8342 L1240.584 699.8342 Z" clip-path="url(#clipPath2)"/>
      <rect x="1198.4472" y="670.8296" clip-path="url(#clipPath2)" fill="white" width="96.2734" height="18.1328" stroke="none"/>
      <text x="1200.4473" xml:space="preserve" y="684.4312" clip-path="url(#clipPath2)" stroke="none">rdfs:subClassOf</text>
      <path fill="none" d="M1008.4857 665.8258 L1209.4725 720.7245" clip-path="url(#clipPath2)"/>
      <path fill="white" d="M1223.9425 724.6769 L1210.0889 714.6731 L1206.927 726.249 Z" clip-path="url(#clipPath2)" stroke="none"/>
      <path fill="none" d="M1223.9425 724.6769 L1210.0889 714.6731 L1206.927 726.249 Z" clip-path="url(#clipPath2)"/>
      <rect x="1067.2516" y="685.9594" clip-path="url(#clipPath2)" fill="white" width="96.2734" height="18.1328" stroke="none"/>
      <text x="1069.2516" xml:space="preserve" y="699.561" clip-path="url(#clipPath2)" stroke="none">rdfs:subClassOf</text>
      <path fill="none" d="M1445.4561 799.2382 L1283.4188 743.5261" clip-path="url(#clipPath2)"/>
      <path fill="white" d="M1269.2339 738.6489 L1282.4137 749.5251 L1286.3154 738.1772 Z" clip-path="url(#clipPath2)" stroke="none"/>
      <path fill="none" d="M1269.2339 738.6489 L1282.4137 749.5251 L1286.3154 738.1772 Z" clip-path="url(#clipPath2)"/>
      <rect x="1310.4653" y="760.3094" clip-path="url(#clipPath2)" fill="white" width="96.2734" height="18.1328" stroke="none"/>
      <text x="1312.4653" xml:space="preserve" y="773.9109" clip-path="url(#clipPath2)" stroke="none">rdfs:subClassOf</text>
      <path fill="none" d="M1269.267 730.8614 L1428.1895 730.8614" clip-path="url(#clipPath2)"/>
      <path d="M1436.1895 730.8614 L1424.1895 725.8614 L1427.1895 730.8614 L1424.1895 735.8614 Z" clip-path="url(#clipPath2)" stroke="none"/>
      <rect x="1330.3889" y="721.795" clip-path="url(#clipPath2)" fill="white" width="44.6758" height="18.1328" stroke="none"/>
      <text x="1332.3889" xml:space="preserve" y="735.3965" clip-path="url(#clipPath2)" stroke="none">atPlace</text>
      <path fill="none" d="M1269.2932 723.1979 L1385.5892 683.9526" clip-path="url(#clipPath2)"/>
      <path d="M1393.1693 681.3947 L1380.2006 680.494 L1384.6417 684.2723 L1383.3979 689.9691 Z" clip-path="url(#clipPath2)" stroke="none"/>
      <rect x="1304.7929" y="694.7174" clip-path="url(#clipPath2)" fill="white" width="44.0605" height="18.1328" stroke="none"/>
      <text x="1306.793" xml:space="preserve" y="708.319" clip-path="url(#clipPath2)" stroke="none">atTime</text>
    </g>
  </g>
</svg>
