<?xml version="1.0" encoding="UTF-8" standalone="no"?>
<!-- Created with Inkscape (http://www.inkscape.org/) -->
<svg
   xmlns:dc="http://purl.org/dc/elements/1.1/"
   xmlns:cc="http://creativecommons.org/ns#"
   xmlns:rdf="http://www.w3.org/1999/02/22-rdf-syntax-ns#"
   xmlns:svg="http://www.w3.org/2000/svg"
   xmlns="http://www.w3.org/2000/svg"
   xmlns:sodipodi="http://sodipodi.sourceforge.net/DTD/sodipodi-0.dtd"
   xmlns:inkscape="http://www.inkscape.org/namespaces/inkscape"
   id="svg5400"
   sodipodi:version="0.32"
   inkscape:version="0.46"
   width="274.22039"
   height="114.29193"
   xml:space="preserve"
   sodipodi:docname="class-by-attribute-value.svg"
   inkscape:output_extension="org.inkscape.output.svg.inkscape"><metadata
     id="metadata5405"><rdf:RDF><cc:Work
         rdf:about=""><dc:format>image/svg+xml</dc:format><dc:type
           rdf:resource="http://purl.org/dc/dcmitype/StillImage" /></cc:Work></rdf:RDF></metadata><defs
     id="defs5403"><inkscape:perspective
       sodipodi:type="inkscape:persp3d"
       inkscape:vp_x="0 : 526.18109 : 1"
       inkscape:vp_y="0 : 1000 : 0"
       inkscape:vp_z="744.09448 : 526.18109 : 1"
       inkscape:persp3d-origin="372.04724 : 350.78739 : 1"
       id="perspective5407" /></defs><sodipodi:namedview
     inkscape:window-height="719"
     inkscape:window-width="641"
     inkscape:pageshadow="2"
     inkscape:pageopacity="0.0"
     guidetolerance="10.0"
     gridtolerance="10.0"
     objecttolerance="10.0"
     borderopacity="1.0"
     bordercolor="#666666"
     pagecolor="#ffffff"
     id="base"
     showgrid="false"
     inkscape:zoom="1.9692189"
     inkscape:cx="142.29731"
     inkscape:cy="57.145965"
     inkscape:window-x="0"
     inkscape:window-y="25"
     inkscape:current-layer="g5411" /><g
     id="g5409"
     inkscape:groupmode="layer"
     inkscape:label="class-by-attribute-value"
     transform="matrix(1.25,0,0,-1.25,0,114.29193)"><g
       id="g5411"><path
   d="M 72.953,91.035 L 126.645,91.035 C 130.445,91.035 133.504,87.977 133.504,84.18 L 133.504,7.254 C 133.504,3.457 130.445,0.398 126.645,0.398 L 72.953,0.398 C 69.152,0.398 66.098,3.457 66.098,7.254 L 66.098,84.18 C 66.098,87.977 69.152,91.035 72.953,91.035 z"
   style="fill:#cccccc;fill-opacity:1;fill-rule:nonzero;stroke:none"
   id="path5413" /><g
   id="g5415"
   transform="matrix(1,0,0,-1,0,91.43354)"><path
     d="M 72.953,0.398 L 126.645,0.398 C 130.445,0.398 133.504,3.457 133.504,7.254 L 133.504,84.18 C 133.504,87.977 130.445,91.035 126.645,91.035 L 72.953,91.035 C 69.152,91.035 66.098,87.977 66.098,84.18 L 66.098,7.254 C 66.098,3.457 69.152,0.398 72.953,0.398 z"
     style="fill:none;stroke:#000000;stroke-opacity:0.153005;stroke-width:0.8;stroke-linecap:butt;stroke-linejoin:miter;stroke-miterlimit:4;stroke-dasharray:none"
     id="path5417" /></g><g
   id="g5419"
   transform="matrix(1,0,0,-1,0,91.43354)"><path
     d="M 76.859,5.883 L 122.207,5.883 C 126.004,5.883 129.062,8.941 129.062,12.738 L 129.062,21.203 C 129.062,25.004 126.004,28.062 122.207,28.062 L 76.859,28.062 C 73.059,28.062 70,25.004 70,21.203 L 70,12.738 C 70,8.941 73.059,5.883 76.859,5.883 z"
     style="fill:#00ff00;fill-opacity:1;fill-rule:nonzero;stroke:#ff0000;stroke-opacity:1;stroke-width:0.8;stroke-linecap:butt;stroke-linejoin:miter;stroke-miterlimit:4;stroke-dasharray:none"
     id="path5421" /></g><text
   transform="matrix(1,0,0,-1,74.572522,76.408406)"
   id="text5423"><tspan
     style="fill:#000000;fill-opacity:1;fill-rule:nonzero;stroke:none;font-family:BitstreamVeraSans;font-variant:normal;font-weight:normal;font-size:6.4;writing-mode:lr;-inkscape-font-specification:BitstreamVeraSans"
     x="0 4.8 6.3936 10.3872 13.5808"
     y="0"
     sodipodi:role="line"
     id="tspan5425">Class</tspan></text>

<text
   transform="matrix(1,0,0,-1,74.572522,68.408406)"
   id="text5427"><tspan
     style="fill:#000000;fill-opacity:1;fill-rule:nonzero;stroke:none;font-family:BitstreamVeraSans;font-variant:normal;font-weight:normal;font-size:6.4;writing-mode:lr;-inkscape-font-specification:BitstreamVeraSans"
     x="0 4.8 8.7936 11.1936 13.5936 17.5872 20.7808 24.7808 28.7744 32.768 36.7616 40.7616 44.7552 47.9488"
     y="0"
     sodipodi:role="line"
     id="tspan5429">Correspondence</tspan></text>

<text
   transform="matrix(1,0,0,-1,-0.26875,63.451277)"
   id="text5431"><tspan
     style="fill:#000000;fill-opacity:1;fill-rule:nonzero;stroke:none;font-family:BitstreamVeraSans;font-variant:normal;font-weight:normal;font-size:6.4;writing-mode:lr;-inkscape-font-specification:BitstreamVeraSans"
     x="0 5.5936 7.1872 11.1872 15.1808 17.5744 21.5744 25.5744 27.968 31.968 35.9616 39.9616 43.9552 47.9488 54.3424 55.936 59.936"
     y="0"
     sodipodi:role="line"
     id="tspan5433">wine:BordeauxWine</tspan></text>

<text
   transform="matrix(1,0,0,-1,185.84737,73.554988)"
   id="text5435"><tspan
     style="fill:#000000;fill-opacity:1;fill-rule:nonzero;stroke:none;font-family:BitstreamVeraSans;font-variant:normal;font-weight:normal;font-size:6.4;writing-mode:lr;-inkscape-font-specification:BitstreamVeraSans"
     x="0 3.9936 5.5872 9.5872 11.9808 15.9808 17.5744"
     y="0"
     sodipodi:role="line"
     id="tspan5437">vin:Vin</tspan></text>

<g
   id="g5439"
   transform="matrix(1,0,0,-1,0,91.43354)"><path
     d="M 56.066,16.879 C 69.629,16.879 69.629,16.879 69.629,16.879"
     style="fill:none;stroke:#000000;stroke-opacity:1;stroke-width:0.8;stroke-linecap:butt;stroke-linejoin:miter;stroke-miterlimit:4;stroke-dasharray:none"
     id="path5441" /></g><g
   id="g5443"
   transform="matrix(1,0,0,-1,0,91.43354)"><path
     d="M 129.492,17.32 C 140.816,17.32 140.816,17.32 140.816,17.32"
     style="fill:none;stroke:#000000;stroke-opacity:1;stroke-width:0.8;stroke-linecap:butt;stroke-linejoin:miter;stroke-miterlimit:4;stroke-dasharray:none"
     id="path5445" /></g><g
   id="g5447"
   transform="matrix(1,0,0,-1,0,91.43354)"><path
     d="M 196.895,20.762 C 196.895,30.02 196.895,30.02 196.895,30.02"
     style="fill:none;stroke:#000000;stroke-opacity:1;stroke-width:0.8;stroke-linecap:butt;stroke-linejoin:miter;stroke-miterlimit:4;stroke-dasharray:none"
     id="path5449" /></g><g
   id="g5451"
   transform="matrix(0,-1,-1,0,0,91.43354)"><path
     d="M 31.867,-196.895 L 29.098,-195.297 L 29.098,-198.496 L 31.867,-196.895 z"
     style="fill:#000000;fill-opacity:1;fill-rule:evenodd;stroke:#000000;stroke-opacity:1;stroke-width:0.4;stroke-linecap:butt;stroke-linejoin:miter;stroke-miterlimit:4;stroke-dasharray:none"
     id="path5453" /></g><text
   transform="matrix(1,0,0,-1,183.63766,52.951497)"
   id="text5455"><tspan
     style="fill:#000000;fill-opacity:1;fill-rule:nonzero;stroke:none;font-family:BitstreamVeraSans;font-variant:normal;font-weight:normal;font-size:6.4;writing-mode:lr;-inkscape-font-specification:BitstreamVeraSans"
     x="0 3.9936 5.5872 9.5872 11.9808 14.3808 18.3744 20.7744 23.1744 27.168 28.7616"
     y="0"
     sodipodi:role="line"
     id="tspan5457">vin:terroir</tspan></text>

<text
   transform="scale(1,-1)"
   id="text5459"
   x="174.71379"
   y="-32.490757"><tspan
     style="font-size:6.4000001px;font-variant:normal;font-weight:normal;writing-mode:lr-tb;fill:#000000;fill-opacity:1;fill-rule:nonzero;stroke:none;font-family:BitstreamVeraSans;-inkscape-font-specification:BitstreamVeraSans"
     x="174.71379 178.70738 182.70738 186.70099"
     y="-32.490757"
     sodipodi:role="line"
     id="tspan5461">geo:Bordeaux</tspan></text>

<g
   id="g5463"
   transform="matrix(1,0,0,-1,0,91.43354)"><path
     d="M 196.895,39.219 C 196.895,48.477 196.895,48.477 196.895,48.477"
     style="fill:none;stroke:#000000;stroke-opacity:1;stroke-width:0.8;stroke-linecap:butt;stroke-linejoin:miter;stroke-miterlimit:4;stroke-dasharray:none"
     id="path5465" /></g><g
   id="g5467"
   transform="matrix(0,-1.7701468,-1,0,0,127.90384)"><path
     d="M 50.32,-196.895 L 47.555,-195.297 L 47.555,-198.496 L 50.32,-196.895 z"
     style="fill:#000000;fill-opacity:1;fill-rule:evenodd;stroke:#000000;stroke-width:0.30064595;stroke-linecap:butt;stroke-linejoin:miter;stroke-miterlimit:4;stroke-dasharray:none;stroke-opacity:1"
     id="path5469" /></g><g
   id="g5471"
   transform="matrix(1,0,0,-1,0,91.43354)"><path
     d="M 77.789,48.367 L 121.812,48.367 C 125.609,48.367 128.668,51.426 128.668,55.227 L 128.668,61.48 C 128.668,65.281 125.609,68.336 121.812,68.336 L 77.789,68.336 C 73.988,68.336 70.93,65.281 70.93,61.48 L 70.93,55.227 C 70.93,51.426 73.988,48.367 77.789,48.367 z"
     style="fill:#00ff00;fill-opacity:1;fill-rule:nonzero;stroke:#ff0000;stroke-opacity:1;stroke-width:0.8;stroke-linecap:butt;stroke-linejoin:miter;stroke-miterlimit:4;stroke-dasharray:none"
     id="path5473" /></g><text
   transform="matrix(1,0,0,-1,75.502673,34.805965)"
   id="text5475"><tspan
     style="fill:#000000;fill-opacity:1;fill-rule:nonzero;stroke:none;font-family:BitstreamVeraSans;font-variant:normal;font-weight:normal;font-size:6.4;writing-mode:lr;-inkscape-font-specification:BitstreamVeraSans"
     x="0 4 6.4 8.8 11.2 12.7936 16.7872 20.7808 23.1808 27.1808 29.5744 33.568 37.5616 39.1616 43.1552 47.1552"
     y="0"
     sodipodi:role="line"
     id="tspan5477">Attribute value </tspan></text>

<text
   transform="matrix(1,0,0,-1,75.502673,26.805965)"
   id="text5479"><tspan
     style="fill:#000000;fill-opacity:1;fill-rule:nonzero;stroke:none;font-family:BitstreamVeraSans;font-variant:normal;font-weight:normal;font-size:6.4;writing-mode:lr;-inkscape-font-specification:BitstreamVeraSans"
     x="0 2.4 6.4 9.5936 11.9936 14.3872 15.9872 19.1808 21.5808 23.1744 27.168"
     y="0"
     sodipodi:role="line"
     id="tspan5481">restriction</tspan></text>

<g
   id="g5483"
   transform="matrix(1,0,0,-1,0,91.43354)"><path
     d="M 100.242,28.59 C 100.242,48.48 100.242,48.48 100.242,48.48"
     style="fill:none;stroke:#000000;stroke-opacity:1;stroke-width:0.8;stroke-linecap:butt;stroke-linejoin:miter;stroke-miterlimit:4;stroke-dasharray:0.8,0.8;stroke-dashoffset:0"
     id="path5485" /></g><text
   transform="matrix(1,0,0,-1,71.294397,13.344502)"
   id="text5487"><tspan
     style="fill:#000000;fill-opacity:1;fill-rule:nonzero;stroke:none;font-family:BitstreamVeraSans;font-variant:normal;font-weight:normal;font-size:6.4;writing-mode:lr;-inkscape-font-specification:BitstreamVeraSans"
     x="0 4 6.4 8.8 11.2 12.7936 16.7872 20.7808 23.1808 27.1808 29.5744 33.568 37.5616 39.1616 43.1552 47.1552"
     y="0"
     sodipodi:role="line"
     id="tspan5489">Attribute value </tspan></text>

<text
   transform="matrix(1,0,0,-1,71.294397,5.344502)"
   id="text5491"><tspan
     style="fill:#000000;fill-opacity:1;fill-rule:nonzero;stroke:none;font-family:BitstreamVeraSans;font-variant:normal;font-weight:normal;font-size:6.4;writing-mode:lr;-inkscape-font-specification:BitstreamVeraSans"
     x="0 2.4 6.4 9.5936 11.9936 14.3872 15.9872 19.1808 21.5808 23.1744 27.168 31.1616 33.5552 37.5552 41.5488 43.9488 46.3488 50.3424 52.7424"
     y="0"
     sodipodi:role="line"
     id="tspan5493">restriction pattern</tspan></text>

<g
   id="g5495"
   transform="matrix(1,0,0,-1,0,91.43354)"><path
     d="M 129.258,57.98 C 140.609,57.98 140.609,57.98 140.609,57.98"
     style="fill:none;stroke:#000000;stroke-opacity:1;stroke-width:0.8;stroke-linecap:butt;stroke-linejoin:miter;stroke-miterlimit:4;stroke-dasharray:none"
     id="path5497" /></g><text
   transform="matrix(1,0,0,-1,146.38961,71.979903)"
   id="text5499"><tspan
     style="fill:#000000;fill-opacity:1;fill-rule:nonzero;stroke:none;font-family:BitstreamVeraSans;font-variant:normal;font-weight:normal;font-size:8;writing-mode:lr;-inkscape-font-specification:BitstreamVeraSans"
     x="0 5.6 7.992 12.784 16.776"
     y="0"
     sodipodi:role="line"
     id="tspan5501">Class</tspan></text>

<g
   id="g5503"
   transform="matrix(1,0,0,-1,0,91.43354)"><path
     d="M 157.879,20.738 C 157.879,29.996 157.879,29.996 157.879,29.996"
     style="fill:none;stroke:#000000;stroke-opacity:1;stroke-width:0.8;stroke-linecap:butt;stroke-linejoin:miter;stroke-miterlimit:4;stroke-dasharray:none"
     id="path5505" /></g><g
   id="g5507"
   transform="matrix(0,-1,-1,0,0,91.43354)"><path
     d="M 31.844,-157.879 L 29.074,-156.281 L 29.074,-159.48 L 31.844,-157.879 z"
     style="fill:#000000;fill-opacity:1;fill-rule:evenodd;stroke:#000000;stroke-opacity:1;stroke-width:0.4;stroke-linecap:butt;stroke-linejoin:miter;stroke-miterlimit:4;stroke-dasharray:none"
     id="path5509" /></g><text
   transform="matrix(1,0,0,-1,139.76046,52.092537)"
   id="text5511"><tspan
     style="fill:#000000;fill-opacity:1;fill-rule:nonzero;stroke:none;font-family:BitstreamVeraSans;font-variant:normal;font-weight:normal;font-size:8;writing-mode:lr;-inkscape-font-specification:BitstreamVeraSans"
     x="0 5.6 8.8 12 15.2 17.592 22.384 27.176 30.376"
     y="0"
     sodipodi:role="line"
     id="tspan5513">Attribute</tspan></text>

<text
   transform="matrix(1,0,0,-1,146.38959,31.656807)"
   id="text5515"><tspan
     style="fill:#000000;fill-opacity:1;fill-rule:nonzero;stroke:none;font-family:BitstreamVeraSans;font-variant:normal;font-weight:normal;font-size:8;writing-mode:lr;-inkscape-font-specification:BitstreamVeraSans"
     x="0 5.6 10.392 12.784 17.584"
     y="0"
     sodipodi:role="line"
     id="tspan5517">Value</tspan></text>

<g
   id="g5519"
   transform="matrix(1,0,0,-1,0,91.43354)"><path
     d="M 157.879,42.117 C 157.879,51.375 157.879,51.375 157.879,51.375"
     style="fill:none;stroke:#000000;stroke-opacity:1;stroke-width:0.8;stroke-linecap:butt;stroke-linejoin:miter;stroke-miterlimit:4;stroke-dasharray:none"
     id="path5521" /></g><g
   id="g5523"
   transform="matrix(0,-1,-1,0,0,91.43354)"><path
     d="M 53.223,-157.879 L 50.453,-156.281 L 50.453,-159.48 L 53.223,-157.879 z"
     style="fill:#000000;fill-opacity:1;fill-rule:evenodd;stroke:#000000;stroke-opacity:1;stroke-width:0.4;stroke-linecap:butt;stroke-linejoin:miter;stroke-miterlimit:4;stroke-dasharray:none"
     id="path5525" /></g><text
   transform="matrix(1,0,0,-1,33.065076,72.257466)"
   id="text5527"><tspan
     style="fill:#000000;fill-opacity:1;fill-rule:nonzero;stroke:none;font-family:BitstreamVeraSans;font-variant:normal;font-weight:normal;font-size:8;writing-mode:lr;-inkscape-font-specification:BitstreamVeraSans"
     x="0 5.6 7.992 12.784 16.776"
     y="0"
     sodipodi:role="line"
     id="tspan5529">Class</tspan></text>

</g></g></svg>