<?xml version="1.0" encoding="UTF-8"?><svg xmlns="http://www.w3.org/2000/svg" xmlns:xlink="http://www.w3.org/1999/xlink" fill-opacity="1" color-rendering="auto" color-interpolation="auto" stroke="black" text-rendering="auto" stroke-linecap="square" width="1089" stroke-miterlimit="10" stroke-opacity="1" shape-rendering="auto" fill="black" stroke-dasharray="none" font-weight="normal" stroke-width="1" height="480" font-family="'Dialog'" font-style="normal" stroke-linejoin="miter" font-size="12" stroke-dashoffset="0" image-rendering="auto">
  <!--Generated by ySVG 2.5-->
  <defs id="genericDefs"/>
  <g>
    <defs id="defs1">
      <clipPath clipPathUnits="userSpaceOnUse" id="clipPath1">
        <path d="M0 0 L1089 0 L1089 480 L0 480 L0 0 Z"/>
      </clipPath>
      <clipPath clipPathUnits="userSpaceOnUse" id="clipPath2">
        <path d="M99 68 L1188 68 L1188 548 L99 548 L99 68 Z"/>
      </clipPath>
    </defs>
    <g fill="white" text-rendering="geometricPrecision" shape-rendering="geometricPrecision" transform="translate(-99,-68)" stroke="white">
      <rect x="99" width="1089" height="480" y="68" clip-path="url(#clipPath2)" stroke="none"/>
    </g>
    <g fill="yellow" text-rendering="geometricPrecision" shape-rendering="geometricPrecision" transform="matrix(1,0,0,1,-99,-68)" stroke="yellow">
      <rect x="639.9141" y="286" clip-path="url(#clipPath2)" width="201.6719" rx="4" ry="4" height="44" stroke="none"/>
    </g>
    <g font-size="16" stroke-linecap="butt" transform="matrix(1,0,0,1,-99,-68)" text-rendering="geometricPrecision" font-family="sans-serif" shape-rendering="geometricPrecision" stroke-miterlimit="1.45">
      <text x="658.5" xml:space="preserve" y="314.2852" clip-path="url(#clipPath2)" stroke="none">MaterialTransformation</text>
      <rect x="639.9141" y="286" clip-path="url(#clipPath2)" fill="none" width="201.6719" rx="4" ry="4" height="44"/>
    </g>
    <g fill="yellow" text-rendering="geometricPrecision" shape-rendering="geometricPrecision" transform="matrix(1,0,0,1,-99,-68)" stroke="yellow">
      <rect x="409.2888" y="298.1456" clip-path="url(#clipPath2)" width="88.4453" rx="4" ry="4" height="44" stroke="none"/>
    </g>
    <g font-size="16" stroke-linecap="butt" transform="matrix(1,0,0,1,-99,-68)" text-rendering="geometricPrecision" font-family="sans-serif" shape-rendering="geometricPrecision" stroke-miterlimit="1.45">
      <text x="419.2732" xml:space="preserve" y="326.4308" clip-path="url(#clipPath2)" stroke="none">Resource</text>
      <rect x="409.2888" y="298.1456" clip-path="url(#clipPath2)" fill="none" width="88.4453" rx="4" ry="4" height="44"/>
    </g>
    <g fill="yellow" text-rendering="geometricPrecision" shape-rendering="geometricPrecision" transform="matrix(1,0,0,1,-99,-68)" stroke="yellow">
      <rect x="413.7224" y="124.1456" clip-path="url(#clipPath2)" width="79.5781" rx="4" ry="4" height="44" stroke="none"/>
    </g>
    <g font-size="16" stroke-linecap="butt" transform="matrix(1,0,0,1,-99,-68)" text-rendering="geometricPrecision" font-family="sans-serif" shape-rendering="geometricPrecision" stroke-miterlimit="1.45">
      <text x="424.613" xml:space="preserve" y="152.4308" clip-path="url(#clipPath2)" stroke="none">Catalyst</text>
      <rect x="413.7224" y="124.1456" clip-path="url(#clipPath2)" fill="none" width="79.5781" rx="4" ry="4" height="44"/>
    </g>
    <g fill="yellow" text-rendering="geometricPrecision" shape-rendering="geometricPrecision" transform="matrix(1,0,0,1,-99,-68)" stroke="yellow">
      <rect x="417.1365" y="488.25" clip-path="url(#clipPath2)" width="72.75" rx="4" ry="4" height="44" stroke="none"/>
    </g>
    <g font-size="16" stroke-linecap="butt" transform="matrix(1,0,0,1,-99,-68)" text-rendering="geometricPrecision" font-family="sans-serif" shape-rendering="geometricPrecision" stroke-miterlimit="1.45">
      <text x="425.9411" xml:space="preserve" y="516.5352" clip-path="url(#clipPath2)" stroke="none">Product</text>
      <rect x="417.1365" y="488.25" clip-path="url(#clipPath2)" fill="none" width="72.75" rx="4" ry="4" height="44"/>
    </g>
    <g fill="yellow" text-rendering="geometricPrecision" shape-rendering="geometricPrecision" transform="matrix(1,0,0,1,-99,-68)" stroke="yellow">
      <rect x="114.6507" y="298.1456" clip-path="url(#clipPath2)" width="130.9682" rx="4" ry="4" height="44" stroke="none"/>
    </g>
    <g font-size="16" stroke-linecap="butt" transform="matrix(1,0,0,1,-99,-68)" text-rendering="geometricPrecision" font-family="sans-serif" shape-rendering="geometricPrecision" stroke-miterlimit="1.45">
      <text x="133.8965" xml:space="preserve" y="326.4308" clip-path="url(#clipPath2)" stroke="none">MaterialType</text>
      <rect x="114.6507" y="298.1456" clip-path="url(#clipPath2)" fill="none" width="130.9682" rx="4" ry="4" height="44"/>
    </g>
    <g fill="yellow" text-rendering="geometricPrecision" shape-rendering="geometricPrecision" transform="matrix(1,0,0,1,-99,-68)" stroke="yellow">
      <rect x="675.2659" y="116" clip-path="url(#clipPath2)" width="130.9682" rx="4" ry="4" height="44" stroke="none"/>
    </g>
    <g font-size="16" stroke-linecap="butt" transform="matrix(1,0,0,1,-99,-68)" text-rendering="geometricPrecision" font-family="sans-serif" shape-rendering="geometricPrecision" stroke-miterlimit="1.45">
      <text x="690.4883" xml:space="preserve" y="144.2852" clip-path="url(#clipPath2)" stroke="none">Neighborhood</text>
      <rect x="675.2659" y="116" clip-path="url(#clipPath2)" fill="none" width="130.9682" rx="4" ry="4" height="44"/>
    </g>
    <g fill="rgb(204,255,204)" text-rendering="geometricPrecision" shape-rendering="geometricPrecision" transform="matrix(1,0,0,1,-99,-68)" stroke="rgb(204,255,204)">
      <rect x="1001.7659" y="116" clip-path="url(#clipPath2)" width="81.9682" rx="4" ry="4" height="44" stroke="none"/>
    </g>
    <g font-size="16" stroke-linecap="butt" transform="matrix(1,0,0,1,-99,-68)" text-rendering="geometricPrecision" font-family="sans-serif" shape-rendering="geometricPrecision" stroke-miterlimit="1.45">
      <text x="1017.4023" xml:space="preserve" y="144.2852" clip-path="url(#clipPath2)" stroke="none">Energy</text>
      <rect x="1001.7659" y="116" clip-path="url(#clipPath2)" fill="none" width="81.9682" stroke-dasharray="6,2" rx="4" ry="4" height="44"/>
    </g>
    <g fill="yellow" text-rendering="geometricPrecision" shape-rendering="geometricPrecision" transform="matrix(1,0,0,1,-99,-68)" stroke="yellow">
      <rect x="672.2659" y="488.25" clip-path="url(#clipPath2)" width="136.9682" rx="4" ry="4" height="44" stroke="none"/>
    </g>
    <g font-size="16" stroke-linecap="butt" transform="matrix(1,0,0,1,-99,-68)" text-rendering="geometricPrecision" font-family="sans-serif" shape-rendering="geometricPrecision" stroke-miterlimit="1.45">
      <text x="697.1797" xml:space="preserve" y="516.5352" clip-path="url(#clipPath2)" stroke="none">time:Interval</text>
      <rect x="672.2659" y="488.25" clip-path="url(#clipPath2)" fill="none" width="136.9682" rx="4" ry="4" height="44"/>
    </g>
    <g fill="rgb(204,255,204)" text-rendering="geometricPrecision" shape-rendering="geometricPrecision" transform="matrix(1,0,0,1,-99,-68)" stroke="rgb(204,255,204)">
      <rect x="1059.2011" y="240" clip-path="url(#clipPath2)" width="112.9682" rx="4" ry="4" height="44" stroke="none"/>
    </g>
    <g font-size="16" stroke-linecap="butt" transform="matrix(1,0,0,1,-99,-68)" text-rendering="geometricPrecision" font-family="sans-serif" shape-rendering="geometricPrecision" stroke-miterlimit="1.45">
      <text x="1069.8766" xml:space="preserve" y="268.2852" clip-path="url(#clipPath2)" stroke="none">EnergyValue</text>
      <rect x="1059.2011" y="240" clip-path="url(#clipPath2)" fill="none" width="112.9682" stroke-dasharray="6,2" rx="4" ry="4" height="44"/>
    </g>
    <g fill="rgb(204,255,204)" text-rendering="geometricPrecision" shape-rendering="geometricPrecision" transform="matrix(1,0,0,1,-99,-68)" stroke="rgb(204,255,204)">
      <path d="M849.1954 360 L962.6809 360 L950.0714 403 L836.5859 403 Z" clip-path="url(#clipPath2)" fill-rule="evenodd" stroke="none"/>
    </g>
    <g font-size="16" stroke-linecap="butt" transform="matrix(1,0,0,1,-99,-68)" text-rendering="geometricPrecision" font-family="sans-serif" shape-rendering="geometricPrecision" stroke-miterlimit="1.45">
      <text x="860.9381" xml:space="preserve" y="387.7852" clip-path="url(#clipPath2)" stroke="none">xsd:double</text>
      <path fill="none" stroke-dasharray="6,2" d="M849.1954 360 L962.6809 360 L950.0714 403 L836.5859 403 Z" fill-rule="evenodd" clip-path="url(#clipPath2)"/>
    </g>
    <g fill="rgb(204,255,204)" text-rendering="geometricPrecision" shape-rendering="geometricPrecision" transform="matrix(1,0,0,1,-99,-68)" stroke="rgb(204,255,204)">
      <rect x="1062.2659" y="391.25" clip-path="url(#clipPath2)" width="106.8386" rx="4" ry="4" height="44" stroke="none"/>
    </g>
    <g font-size="16" stroke-linecap="butt" transform="matrix(1,0,0,1,-99,-68)" text-rendering="geometricPrecision" font-family="sans-serif" shape-rendering="geometricPrecision" stroke-miterlimit="1.45">
      <text x="1076.111" xml:space="preserve" y="419.5352" clip-path="url(#clipPath2)" stroke="none">EnergyUnit</text>
      <rect x="1062.2659" y="391.25" clip-path="url(#clipPath2)" fill="none" width="106.8386" stroke-dasharray="6,2" rx="4" ry="4" height="44"/>
    </g>
    <g fill="rgb(204,255,204)" text-rendering="geometricPrecision" shape-rendering="geometricPrecision" transform="matrix(1,0,0,1,-99,-68)" stroke="rgb(204,255,204)">
      <path d="M849.1954 488.75 L962.6809 488.75 L950.0714 531.75 L836.5859 531.75 Z" clip-path="url(#clipPath2)" fill-rule="evenodd" stroke="none"/>
    </g>
    <g font-size="16" stroke-linecap="butt" transform="matrix(1,0,0,1,-99,-68)" text-rendering="geometricPrecision" font-family="sans-serif" shape-rendering="geometricPrecision" stroke-miterlimit="1.45">
      <text x="865.399" xml:space="preserve" y="516.5352" clip-path="url(#clipPath2)" stroke="none">xsd:string</text>
      <path fill="none" stroke-dasharray="6,2" d="M849.1954 488.75 L962.6809 488.75 L950.0714 531.75 L836.5859 531.75 Z" fill-rule="evenodd" clip-path="url(#clipPath2)"/>
    </g>
    <g stroke-linecap="butt" transform="matrix(1,0,0,1,-99,-68)" fill="navy" text-rendering="geometricPrecision" shape-rendering="geometricPrecision" stroke="navy" stroke-miterlimit="1.45">
      <path fill="none" d="M635.9466 312.4315 L508.6972 317.8121" clip-path="url(#clipPath2)"/>
      <path d="M643.9394 312.0935 C644.0328 314.3007 642.3192 316.1656 640.112 316.2589 C637.9048 316.3523 636.0399 314.6387 635.9466 312.4315 C635.8532 310.2244 637.5668 308.3594 639.774 308.2661 C641.9811 308.1727 643.8461 309.8864 643.9394 312.0935 Z" clip-path="url(#clipPath2)" stroke="none"/>
      <path d="M497.707 318.2768 L509.9498 323.7645 L509.4428 311.7752 Z" clip-path="url(#clipPath2)" stroke="none"/>
      <rect x="536.1327" y="303.4689" clip-path="url(#clipPath2)" fill="white" width="65.3828" height="23.6016" stroke="none"/>
      <text x="538.1327" font-size="16" y="321.5549" clip-path="url(#clipPath2)" font-family="sans-serif" stroke="none" xml:space="preserve">hasInput</text>
      <path fill="none" d="M453.5114 298.1832 L453.5114 176.1569" clip-path="url(#clipPath2)" stroke="black"/>
      <path fill="black" d="M453.5114 168.1569 L448.5114 180.1569 L453.5114 177.1569 L458.5114 180.1569 Z" clip-path="url(#clipPath2)" stroke="none"/>
      <rect x="396.3825" y="221.3448" clip-path="url(#clipPath2)" fill="white" width="114.2578" height="23.6016" stroke="none"/>
    </g>
    <g font-size="16" stroke-linecap="butt" transform="matrix(1,0,0,1,-99,-68)" text-rendering="geometricPrecision" font-family="sans-serif" shape-rendering="geometricPrecision" stroke-miterlimit="1.45">
      <text x="398.3825" xml:space="preserve" y="239.4308" clip-path="url(#clipPath2)" stroke="none">owl:disjointWith</text>
    </g>
    <g stroke-linecap="butt" transform="matrix(1,0,0,1,-99,-68)" fill="navy" text-rendering="geometricPrecision" shape-rendering="geometricPrecision" stroke="navy" stroke-miterlimit="1.45">
      <path fill="none" d="M698.2397 284.0461 L500.9994 172.9043" clip-path="url(#clipPath2)"/>
      <path d="M705.2094 287.9734 C704.1249 289.898 701.6855 290.5791 699.7609 289.4946 C697.8363 288.4101 697.1552 285.9708 698.2397 284.0461 C699.3242 282.1215 701.7635 281.4404 703.6882 282.5249 C705.6128 283.6094 706.2939 286.0488 705.2094 287.9734 Z" clip-path="url(#clipPath2)" stroke="none"/>
      <path d="M491.4161 167.5043 L498.9251 178.6225 L504.8161 168.168 Z" clip-path="url(#clipPath2)" stroke="none"/>
      <rect x="550.1725" y="213.4907" clip-path="url(#clipPath2)" fill="white" width="87.5938" height="23.6016" stroke="none"/>
      <text x="552.1725" font-size="16" y="231.5766" clip-path="url(#clipPath2)" font-family="sans-serif" stroke="none" xml:space="preserve">hasCatalyst</text>
      <path fill="none" d="M706.238 332.3005 L493.724 481.9356" clip-path="url(#clipPath2)"/>
      <path d="M712.7792 327.6948 C714.051 329.501 713.6178 331.9964 711.8115 333.2682 C710.0052 334.5401 707.5099 334.1068 706.238 332.3005 C704.9662 330.4943 705.3994 327.9989 707.2057 326.7271 C709.012 325.4552 711.5073 325.8885 712.7792 327.6948 Z" clip-path="url(#clipPath2)" stroke="none"/>
      <path d="M484.7299 488.2686 L497.9959 486.2658 L491.0873 476.454 Z" clip-path="url(#clipPath2)" stroke="none"/>
      <rect x="558.2167" y="397.3242" clip-path="url(#clipPath2)" fill="white" width="77.8281" height="23.6016" stroke="none"/>
      <text x="560.2167" font-size="16" y="415.4102" clip-path="url(#clipPath2)" font-family="sans-serif" stroke="none" xml:space="preserve">hasOutput</text>
      <path fill="none" d="M409.2946 320.1456 L253.621 320.1456" clip-path="url(#clipPath2)" stroke="black"/>
      <path fill="black" d="M245.621 320.1456 L257.621 325.1456 L254.621 320.1456 L257.621 315.1456 Z" clip-path="url(#clipPath2)" stroke="none"/>
      <rect x="268.5476" y="308.3448" clip-path="url(#clipPath2)" fill="white" width="117.8125" height="23.6016" stroke="none"/>
    </g>
    <g font-size="16" stroke-linecap="butt" transform="matrix(1,0,0,1,-99,-68)" text-rendering="geometricPrecision" font-family="sans-serif" shape-rendering="geometricPrecision" stroke-miterlimit="1.45">
      <text x="270.5476" xml:space="preserve" y="326.4308" clip-path="url(#clipPath2)" stroke="none">rdfs:subClassOf</text>
      <path fill="none" d="M418.9723 168.1292 L221.4324 293.8604" clip-path="url(#clipPath2)"/>
      <path d="M214.6834 298.1559 L227.4915 295.9306 L222.276 293.3234 L222.1221 287.4945 Z" clip-path="url(#clipPath2)" stroke="none"/>
    </g>
    <g stroke-linecap="butt" transform="matrix(1,0,0,1,-99,-68)" fill="white" text-rendering="geometricPrecision" shape-rendering="geometricPrecision" stroke="white" stroke-miterlimit="1.45">
      <rect x="257.9169" width="117.8125" height="23.6016" y="221.3448" clip-path="url(#clipPath2)" stroke="none"/>
    </g>
    <g font-size="16" stroke-linecap="butt" transform="matrix(1,0,0,1,-99,-68)" text-rendering="geometricPrecision" font-family="sans-serif" shape-rendering="geometricPrecision" stroke-miterlimit="1.45">
      <text x="259.9169" xml:space="preserve" y="239.4308" clip-path="url(#clipPath2)" stroke="none">rdfs:subClassOf</text>
      <path fill="none" d="M421.8422 488.2274 L218.362 346.7286" clip-path="url(#clipPath2)"/>
      <path d="M211.794 342.1612 L218.7914 353.1173 L219.183 347.2995 L224.5007 344.9072 Z" clip-path="url(#clipPath2)" stroke="none"/>
    </g>
    <g stroke-linecap="butt" transform="matrix(1,0,0,1,-99,-68)" fill="white" text-rendering="geometricPrecision" shape-rendering="geometricPrecision" stroke="white" stroke-miterlimit="1.45">
      <rect x="257.9169" width="117.8125" height="23.6016" y="403.397" clip-path="url(#clipPath2)" stroke="none"/>
    </g>
    <g font-size="16" stroke-linecap="butt" transform="matrix(1,0,0,1,-99,-68)" text-rendering="geometricPrecision" font-family="sans-serif" shape-rendering="geometricPrecision" stroke-miterlimit="1.45">
      <text x="259.9169" xml:space="preserve" y="421.483" clip-path="url(#clipPath2)" stroke="none">rdfs:subClassOf</text>
    </g>
    <g stroke-linecap="butt" transform="matrix(1,0,0,1,-99,-68)" fill="navy" text-rendering="geometricPrecision" shape-rendering="geometricPrecision" stroke="navy" stroke-miterlimit="1.45">
      <path fill="none" d="M740.75 281.9614 L740.75 170.9991" clip-path="url(#clipPath2)"/>
      <path d="M740.75 289.9614 C738.5408 289.9614 736.75 288.1706 736.75 285.9614 C736.75 283.7523 738.5408 281.9614 740.75 281.9614 C742.9592 281.9614 744.75 283.7523 744.75 285.9614 C744.75 288.1706 742.9592 289.9614 740.75 289.9614 Z" clip-path="url(#clipPath2)" stroke="none"/>
      <path d="M740.75 159.9991 L734.75 171.9991 L746.75 171.9991 Z" clip-path="url(#clipPath2)" stroke="none"/>
      <rect x="658.2539" y="211.1992" clip-path="url(#clipPath2)" fill="white" width="164.9922" height="23.6016" stroke="none"/>
      <text x="660.2539" font-size="16" y="229.2852" clip-path="url(#clipPath2)" font-family="sans-serif" stroke="none" xml:space="preserve">occursInNeighborhood</text>
      <path fill="none" stroke-dasharray="6,2" d="M783.3497 284.0201 L994.6236 165.091" clip-path="url(#clipPath2)" stroke="green"/>
      <path fill="green" stroke-dasharray="6,2" d="M776.3784 287.9444 C775.2947 286.0193 775.9768 283.5802 777.9019 282.4965 C779.827 281.4129 782.2661 282.095 783.3497 284.0201 C784.4333 285.9452 783.7512 288.3842 781.8262 289.4679 C779.9011 290.5515 777.462 289.8694 776.3784 287.9444 Z" clip-path="url(#clipPath2)" stroke="none"/>
      <path fill="green" stroke-dasharray="6,2" d="M1004.2092 159.6951 L990.809 160.353 L996.6954 170.8101 Z" clip-path="url(#clipPath2)" stroke="none"/>
      <rect x="845.1972" y="209.7403" clip-path="url(#clipPath2)" fill="white" width="98.2891" stroke-dasharray="6,2" height="23.6016" stroke="none"/>
    </g>
    <g font-size="16" stroke-linecap="butt" transform="matrix(1,0,0,1,-99,-68)" fill="green" text-rendering="geometricPrecision" font-family="sans-serif" shape-rendering="geometricPrecision" stroke="green" stroke-miterlimit="1.45">
      <text x="847.1973" xml:space="preserve" y="227.8262" clip-path="url(#clipPath2)" stroke="none">needsEnergy</text>
      <path fill="none" stroke-dasharray="6,2" d="M180.1348 294.1313 L180.1348 95 L1042.75 95 L1042.75 105.0381" clip-path="url(#clipPath2)"/>
      <path stroke-dasharray="6,2" d="M180.1348 302.1313 C177.9257 302.1313 176.1348 300.3404 176.1348 298.1313 C176.1348 295.9221 177.9257 294.1313 180.1348 294.1313 C182.3439 294.1313 184.1348 295.9221 184.1348 298.1313 C184.1348 300.3404 182.3439 302.1313 180.1348 302.1313 Z" clip-path="url(#clipPath2)" stroke="none"/>
      <path stroke-dasharray="6,2" d="M1042.75 116.0381 L1048.75 104.0381 L1036.75 104.0381 Z" clip-path="url(#clipPath2)" stroke="none"/>
    </g>
    <g stroke-linecap="butt" transform="matrix(1,0,0,1,-99,-68)" fill="white" text-rendering="geometricPrecision" shape-rendering="geometricPrecision" stroke-dasharray="6,2" stroke="white" stroke-miterlimit="1.45">
      <rect x="535.1729" width="152.5391" height="23.6016" y="83.1992" clip-path="url(#clipPath2)" stroke="none"/>
    </g>
    <g font-size="16" stroke-linecap="butt" transform="matrix(1,0,0,1,-99,-68)" fill="green" text-rendering="geometricPrecision" font-family="sans-serif" shape-rendering="geometricPrecision" stroke="green" stroke-miterlimit="1.45">
      <text x="537.1729" xml:space="preserve" y="101.2852" clip-path="url(#clipPath2)" stroke="none">hasEmbodiedEnergy</text>
    </g>
    <g stroke-linecap="butt" transform="matrix(1,0,0,1,-99,-68)" fill="navy" text-rendering="geometricPrecision" shape-rendering="geometricPrecision" stroke="navy" stroke-miterlimit="1.45">
      <path fill="none" d="M740.75 333.973 L740.75 477.2875" clip-path="url(#clipPath2)"/>
      <path d="M740.75 325.973 C742.9592 325.973 744.75 327.7638 744.75 329.973 C744.75 332.1821 742.9592 333.973 740.75 333.973 C738.5408 333.973 736.75 332.1821 736.75 329.973 C736.75 327.7638 738.5408 325.973 740.75 325.973 Z" clip-path="url(#clipPath2)" stroke="none"/>
      <path d="M740.75 488.2875 L746.75 476.2875 L734.75 476.2875 Z" clip-path="url(#clipPath2)" stroke="none"/>
      <rect x="663.6172" y="397.3242" clip-path="url(#clipPath2)" fill="white" width="154.2656" height="23.6016" stroke="none"/>
      <text x="665.6172" font-size="16" y="415.4102" clip-path="url(#clipPath2)" font-family="sans-serif" stroke="none" xml:space="preserve">occursAtTimeInterval</text>
      <path fill="none" stroke-dasharray="6,2" d="M1057.7233 163.4566 L1097.1759 230.5316" clip-path="url(#clipPath2)" stroke="green"/>
      <path fill="green" stroke-dasharray="6,2" d="M1053.6674 156.561 C1055.5715 155.441 1058.0231 156.0767 1059.1431 157.9808 C1060.2632 159.885 1059.6274 162.3366 1057.7233 163.4566 C1055.8191 164.5766 1053.3676 163.9409 1052.2476 162.0367 C1051.1274 160.1326 1051.7632 157.681 1053.6674 156.561 Z" clip-path="url(#clipPath2)" stroke="none"/>
      <path fill="green" stroke-dasharray="6,2" d="M1102.7528 240.0131 L1101.8406 226.6277 L1091.4972 232.7116 Z" clip-path="url(#clipPath2)" stroke="none"/>
      <rect x="1018.5106" y="188.1992" clip-path="url(#clipPath2)" fill="white" width="121.4141" stroke-dasharray="6,2" height="23.6016" stroke="none"/>
    </g>
    <g font-size="16" stroke-linecap="butt" transform="matrix(1,0,0,1,-99,-68)" fill="green" text-rendering="geometricPrecision" font-family="sans-serif" shape-rendering="geometricPrecision" stroke="green" stroke-miterlimit="1.45">
      <text x="1020.5106" xml:space="preserve" y="206.2852" clip-path="url(#clipPath2)" stroke="none">hasEnergyValue</text>
      <path fill="none" stroke-dasharray="6,2" d="M1072.3873 285.9484 L951.6162 352.7479" clip-path="url(#clipPath2)"/>
    </g>
    <g stroke-linecap="butt" transform="matrix(1,0,0,1,-99,-68)" fill-opacity="0" fill="rgb(0,0,0)" text-rendering="geometricPrecision" shape-rendering="geometricPrecision" stroke-dasharray="6,2" stroke="rgb(0,0,0)" stroke-opacity="0" stroke-miterlimit="1.45">
      <path d="M1079.3878 282.0764 C1080.457 284.0095 1079.7567 286.4434 1077.8236 287.5126 C1075.8905 288.5819 1073.4565 287.8816 1072.3873 285.9484 C1071.3181 284.0153 1072.0184 281.5814 1073.9515 280.5121 C1075.8846 279.4429 1078.3186 280.1432 1079.3878 282.0764 Z" clip-path="url(#clipPath2)" stroke="none"/>
    </g>
    <g stroke-linecap="butt" transform="matrix(1,0,0,1,-99,-68)" fill="green" text-rendering="geometricPrecision" shape-rendering="geometricPrecision" stroke="green" stroke-miterlimit="1.45">
      <path fill="none" d="M1079.3878 282.0764 C1080.457 284.0095 1079.7567 286.4434 1077.8236 287.5126 C1075.8905 288.5819 1073.4565 287.8816 1072.3873 285.9484 C1071.3181 284.0153 1072.0184 281.5814 1073.9515 280.5121 C1075.8846 279.4429 1078.3186 280.1432 1079.3878 282.0764 Z" clip-path="url(#clipPath2)"/>
      <path fill="white" stroke-dasharray="6,2" d="M938.4902 360.008 L955.3953 357.5143 L949.5872 347.0135 Z" clip-path="url(#clipPath2)" stroke="none"/>
      <path fill="none" d="M938.4902 360.008 L955.3953 357.5143 L949.5872 347.0135 Z" clip-path="url(#clipPath2)"/>
      <rect x="966.9769" y="310.1992" clip-path="url(#clipPath2)" fill="white" width="80.4609" stroke-dasharray="6,2" height="23.6016" stroke="none"/>
      <text x="968.9769" font-size="16" y="328.2852" clip-path="url(#clipPath2)" font-family="sans-serif" stroke="none" xml:space="preserve">asNumeric</text>
      <path fill="none" stroke-dasharray="6,2" d="M1115.6852 287.9711 L1115.6852 380.2511" clip-path="url(#clipPath2)"/>
      <path stroke-dasharray="6,2" d="M1115.6852 279.9711 C1117.8943 279.9711 1119.6852 281.762 1119.6852 283.9711 C1119.6852 286.1803 1117.8943 287.9711 1115.6852 287.9711 C1113.4761 287.9711 1111.6852 286.1803 1111.6852 283.9711 C1111.6852 281.762 1113.4761 279.9711 1115.6852 279.9711 Z" clip-path="url(#clipPath2)" stroke="none"/>
      <path stroke-dasharray="6,2" d="M1115.6852 391.2511 L1121.6852 379.2511 L1109.6852 379.2511 Z" clip-path="url(#clipPath2)" stroke="none"/>
      <rect x="1061.2125" y="325.8242" clip-path="url(#clipPath2)" fill="white" width="108.9453" stroke-dasharray="6,2" height="23.6016" stroke="none"/>
      <text x="1063.2125" font-size="16" y="343.9102" clip-path="url(#clipPath2)" font-family="sans-serif" stroke="none" xml:space="preserve">hasEnergyUnit</text>
      <path fill="none" stroke-dasharray="6,2" d="M1063.0605 436.8767 L961.2458 482.5881" clip-path="url(#clipPath2)"/>
    </g>
    <g stroke-linecap="butt" transform="matrix(1,0,0,1,-99,-68)" fill-opacity="0" fill="rgb(0,0,0)" text-rendering="geometricPrecision" shape-rendering="geometricPrecision" stroke-dasharray="6,2" stroke="rgb(0,0,0)" stroke-opacity="0" stroke-miterlimit="1.45">
      <path d="M1070.3586 433.6 C1071.2635 435.6154 1070.3633 437.9826 1068.3479 438.8875 C1066.3326 439.7923 1063.9653 438.8921 1063.0605 436.8767 C1062.1556 434.8614 1063.0559 432.4941 1065.0713 431.5893 C1067.0865 430.6844 1069.4539 431.5847 1070.3586 433.6 Z" clip-path="url(#clipPath2)" stroke="none"/>
    </g>
    <g stroke-linecap="butt" transform="matrix(1,0,0,1,-99,-68)" fill="green" text-rendering="geometricPrecision" shape-rendering="geometricPrecision" stroke="green" stroke-miterlimit="1.45">
      <path fill="none" d="M1070.3586 433.6 C1071.2635 435.6154 1070.3633 437.9826 1068.3479 438.8875 C1066.3326 439.7923 1063.9653 438.8921 1063.0605 436.8767 C1062.1556 434.8614 1063.0559 432.4941 1065.0713 431.5893 C1067.0865 430.6844 1069.4539 431.5847 1070.3586 433.6 Z" clip-path="url(#clipPath2)"/>
      <path fill="white" stroke-dasharray="6,2" d="M947.5618 488.7318 L964.6157 487.6521 L959.7007 476.7048 Z" clip-path="url(#clipPath2)" stroke="none"/>
      <path fill="none" d="M947.5618 488.7318 L964.6157 487.6521 L959.7007 476.7048 Z" clip-path="url(#clipPath2)"/>
      <rect x="978.255" y="448.6769" clip-path="url(#clipPath2)" fill="white" width="64.4766" stroke-dasharray="6,2" height="23.6016" stroke="none"/>
      <text x="980.255" font-size="16" y="466.7628" clip-path="url(#clipPath2)" font-family="sans-serif" stroke="none" xml:space="preserve">asLiteral</text>
    </g>
  </g>
</svg>
