<svg version="1.1" viewBox="0.0 0.0 844.9475065616798 280.98162729658793" fill="none" stroke="none" stroke-linecap="square" stroke-miterlimit="10" xmlns:xlink="http://www.w3.org/1999/xlink" xmlns="http://www.w3.org/2000/svg"><clipPath id="p.0"><path d="m0 0l844.9475 0l0 280.98163l-844.9475 0l0 -280.98163z" clip-rule="nonzero"/></clipPath><g clip-path="url(#p.0)"><path fill="#000000" fill-opacity="0.0" d="m0 0l844.9475 0l0 280.98163l-844.9475 0z" fill-rule="evenodd"/><path fill="#ffffff" d="m37.65871 52.691673l150.96063 0l0 41.826775l-150.96063 0z" fill-rule="evenodd"/><path stroke="#000000" stroke-width="2.0" stroke-linejoin="round" stroke-linecap="butt" d="m37.65871 52.691673l150.96063 0l0 41.826775l-150.96063 0z" fill-rule="evenodd"/><path fill="#000000" d="m56.404736 78.42417q-0.921875 0.765625 -1.765625 1.09375q-0.828125 0.3125 -1.796875 0.3125q-1.59375 0 -2.453125 -0.78125q-0.859375 -0.78125 -0.859375 -1.984375q0 -0.71875 0.328125 -1.296875q0.328125 -0.59375 0.84375 -0.9375q0.53125 -0.359375 1.1875 -0.546875q0.46875 -0.125 1.453125 -0.25q1.984375 -0.234375 2.921875 -0.5625q0.015625 -0.34375 0.015625 -0.421875q0 -1.0 -0.46875 -1.421875q-0.625 -0.546875 -1.875 -0.546875q-1.15625 0 -1.703125 0.40625q-0.546875 0.40625 -0.8125 1.421875l-1.609375 -0.21875q0.21875 -1.015625 0.71875 -1.640625q0.5 -0.640625 1.453125 -0.984375q0.953125 -0.34375 2.1875 -0.34375q1.25 0 2.015625 0.296875q0.78125 0.28125 1.140625 0.734375q0.375 0.4375 0.515625 1.109375q0.078125 0.421875 0.078125 1.515625l0 2.1875q0 2.28125 0.109375 2.890625q0.109375 0.59375 0.40625 1.15625l-1.703125 0q-0.265625 -0.515625 -0.328125 -1.1875zm-0.140625 -3.671875q-0.890625 0.375 -2.671875 0.625q-1.015625 0.140625 -1.4375 0.328125q-0.421875 0.1875 -0.65625 0.53125q-0.21875 0.34375 -0.21875 0.78125q0 0.65625 0.5 1.09375q0.5 0.4375 1.453125 0.4375q0.9375 0 1.671875 -0.40625q0.75 -0.421875 1.09375 -1.140625q0.265625 -0.5625 0.265625 -1.640625l0 -0.609375zm10.516346 1.3125l1.609375 0.21875q-0.265625 1.65625 -1.359375 2.609375q-1.078125 0.9375 -2.671875 0.9375q-1.9843788 0 -3.1875038 -1.296875q-1.203125 -1.296875 -1.203125 -3.71875q0 -1.578125 0.515625 -2.75q0.515625 -1.171875 1.578125 -1.75q1.0625 -0.59375 2.3125038 -0.59375q1.578125 0 2.578125 0.796875q1.0 0.796875 1.28125 2.265625l-1.59375 0.234375q-0.234375 -0.96875 -0.8125 -1.453125q-0.578125 -0.5 -1.390625 -0.5q-1.2343788 0 -2.0156288 0.890625q-0.78125 0.890625 -0.78125 2.8125q0 1.953125 0.75 2.84375q0.75 0.875 1.9531288 0.875q0.96875 0 1.609375 -0.59375q0.65625 -0.59375 0.828125 -1.828125zm6.59375 2.078125l0.234375 1.453125q-0.6875 0.140625 -1.234375 0.140625q-0.890625 0 -1.390625 -0.28125q-0.484375 -0.28125 -0.6875 -0.734375q-0.203125 -0.46875 -0.203125 -1.9375l0 -5.578125l-1.203125 0l0 -1.265625l1.203125 0l0 -2.390625l1.625 -0.984375l0 3.375l1.65625 0l0 1.265625l-1.65625 0l0 5.671875q0 0.6875 0.078125 0.890625q0.09375 0.203125 0.28125 0.328125q0.203125 0.109375 0.578125 0.109375q0.265625 0 0.71875 -0.0625zm0.94892883 -1.421875l1.625 -0.25q0.125 0.96875 0.75 1.5q0.625 0.515625 1.75 0.515625q1.125 0 1.671875 -0.453125q0.546875 -0.46875 0.546875 -1.09375q0 -0.546875 -0.484375 -0.875q-0.328125 -0.21875 -1.671875 -0.546875q-1.8125 -0.46875 -2.515625 -0.796875q-0.6875 -0.328125 -1.046875 -0.90625q-0.359375 -0.59375 -0.359375 -1.3125q0 -0.640625 0.296875 -1.1875q0.296875 -0.5625 0.8125 -0.921875q0.375 -0.28125 1.03125 -0.46875q0.671875 -0.203125 1.421875 -0.203125q1.140625 0 2.0 0.328125q0.859375 0.328125 1.265625 0.890625q0.421875 0.5625 0.578125 1.5l-1.609375 0.21875q-0.109375 -0.75 -0.640625 -1.171875q-0.515625 -0.421875 -1.46875 -0.421875q-1.140625 0 -1.625 0.375q-0.46875 0.375 -0.46875 0.875q0 0.3125 0.1875 0.578125q0.203125 0.265625 0.640625 0.4375q0.234375 0.09375 1.4375 0.421875q1.75 0.453125 2.4375 0.75q0.6875 0.296875 1.078125 0.859375q0.390625 0.5625 0.390625 1.40625q0 0.828125 -0.484375 1.546875q-0.46875 0.71875 -1.375 1.125q-0.90625 0.390625 -2.046875 0.390625q-1.875 0 -2.875 -0.78125q-0.984375 -0.78125 -1.25 -2.328125zm9.984375 6.59375l0 -13.375l1.484375 0l0 1.25q0.53125 -0.734375 1.1875 -1.09375q0.671875 -0.375 1.625 -0.375q1.234375 0 2.171875 0.640625q0.953125 0.625 1.4375 1.796875q0.484375 1.15625 0.484375 2.546875q0 1.484375 -0.53125 2.671875q-0.53125 1.1875 -1.546875 1.828125q-1.015625 0.625 -2.140625 0.625q-0.8125 0 -1.46875 -0.34375q-0.65625 -0.34375 -1.0625 -0.875l0 4.703125l-1.640625 0zm1.484375 -8.484375q0 1.859375 0.75 2.765625q0.765625 0.890625 1.828125 0.890625q1.09375 0 1.875 -0.921875q0.78125 -0.9375 0.78125 -2.875q0 -1.84375 -0.765625 -2.765625q-0.75 -0.921875 -1.8125 -0.921875q-1.046875 0 -1.859375 0.984375q-0.796875 0.96875 -0.796875 2.84375zm15.516342 1.671875l1.6875 0.203125q-0.40625 1.484375 -1.484375 2.3125q-1.078125 0.8125 -2.765625 0.8125q-2.125 0 -3.375 -1.296875q-1.234375 -1.3125 -1.234375 -3.671875q0 -2.453125 1.25 -3.796875q1.265625 -1.34375 3.265625 -1.34375q1.9375 0 3.15625 1.328125q1.234375 1.3125 1.234375 3.703125q0 0.15625 0 0.4375l-7.21875 0q0.09375 1.59375 0.90625 2.453125q0.8125 0.84375 2.015625 0.84375q0.90625 0 1.546875 -0.46875q0.640625 -0.484375 1.015625 -1.515625zm-5.390625 -2.65625l5.40625 0q-0.109375 -1.21875 -0.625 -1.828125q-0.78125 -0.953125 -2.03125 -0.953125q-1.125 0 -1.90625 0.765625q-0.765625 0.75 -0.84375 2.015625zm15.453842 2.21875l1.609375 0.21875q-0.265625 1.65625 -1.359375 2.609375q-1.078125 0.9375 -2.671875 0.9375q-1.984375 0 -3.1875 -1.296875q-1.203125 -1.296875 -1.203125 -3.71875q0 -1.578125 0.515625 -2.75q0.515625 -1.171875 1.578125 -1.75q1.0625 -0.59375 2.3125 -0.59375q1.578125 0 2.578125 0.796875q1.0 0.796875 1.28125 2.265625l-1.59375 0.234375q-0.234375 -0.96875 -0.8125 -1.453125q-0.578125 -0.5 -1.390625 -0.5q-1.234375 0 -2.015625 0.890625q-0.78125 0.890625 -0.78125 2.8125q0 1.953125 0.75 2.84375q0.75 0.875 1.953125 0.875q0.96875 0 1.609375 -0.59375q0.65625 -0.59375 0.828125 -1.828125zm3.46875 -4.265625l0 -1.859375l1.859375 0l0 1.859375l-1.859375 0zm0 7.8125l0 -1.875l1.859375 0l0 1.875l-1.859375 0zm3.4645538 0l5.125 -13.359375l1.90625 0l5.46875 13.359375l-2.015625 0l-1.546875 -4.046875l-5.59375 0l-1.46875 4.046875l-1.875 0zm3.859375 -5.484375l4.53125 0l-1.40625 -3.703125q-0.625 -1.6875 -0.9375 -2.765625q-0.265625 1.28125 -0.71875 2.546875l-1.46875 3.921875zm16.162323 1.9375l1.609375 0.21875q-0.265625 1.65625 -1.359375 2.609375q-1.078125 0.9375 -2.671875 0.9375q-1.984375 0 -3.1875 -1.296875q-1.203125 -1.296875 -1.203125 -3.71875q0 -1.578125 0.515625 -2.75q0.515625 -1.171875 1.578125 -1.75q1.0625 -0.59375 2.3125 -0.59375q1.578125 0 2.578125 0.796875q1.0 0.796875 1.28125 2.265625l-1.59375 0.234375q-0.234375 -0.96875 -0.8125 -1.453125q-0.578125 -0.5 -1.390625 -0.5q-1.234375 0 -2.015625 0.890625q-0.78125 0.890625 -0.78125 2.8125q0 1.953125 0.75 2.84375q0.75 0.875 1.953125 0.875q0.96875 0 1.609375 -0.59375q0.65625 -0.59375 0.828125 -1.828125zm6.59375 2.078125l0.234375 1.453125q-0.6875 0.140625 -1.234375 0.140625q-0.890625 0 -1.390625 -0.28125q-0.484375 -0.28125 -0.6875 -0.734375q-0.203125 -0.46875 -0.203125 -1.9375l0 -5.578125l-1.203125 0l0 -1.265625l1.203125 0l0 -2.390625l1.625 -0.984375l0 3.375l1.65625 0l0 1.265625l-1.65625 0l0 5.671875q0 0.6875 0.078125 0.890625q0.09375 0.203125 0.28125 0.328125q0.203125 0.109375 0.578125 0.109375q0.265625 0 0.71875 -0.0625zm1.6051788 -10.0l0 -1.890625l1.640625 0l0 1.890625l-1.640625 0zm0 11.46875l0 -9.671875l1.640625 0l0 9.671875l-1.640625 0zm6.832321 0l-3.6875 -9.671875l1.734375 0l2.078125 5.796875q0.328125 0.9375 0.625 1.9375q0.203125 -0.765625 0.609375 -1.828125l2.140625 -5.90625l1.6875 0l-3.65625 9.671875l-1.53125 0zm6.640625 -11.46875l0 -1.890625l1.640625 0l0 1.890625l-1.640625 0zm0 11.46875l0 -9.671875l1.640625 0l0 9.671875l-1.640625 0zm7.722946 -1.46875l0.234375 1.453125q-0.6875 0.140625 -1.234375 0.140625q-0.890625 0 -1.390625 -0.28125q-0.484375 -0.28125 -0.6875 -0.734375q-0.203125 -0.46875 -0.203125 -1.9375l0 -5.578125l-1.203125 0l0 -1.265625l1.203125 0l0 -2.390625l1.625 -0.984375l0 3.375l1.65625 0l0 1.265625l-1.65625 0l0 5.671875q0 0.6875 0.078125 0.890625q0.09375 0.203125 0.28125 0.328125q0.203125 0.109375 0.578125 0.109375q0.265625 0 0.71875 -0.0625zm1.5270386 5.1875l-0.1875 -1.53125q0.546875 0.140625 0.9375 0.140625q0.546875 0 0.875 -0.1875q0.328125 -0.171875 0.546875 -0.5q0.15625 -0.25 0.5 -1.21875q0.046875 -0.140625 0.140625 -0.40625l-3.671875 -9.6875l1.765625 0l2.015625 5.59375q0.390625 1.078125 0.703125 2.25q0.28125 -1.125 0.671875 -2.203125l2.078125 -5.640625l1.640625 0l-3.6875 9.828125q-0.59375 1.609375 -0.921875 2.203125q-0.4375 0.8125 -1.0 1.1875q-0.5625 0.375 -1.34375 0.375q-0.484375 0 -1.0625 -0.203125z" fill-rule="nonzero"/><path fill="#ffffff" d="m682.4907 52.687737l150.96063 0l0 41.826775l-150.96063 0z" fill-rule="evenodd"/><path stroke="#000000" stroke-width="2.0" stroke-linejoin="round" stroke-linecap="butt" d="m682.4907 52.687737l150.96063 0l0 41.826775l-150.96063 0z" fill-rule="evenodd"/><path fill="#000000" d="m693.87213 83.31086l0 -13.375l1.484375 0l0 1.25q0.53125 -0.734375 1.1875 -1.09375q0.671875 -0.375 1.625 -0.375q1.234375 0 2.171875 0.640625q0.953125 0.625 1.4375 1.796875q0.484375 1.15625 0.484375 2.546875q0 1.484375 -0.53125 2.671875q-0.53125 1.1875 -1.546875 1.828125q-1.015625 0.625 -2.140625 0.625q-0.8125 0 -1.46875 -0.34375q-0.65625 -0.34375 -1.0625 -0.875l0 4.703125l-1.640625 0zm1.484375 -8.484375q0 1.859375 0.75 2.765625q0.765625 0.890625 1.828125 0.890625q1.09375 0 1.875 -0.921875q0.78125 -0.9375 0.78125 -2.875q0 -1.84375 -0.765625 -2.765625q-0.75 -0.921875 -1.8125 -0.921875q-1.046875 0 -1.859375 0.984375q-0.796875 0.96875 -0.796875 2.84375zm15.516296 1.671875l1.6875 0.203125q-0.40625 1.484375 -1.484375 2.3125q-1.078125 0.8125 -2.765625 0.8125q-2.125 0 -3.375 -1.296875q-1.234375 -1.3125 -1.234375 -3.671875q0 -2.453125 1.25 -3.796875q1.265625 -1.34375 3.265625 -1.34375q1.9375 0 3.15625 1.328125q1.234375 1.3125 1.234375 3.703125q0 0.15625 0 0.4375l-7.21875 0q0.09375 1.59375 0.90625 2.453125q0.8125 0.84375 2.015625 0.84375q0.90625 0 1.546875 -0.46875q0.640625 -0.484375 1.015625 -1.515625zm-5.390625 -2.65625l5.40625 0q-0.109375 -1.21875 -0.625 -1.828125q-0.78125 -0.953125 -2.03125 -0.953125q-1.125 0 -1.90625 0.765625q-0.765625 0.75 -0.84375 2.015625zm9.125732 5.765625l0 -9.671875l1.46875 0l0 1.46875q0.5625 -1.03125 1.03125 -1.359375q0.484375 -0.328125 1.0625 -0.328125q0.828125 0 1.6875 0.53125l-0.5625 1.515625q-0.609375 -0.359375 -1.203125 -0.359375q-0.546875 0 -0.96875 0.328125q-0.421875 0.328125 -0.609375 0.890625q-0.28125 0.875 -0.28125 1.921875l0 5.0625l-1.625 0zm5.5720825 -2.890625l1.625 -0.25q0.125 0.96875 0.75 1.5q0.625 0.515625 1.75 0.515625q1.125 0 1.671875 -0.453125q0.546875 -0.46875 0.546875 -1.09375q0 -0.546875 -0.484375 -0.875q-0.328125 -0.21875 -1.671875 -0.546875q-1.8125 -0.46875 -2.515625 -0.796875q-0.6875 -0.328125 -1.046875 -0.90625q-0.359375 -0.59375 -0.359375 -1.3125q0 -0.640625 0.296875 -1.1875q0.296875 -0.5625 0.8125 -0.921875q0.375 -0.28125 1.03125 -0.46875q0.671875 -0.203125 1.421875 -0.203125q1.140625 0 2.0 0.328125q0.859375 0.328125 1.265625 0.890625q0.421875 0.5625 0.578125 1.5l-1.609375 0.21875q-0.109375 -0.75 -0.640625 -1.171875q-0.515625 -0.421875 -1.46875 -0.421875q-1.140625 0 -1.625 0.375q-0.46875 0.375 -0.46875 0.875q0 0.3125 0.1875 0.578125q0.203125 0.265625 0.640625 0.4375q0.234375 0.09375 1.4375 0.421875q1.75 0.453125 2.4375 0.75q0.6875 0.296875 1.078125 0.859375q0.390625 0.5625 0.390625 1.40625q0 0.828125 -0.484375 1.546875q-0.46875 0.71875 -1.375 1.125q-0.90625 0.390625 -2.046875 0.390625q-1.875 0 -2.875 -0.78125q-0.984375 -0.78125 -1.25 -2.328125zm9.375 -1.953125q0 -2.6875 1.484375 -3.96875q1.25 -1.078125 3.046875 -1.078125q2.0 0 3.265625 1.3125q1.265625 1.296875 1.265625 3.609375q0 1.859375 -0.5625 2.9375q-0.5625 1.0625 -1.640625 1.65625q-1.0625 0.59375 -2.328125 0.59375q-2.03125 0 -3.28125 -1.296875q-1.25 -1.3125 -1.25 -3.765625zm1.6875 0q0 1.859375 0.796875 2.796875q0.8125 0.921875 2.046875 0.921875q1.21875 0 2.03125 -0.921875q0.8125 -0.9375 0.8125 -2.84375q0 -1.796875 -0.8125 -2.71875q-0.8125 -0.921875 -2.03125 -0.921875q-1.234375 0 -2.046875 0.921875q-0.796875 0.90625 -0.796875 2.765625zm9.297546 4.84375l0 -9.671875l1.46875 0l0 1.375q1.0625 -1.59375 3.078125 -1.59375q0.875 0 1.609375 0.3125q0.734375 0.3125 1.09375 0.828125q0.375 0.5 0.515625 1.203125q0.09375 0.453125 0.09375 1.59375l0 5.953125l-1.640625 0l0 -5.890625q0 -1.0 -0.203125 -1.484375q-0.1875 -0.5 -0.671875 -0.796875q-0.484375 -0.296875 -1.140625 -0.296875q-1.046875 0 -1.8125 0.671875q-0.75 0.65625 -0.75 2.515625l0 5.28125l-1.640625 0zm9.719482 -2.890625l1.625 -0.25q0.125 0.96875 0.75 1.5q0.625 0.515625 1.75 0.515625q1.125 0 1.671875 -0.453125q0.546875 -0.46875 0.546875 -1.09375q0 -0.546875 -0.484375 -0.875q-0.328125 -0.21875 -1.671875 -0.546875q-1.8125 -0.46875 -2.515625 -0.796875q-0.6875 -0.328125 -1.046875 -0.90625q-0.359375 -0.59375 -0.359375 -1.3125q0 -0.640625 0.296875 -1.1875q0.296875 -0.5625 0.8125 -0.921875q0.375 -0.28125 1.03125 -0.46875q0.671875 -0.203125 1.421875 -0.203125q1.140625 0 2.0 0.328125q0.859375 0.328125 1.265625 0.890625q0.421875 0.5625 0.578125 1.5l-1.609375 0.21875q-0.109375 -0.75 -0.640625 -1.171875q-0.515625 -0.421875 -1.46875 -0.421875q-1.140625 0 -1.625 0.375q-0.46875 0.375 -0.46875 0.875q0 0.3125 0.1875 0.578125q0.203125 0.265625 0.640625 0.4375q0.234375 0.09375 1.4375 0.421875q1.75 0.453125 2.4375 0.75q0.6875 0.296875 1.078125 0.859375q0.390625 0.5625 0.390625 1.40625q0 0.828125 -0.484375 1.546875q-0.46875 0.71875 -1.375 1.125q-0.90625 0.390625 -2.046875 0.390625q-1.875 0 -2.875 -0.78125q-0.984375 -0.78125 -1.25 -2.328125zm10.4375 -4.921875l0 -1.859375l1.859375 0l0 1.859375l-1.859375 0zm0 7.8125l0 -1.875l1.859375 0l0 1.875l-1.859375 0zm4.9332886 0l0 -13.359375l5.046875 0q1.328125 0 2.03125 0.125q0.96875 0.171875 1.640625 0.640625q0.671875 0.453125 1.078125 1.28125q0.40625 0.828125 0.40625 1.828125q0 1.703125 -1.09375 2.890625q-1.078125 1.171875 -3.921875 1.171875l-3.421875 0l0 5.421875l-1.765625 0zm1.765625 -7.0l3.453125 0q1.71875 0 2.4375 -0.640625q0.71875 -0.640625 0.71875 -1.796875q0 -0.84375 -0.421875 -1.4375q-0.421875 -0.59375 -1.125 -0.78125q-0.4375 -0.125 -1.640625 -0.125l-3.421875 0l0 4.78125zm17.099854 3.890625l1.6875 0.203125q-0.40625 1.484375 -1.484375 2.3125q-1.078125 0.8125 -2.765625 0.8125q-2.125 0 -3.375 -1.296875q-1.234375 -1.3125 -1.234375 -3.671875q0 -2.453125 1.25 -3.796875q1.265625 -1.34375 3.265625 -1.34375q1.9375 0 3.15625 1.328125q1.234375 1.3125 1.234375 3.703125q0 0.15625 0 0.4375l-7.21875 0q0.09375 1.59375 0.90625 2.453125q0.8125 0.84375 2.015625 0.84375q0.90625 0 1.546875 -0.46875q0.640625 -0.484375 1.015625 -1.515625zm-5.390625 -2.65625l5.40625 0q-0.109375 -1.21875 -0.625 -1.828125q-0.78125 -0.953125 -2.03125 -0.953125q-1.125 0 -1.90625 0.765625q-0.765625 0.75 -0.84375 2.015625zm9.125732 5.765625l0 -9.671875l1.46875 0l0 1.46875q0.5625 -1.03125 1.03125 -1.359375q0.484375 -0.328125 1.0625 -0.328125q0.828125 0 1.6875 0.53125l-0.5625 1.515625q-0.609375 -0.359375 -1.203125 -0.359375q-0.546875 0 -0.96875 0.328125q-0.421875 0.328125 -0.609375 0.890625q-0.28125 0.875 -0.28125 1.921875l0 5.0625l-1.625 0zm5.5720215 -2.890625l1.625 -0.25q0.125 0.96875 0.75 1.5q0.625 0.515625 1.75 0.515625q1.125 0 1.671875 -0.453125q0.546875 -0.46875 0.546875 -1.09375q0 -0.546875 -0.484375 -0.875q-0.328125 -0.21875 -1.671875 -0.546875q-1.8125 -0.46875 -2.515625 -0.796875q-0.6875 -0.328125 -1.046875 -0.90625q-0.359375 -0.59375 -0.359375 -1.3125q0 -0.640625 0.296875 -1.1875q0.296875 -0.5625 0.8125 -0.921875q0.375 -0.28125 1.03125 -0.46875q0.671875 -0.203125 1.421875 -0.203125q1.140625 0 2.0 0.328125q0.859375 0.328125 1.265625 0.890625q0.421875 0.5625 0.578125 1.5l-1.609375 0.21875q-0.109375 -0.75 -0.640625 -1.171875q-0.515625 -0.421875 -1.46875 -0.421875q-1.140625 0 -1.625 0.375q-0.46875 0.375 -0.46875 0.875q0 0.3125 0.1875 0.578125q0.203125 0.265625 0.640625 0.4375q0.234375 0.09375 1.4375 0.421875q1.75 0.453125 2.4375 0.75q0.6875 0.296875 1.078125 0.859375q0.390625 0.5625 0.390625 1.40625q0 0.828125 -0.484375 1.546875q-0.46875 0.71875 -1.375 1.125q-0.90625 0.390625 -2.046875 0.390625q-1.875 0 -2.875 -0.78125q-0.984375 -0.78125 -1.25 -2.328125zm9.375 -1.953125q0 -2.6875 1.484375 -3.96875q1.25 -1.078125 3.046875 -1.078125q2.0 0 3.265625 1.3125q1.265625 1.296875 1.265625 3.609375q0 1.859375 -0.5625 2.9375q-0.5625 1.0625 -1.640625 1.65625q-1.0625 0.59375 -2.328125 0.59375q-2.03125 0 -3.28125 -1.296875q-1.25 -1.3125 -1.25 -3.765625zm1.6875 0q0 1.859375 0.796875 2.796875q0.8125 0.921875 2.046875 0.921875q1.21875 0 2.03125 -0.921875q0.8125 -0.9375 0.8125 -2.84375q0 -1.796875 -0.8125 -2.71875q-0.8125 -0.921875 -2.03125 -0.921875q-1.234375 0 -2.046875 0.921875q-0.796875 0.90625 -0.796875 2.765625zm9.297607 4.84375l0 -9.671875l1.46875 0l0 1.375q1.0625 -1.59375 3.078125 -1.59375q0.875 0 1.609375 0.3125q0.734375 0.3125 1.09375 0.828125q0.375 0.5 0.515625 1.203125q0.09375 0.453125 0.09375 1.59375l0 5.953125l-1.640625 0l0 -5.890625q0 -1.0 -0.203125 -1.484375q-0.1875 -0.5 -0.671875 -0.796875q-0.484375 -0.296875 -1.140625 -0.296875q-1.046875 0 -1.8125 0.671875q-0.75 0.65625 -0.75 2.515625l0 5.28125l-1.640625 0z" fill-rule="nonzero"/><path fill="#ffffff" d="m340.53543 232.28346l204.03152 0l0 41.826767l-204.03152 0z" fill-rule="evenodd"/><path stroke="#000000" stroke-width="2.0" stroke-linejoin="round" stroke-linecap="butt" d="m340.53543 232.28346l204.03152 0l0 41.826767l-204.03152 0z" fill-rule="evenodd"/><path fill="#000000" d="m393.16388 252.70346q0 -3.328125 1.78125 -5.203125q1.78125 -1.890625 4.609375 -1.890625q1.84375 0 3.328125 0.890625q1.484375 0.875 2.265625 2.46875q0.78125 1.578125 0.78125 3.578125q0 2.03125 -0.828125 3.640625q-0.8125 1.59375 -2.3125 2.421875q-1.5 0.828125 -3.25 0.828125q-1.875 0 -3.359375 -0.90625q-1.484375 -0.921875 -2.25 -2.5q-0.765625 -1.578125 -0.765625 -3.328125zm1.8125 0.015625q0 2.421875 1.296875 3.8125q1.296875 1.390625 3.265625 1.390625q2.0 0 3.28125 -1.40625q1.28125 -1.40625 1.28125 -3.984375q0 -1.625 -0.546875 -2.84375q-0.546875 -1.21875 -1.609375 -1.875q-1.0625 -0.671875 -2.375 -0.671875q-1.890625 0 -3.25 1.296875q-1.34375 1.28125 -1.34375 4.28125zm14.527069 6.484375l-1.515625 0l0 -13.359375l1.640625 0l0 4.765625q1.046875 -1.296875 2.65625 -1.296875q0.890625 0 1.6875 0.359375q0.796875 0.359375 1.3125 1.015625q0.515625 0.640625 0.796875 1.5625q0.296875 0.921875 0.296875 1.96875q0 2.484375 -1.234375 3.84375q-1.21875 1.359375 -2.953125 1.359375q-1.703125 0 -2.6875 -1.4375l0 1.21875zm-0.015625 -4.90625q0 1.734375 0.484375 2.515625q0.765625 1.265625 2.09375 1.265625q1.078125 0 1.859375 -0.9375q0.78125 -0.9375 0.78125 -2.78125q0 -1.890625 -0.75 -2.796875q-0.75 -0.90625 -1.828125 -0.90625q-1.0625 0 -1.859375 0.9375q-0.78125 0.9375 -0.78125 2.703125zm8.235077 2.015625l1.625 -0.25q0.125 0.96875 0.75 1.5q0.625 0.515625 1.75 0.515625q1.125 0 1.671875 -0.453125q0.546875 -0.46875 0.546875 -1.09375q0 -0.546875 -0.484375 -0.875q-0.328125 -0.21875 -1.671875 -0.546875q-1.8125 -0.46875 -2.515625 -0.796875q-0.6875 -0.328125 -1.046875 -0.90625q-0.359375 -0.59375 -0.359375 -1.3125q0 -0.640625 0.296875 -1.1875q0.296875 -0.5625 0.8125 -0.921875q0.375 -0.28125 1.03125 -0.46875q0.671875 -0.203125 1.421875 -0.203125q1.140625 0 2.0 0.328125q0.859375 0.328125 1.265625 0.890625q0.421875 0.5625 0.578125 1.5l-1.609375 0.21875q-0.109375 -0.75 -0.640625 -1.171875q-0.515625 -0.421875 -1.46875 -0.421875q-1.140625 0 -1.625 0.375q-0.46875 0.375 -0.46875 0.875q0 0.3125 0.1875 0.578125q0.203125 0.265625 0.640625 0.4375q0.234375 0.09375 1.4375 0.421875q1.75 0.453125 2.4375 0.75q0.6875 0.296875 1.078125 0.859375q0.390625 0.5625 0.390625 1.40625q0 0.828125 -0.484375 1.546875q-0.46875 0.71875 -1.375 1.125q-0.90625 0.390625 -2.046875 0.390625q-1.875 0 -2.875 -0.78125q-0.984375 -0.78125 -1.25 -2.328125zm16.609375 -0.21875l1.6875 0.203125q-0.40625 1.484375 -1.484375 2.3125q-1.078125 0.8125 -2.765625 0.8125q-2.125 0 -3.375 -1.296875q-1.234375 -1.3125 -1.234375 -3.671875q0 -2.453125 1.25 -3.796875q1.265625 -1.34375 3.265625 -1.34375q1.9375 0 3.15625 1.328125q1.234375 1.3125 1.234375 3.703125q0 0.15625 0 0.4375l-7.21875 0q0.09375 1.59375 0.90625 2.453125q0.8125 0.84375 2.015625 0.84375q0.90625 0 1.546875 -0.46875q0.640625 -0.484375 1.015625 -1.515625zm-5.390625 -2.65625l5.40625 0q-0.109375 -1.21875 -0.625 -1.828125q-0.78125 -0.953125 -2.03125 -0.953125q-1.125 0 -1.90625 0.765625q-0.765625 0.75 -0.84375 2.015625zm9.125732 5.765625l0 -9.671875l1.46875 0l0 1.46875q0.5625 -1.03125 1.03125 -1.359375q0.484375 -0.328125 1.0625 -0.328125q0.828125 0 1.6875 0.53125l-0.5625 1.515625q-0.609375 -0.359375 -1.203125 -0.359375q-0.546875 0 -0.96875 0.328125q-0.421875 0.328125 -0.609375 0.890625q-0.28125 0.875 -0.28125 1.921875l0 5.0625l-1.625 0zm8.915802 0l-3.6875 -9.671875l1.734375 0l2.078125 5.796875q0.328125 0.9375 0.625 1.9375q0.203125 -0.765625 0.609375 -1.828125l2.140625 -5.90625l1.6875 0l-3.65625 9.671875l-1.53125 0zm12.953125 -1.1875q-0.921875 0.765625 -1.765625 1.09375q-0.828125 0.3125 -1.796875 0.3125q-1.59375 0 -2.453125 -0.78125q-0.859375 -0.78125 -0.859375 -1.984375q0 -0.71875 0.328125 -1.296875q0.328125 -0.59375 0.84375 -0.9375q0.53125 -0.359375 1.1875 -0.546875q0.46875 -0.125 1.453125 -0.25q1.984375 -0.234375 2.921875 -0.5625q0.015625 -0.34375 0.015625 -0.421875q0 -1.0 -0.46875 -1.421875q-0.625 -0.546875 -1.875 -0.546875q-1.15625 0 -1.703125 0.40625q-0.546875 0.40625 -0.8125 1.421875l-1.609375 -0.21875q0.21875 -1.015625 0.71875 -1.640625q0.5 -0.640625 1.453125 -0.984375q0.953125 -0.34375 2.1875 -0.34375q1.25 0 2.015625 0.296875q0.78125 0.28125 1.140625 0.734375q0.375 0.4375 0.515625 1.109375q0.078125 0.421875 0.078125 1.515625l0 2.1875q0 2.28125 0.109375 2.890625q0.109375 0.59375 0.40625 1.15625l-1.703125 0q-0.265625 -0.515625 -0.328125 -1.1875zm-0.140625 -3.671875q-0.890625 0.375 -2.671875 0.625q-1.015625 0.140625 -1.4375 0.328125q-0.421875 0.1875 -0.65625 0.53125q-0.21875 0.34375 -0.21875 0.78125q0 0.65625 0.5 1.09375q0.5 0.4375 1.453125 0.4375q0.9375 0 1.671875 -0.40625q0.75 -0.421875 1.09375 -1.140625q0.265625 -0.5625 0.265625 -1.640625l0 -0.609375zm7.781952 3.390625l0.234375 1.453125q-0.6875 0.140625 -1.234375 0.140625q-0.890625 0 -1.390625 -0.28125q-0.484375 -0.28125 -0.6875 -0.734375q-0.203125 -0.46875 -0.203125 -1.9375l0 -5.578125l-1.203125 0l0 -1.265625l1.203125 0l0 -2.390625l1.625 -0.984375l0 3.375l1.65625 0l0 1.265625l-1.65625 0l0 5.671875q0 0.6875 0.078125 0.890625q0.09375 0.203125 0.28125 0.328125q0.203125 0.109375 0.578125 0.109375q0.265625 0 0.71875 -0.0625zm1.6051941 -10.0l0 -1.890625l1.640625 0l0 1.890625l-1.640625 0zm0 11.46875l0 -9.671875l1.640625 0l0 9.671875l-1.640625 0zm3.535431 -4.84375q0 -2.6875 1.484375 -3.96875q1.25 -1.078125 3.046875 -1.078125q2.0 0 3.265625 1.3125q1.265625 1.296875 1.265625 3.609375q0 1.859375 -0.5625 2.9375q-0.5625 1.0625 -1.640625 1.65625q-1.0625 0.59375 -2.328125 0.59375q-2.03125 0 -3.28125 -1.296875q-1.25 -1.3125 -1.25 -3.765625zm1.6875 0q0 1.859375 0.796875 2.796875q0.8125 0.921875 2.046875 0.921875q1.21875 0 2.03125 -0.921875q0.8125 -0.9375 0.8125 -2.84375q0 -1.796875 -0.8125 -2.71875q-0.8125 -0.921875 -2.03125 -0.921875q-1.234375 0 -2.046875 0.921875q-0.796875 0.90625 -0.796875 2.765625zm9.297607 4.84375l0 -9.671875l1.46875 0l0 1.375q1.0625 -1.59375 3.078125 -1.59375q0.875 0 1.609375 0.3125q0.734375 0.3125 1.09375 0.828125q0.375 0.5 0.515625 1.203125q0.09375 0.453125 0.09375 1.59375l0 5.953125l-1.640625 0l0 -5.890625q0 -1.0 -0.203125 -1.484375q-0.1875 -0.5 -0.671875 -0.796875q-0.484375 -0.296875 -1.140625 -0.296875q-1.046875 0 -1.8125 0.671875q-0.75 0.65625 -0.75 2.515625l0 5.28125l-1.640625 0z" fill-rule="nonzero"/><path fill="#ffffff" d="m340.53543 52.687664l204.03152 0l0 41.82677l-204.03152 0z" fill-rule="evenodd"/><path stroke="#000000" stroke-width="2.0" stroke-linejoin="round" stroke-linecap="butt" d="m340.53543 52.687664l204.03152 0l0 41.82677l-204.03152 0z" fill-rule="evenodd"/><path fill="#000000" d="m391.12106 79.607666l0 -13.359375l9.65625 0l0 1.578125l-7.875 0l0 4.09375l7.375 0l0 1.5625l-7.375 0l0 4.546875l8.1875 0l0 1.578125l-9.96875 0zm12.209198 0l0 -9.671875l1.46875 0l0 1.375q1.0625 -1.59375 3.078125 -1.59375q0.875 0 1.609375 0.3125q0.734375 0.3125 1.09375 0.828125q0.375 0.5 0.515625 1.203125q0.09375 0.453125 0.09375 1.59375l0 5.953125l-1.640625 0l0 -5.890625q0 -1.0 -0.203125 -1.484375q-0.1875 -0.5 -0.671875 -0.796875q-0.484375 -0.296875 -1.140625 -0.296875q-1.046875 0 -1.8125 0.671875q-0.75 0.65625 -0.75 2.515625l0 5.28125l-1.640625 0zm10.063232 0.796875l1.59375 0.234375q0.109375 0.75 0.5625 1.078125q0.609375 0.453125 1.671875 0.453125q1.140625 0 1.75 -0.453125q0.625 -0.453125 0.84375 -1.265625q0.125 -0.5 0.109375 -2.109375q-1.0625 1.265625 -2.671875 1.265625q-2.0 0 -3.09375 -1.4375q-1.09375 -1.4375 -1.09375 -3.453125q0 -1.390625 0.5 -2.5625q0.515625 -1.171875 1.453125 -1.796875q0.953125 -0.640625 2.25 -0.640625q1.703125 0 2.8125 1.375l0 -1.15625l1.515625 0l0 8.359375q0 2.265625 -0.46875 3.203125q-0.453125 0.9375 -1.453125 1.484375q-0.984375 0.546875 -2.453125 0.546875q-1.71875 0 -2.796875 -0.78125q-1.0625 -0.765625 -1.03125 -2.34375zm1.359375 -5.8125q0 1.90625 0.75 2.78125q0.765625 0.875 1.90625 0.875q1.125 0 1.890625 -0.859375q0.765625 -0.875 0.765625 -2.734375q0 -1.78125 -0.796875 -2.671875q-0.78125 -0.90625 -1.890625 -0.90625q-1.09375 0 -1.859375 0.890625q-0.765625 0.875 -0.765625 2.625zm15.641327 3.828125q-0.921875 0.765625 -1.765625 1.09375q-0.828125 0.3125 -1.796875 0.3125q-1.59375 0 -2.453125 -0.78125q-0.859375 -0.78125 -0.859375 -1.984375q0 -0.71875 0.328125 -1.296875q0.328125 -0.59375 0.84375 -0.9375q0.53125 -0.359375 1.1875 -0.546875q0.46875 -0.125 1.453125 -0.25q1.984375 -0.234375 2.921875 -0.5625q0.015625 -0.34375 0.015625 -0.421875q0 -1.0 -0.46875 -1.421875q-0.625 -0.546875 -1.875 -0.546875q-1.15625 0 -1.703125 0.40625q-0.546875 0.40625 -0.8125 1.421875l-1.609375 -0.21875q0.21875 -1.015625 0.71875 -1.640625q0.5 -0.640625 1.453125 -0.984375q0.953125 -0.34375 2.1875 -0.34375q1.25 0 2.015625 0.296875q0.78125 0.28125 1.140625 0.734375q0.375 0.4375 0.515625 1.109375q0.078125 0.421875 0.078125 1.515625l0 2.1875q0 2.28125 0.109375 2.890625q0.109375 0.59375 0.40625 1.15625l-1.703125 0q-0.265625 -0.515625 -0.328125 -1.1875zm-0.140625 -3.671875q-0.890625 0.375 -2.671875 0.625q-1.015625 0.140625 -1.4375 0.328125q-0.421875 0.1875 -0.65625 0.53125q-0.21875 0.34375 -0.21875 0.78125q0 0.65625 0.5 1.09375q0.5 0.4375 1.453125 0.4375q0.9375 0 1.671875 -0.40625q0.75 -0.421875 1.09375 -1.140625q0.265625 -0.5625 0.265625 -1.640625l0 -0.609375zm3.8913574 5.65625l1.59375 0.234375q0.109375 0.75 0.5625 1.078125q0.609375 0.453125 1.671875 0.453125q1.140625 0 1.75 -0.453125q0.625 -0.453125 0.84375 -1.265625q0.125 -0.5 0.109375 -2.109375q-1.0625 1.265625 -2.671875 1.265625q-2.0 0 -3.09375 -1.4375q-1.09375 -1.4375 -1.09375 -3.453125q0 -1.390625 0.5 -2.5625q0.515625 -1.171875 1.453125 -1.796875q0.953125 -0.640625 2.25 -0.640625q1.703125 0 2.8125 1.375l0 -1.15625l1.515625 0l0 8.359375q0 2.265625 -0.46875 3.203125q-0.453125 0.9375 -1.453125 1.484375q-0.984375 0.546875 -2.453125 0.546875q-1.71875 0 -2.796875 -0.78125q-1.0625 -0.765625 -1.03125 -2.34375zm1.359375 -5.8125q0 1.90625 0.75 2.78125q0.765625 0.875 1.90625 0.875q1.125 0 1.890625 -0.859375q0.765625 -0.875 0.765625 -2.734375q0 -1.78125 -0.796875 -2.671875q-0.78125 -0.90625 -1.890625 -0.90625q-1.09375 0 -1.859375 0.890625q-0.765625 0.875 -0.765625 2.625zm15.953827 1.90625l1.6875 0.203125q-0.40625 1.484375 -1.484375 2.3125q-1.078125 0.8125 -2.765625 0.8125q-2.125 0 -3.375 -1.296875q-1.234375 -1.3125 -1.234375 -3.671875q0 -2.453125 1.25 -3.796875q1.265625 -1.34375 3.265625 -1.34375q1.9375 0 3.15625 1.328125q1.234375 1.3125 1.234375 3.703125q0 0.15625 0 0.4375l-7.21875 0q0.09375 1.59375 0.90625 2.453125q0.8125 0.84375 2.015625 0.84375q0.90625 0 1.546875 -0.46875q0.640625 -0.484375 1.015625 -1.515625zm-5.390625 -2.65625l5.40625 0q-0.109375 -1.21875 -0.625 -1.828125q-0.78125 -0.953125 -2.03125 -0.953125q-1.125 0 -1.90625 0.765625q-0.765625 0.75 -0.84375 2.015625zm9.141357 5.765625l0 -9.671875l1.46875 0l0 1.359375q0.453125 -0.71875 1.203125 -1.140625q0.765625 -0.4375 1.71875 -0.4375q1.078125 0 1.765625 0.453125q0.6875 0.4375 0.96875 1.234375q1.15625 -1.6875 2.984375 -1.6875q1.453125 0 2.21875 0.796875q0.78125 0.796875 0.78125 2.453125l0 6.640625l-1.640625 0l0 -6.09375q0 -0.984375 -0.15625 -1.40625q-0.15625 -0.4375 -0.578125 -0.703125q-0.421875 -0.265625 -0.984375 -0.265625q-1.015625 0 -1.6875 0.6875q-0.671875 0.671875 -0.671875 2.15625l0 5.625l-1.640625 0l0 -6.28125q0 -1.09375 -0.40625 -1.640625q-0.40625 -0.546875 -1.3125 -0.546875q-0.6875 0 -1.28125 0.359375q-0.59375 0.359375 -0.859375 1.0625q-0.25 0.703125 -0.25 2.03125l0 5.015625l-1.640625 0zm22.165802 -3.109375l1.6875 0.203125q-0.40625 1.484375 -1.484375 2.3125q-1.078125 0.8125 -2.765625 0.8125q-2.125 0 -3.375 -1.296875q-1.234375 -1.3125 -1.234375 -3.671875q0 -2.453125 1.25 -3.796875q1.265625 -1.34375 3.265625 -1.34375q1.9375 0 3.15625 1.328125q1.234375 1.3125 1.234375 3.703125q0 0.15625 0 0.4375l-7.21875 0q0.09375 1.59375 0.90625 2.453125q0.8125 0.84375 2.015625 0.84375q0.90625 0 1.546875 -0.46875q0.640625 -0.484375 1.015625 -1.515625zm-5.390625 -2.65625l5.40625 0q-0.109375 -1.21875 -0.625 -1.828125q-0.78125 -0.953125 -2.03125 -0.953125q-1.125 0 -1.90625 0.765625q-0.765625 0.75 -0.84375 2.015625zm9.141327 5.765625l0 -9.671875l1.46875 0l0 1.375q1.0625 -1.59375 3.078125 -1.59375q0.875 0 1.609375 0.3125q0.734375 0.3125 1.09375 0.828125q0.375 0.5 0.515625 1.203125q0.09375 0.453125 0.09375 1.59375l0 5.953125l-1.640625 0l0 -5.890625q0 -1.0 -0.203125 -1.484375q-0.1875 -0.5 -0.671875 -0.796875q-0.484375 -0.296875 -1.140625 -0.296875q-1.046875 0 -1.8125 0.671875q-0.75 0.65625 -0.75 2.515625l0 5.28125l-1.640625 0zm13.953857 -1.46875l0.234375 1.453125q-0.6875 0.140625 -1.234375 0.140625q-0.890625 0 -1.390625 -0.28125q-0.484375 -0.28125 -0.6875 -0.734375q-0.203125 -0.46875 -0.203125 -1.9375l0 -5.578125l-1.203125 0l0 -1.265625l1.203125 0l0 -2.390625l1.625 -0.984375l0 3.375l1.65625 0l0 1.265625l-1.65625 0l0 5.671875q0 0.6875 0.078125 0.890625q0.09375 0.203125 0.28125 0.328125q0.203125 0.109375 0.578125 0.109375q0.265625 0 0.71875 -0.0625z" fill-rule="nonzero"/><path fill="#ffffff" d="m7.7532 232.28485l210.77165 0l0 41.826782l-210.77165 0z" fill-rule="evenodd"/><path stroke="#000000" stroke-width="2.0" stroke-linejoin="round" stroke-linecap="butt" d="m7.7532 232.28485l210.77165 0l0 41.826782l-210.77165 0z" fill-rule="evenodd"/><path fill="#000000" d="m72.0625 259.20483l0 -13.35936l5.046875 0q1.328125 0 2.03125 0.125q0.96875 0.171875 1.640625 0.640625q0.671875 0.453125 1.078125 1.28125q0.40625 0.828125 0.40625 1.828125q0 1.703125 -1.09375 2.890625q-1.078125 1.171875 -3.921875 1.171875l-3.421875 0l0 5.4218597l-1.765625 0zm1.765625 -6.9999847l3.453125 0q1.71875 0 2.4375 -0.640625q0.71875 -0.640625 0.71875 -1.796875q0 -0.84375 -0.421875 -1.4375q-0.421875 -0.59375 -1.125 -0.78125q-0.4375 -0.125 -1.640625 -0.125l-3.421875 0l0 4.78125zm10.459198 6.9999847l0 -9.67186l1.46875 0l0 1.46875q0.5625 -1.03125 1.03125 -1.359375q0.484375 -0.328125 1.0625 -0.328125q0.828125 0 1.6875 0.53125l-0.5625 1.515625q-0.609375 -0.359375 -1.203125 -0.359375q-0.546875 0 -0.96875 0.328125q-0.421875 0.328125 -0.609375 0.890625q-0.28125 0.875 -0.28125 1.921875l0 5.0624847l-1.625 0zm5.618927 -4.8437347q0 -2.6875 1.484375 -3.96875q1.25 -1.078125 3.046875 -1.078125q2.0 0 3.265625 1.3125q1.265625 1.296875 1.265625 3.609375q0 1.8593597 -0.5625 2.9374847q-0.5625 1.0625 -1.640625 1.65625q-1.0625 0.59375 -2.328125 0.59375q-2.03125 0 -3.28125 -1.296875q-1.25 -1.3125 -1.25 -3.7656097zm1.6875 0q0 1.8593597 0.796875 2.7968597q0.8125 0.921875 2.046875 0.921875q1.21875 0 2.03125 -0.921875q0.8125 -0.9375 0.8125 -2.8437347q0 -1.796875 -0.8125 -2.71875q-0.8125 -0.921875 -2.03125 -0.921875q-1.234375 0 -2.046875 0.921875q-0.796875 0.90625 -0.796875 2.765625zm9.297592 4.8437347l0 -9.67186l1.46875 0l0 1.359375q0.453125 -0.71875 1.203125 -1.140625q0.765625 -0.4375 1.71875 -0.4375q1.078125 0 1.765625 0.453125q0.6875 0.4375 0.96875 1.234375q1.15625 -1.6875 2.984375 -1.6875q1.453125 0 2.21875 0.796875q0.78125 0.796875 0.78125 2.453125l0 6.6406097l-1.640625 0l0 -6.0937347q0 -0.984375 -0.15625 -1.40625q-0.15625 -0.4375 -0.578125 -0.703125q-0.421875 -0.265625 -0.984375 -0.265625q-1.015625 0 -1.6875 0.6875q-0.671875 0.671875 -0.671875 2.15625l0 5.6249847l-1.640625 0l0 -6.2812347q0 -1.09375 -0.40625 -1.640625q-0.40625 -0.546875 -1.3125 -0.546875q-0.6875 0 -1.28125 0.359375q-0.59375 0.359375 -0.859375 1.0625q-0.25 0.703125 -0.25 2.03125l0 5.0156097l-1.640625 0zm15.540802 3.703125l0 -13.374985l1.484375 0l0 1.25q0.53125 -0.734375 1.1875 -1.09375q0.671875 -0.375 1.625 -0.375q1.234375 0 2.171875 0.640625q0.953125 0.625 1.4375 1.796875q0.484375 1.15625 0.484375 2.546875q0 1.484375 -0.53125 2.6718597q-0.53125 1.1875 -1.546875 1.828125q-1.015625 0.625 -2.140625 0.625q-0.8125 0 -1.46875 -0.34375q-0.65625 -0.34375 -1.0625 -0.875l0 4.703125l-1.640625 0zm1.484375 -8.48436q0 1.8593597 0.75 2.7656097q0.765625 0.890625 1.828125 0.890625q1.09375 0 1.875 -0.921875q0.78125 -0.9375 0.78125 -2.8749847q0 -1.84375 -0.765625 -2.765625q-0.75 -0.921875 -1.8125 -0.921875q-1.046875 0 -1.859375 0.984375q-0.796875 0.96875 -0.796875 2.84375zm12.469467 3.3124847l0.234375 1.453125q-0.6875 0.140625 -1.234375 0.140625q-0.890625 0 -1.390625 -0.28125q-0.484375 -0.28125 -0.6875 -0.734375q-0.203125 -0.46875 -0.203125 -1.9375l0 -5.5781097l-1.203125 0l0 -1.265625l1.203125 0l0 -2.390625l1.625 -0.984375l0 3.375l1.65625 0l0 1.265625l-1.65625 0l0 5.6718597q0 0.6875 0.078125 0.890625q0.09375 0.203125 0.28125 0.328125q0.203125 0.109375 0.578125 0.109375q0.265625 0 0.71875 -0.0625zm1.6051788 -9.999985l0 -1.890625l1.640625 0l0 1.890625l-1.640625 0zm0 11.468735l0 -9.67186l1.640625 0l0 9.67186l-1.640625 0zm4.144821 0l0 -9.67186l1.46875 0l0 1.375q1.0625 -1.59375 3.078125 -1.59375q0.875 0 1.609375 0.3125q0.734375 0.3125 1.09375 0.828125q0.375 0.5 0.515625 1.203125q0.09375 0.453125 0.09375 1.59375l0 5.9531097l-1.640625 0l0 -5.8906097q0 -1.0 -0.203125 -1.484375q-0.1875 -0.5 -0.671875 -0.796875q-0.484375 -0.296875 -1.140625 -0.296875q-1.046875 0 -1.8125 0.671875q-0.75 0.65625 -0.75 2.515625l0 5.2812347l-1.640625 0zm10.063232 0.796875l1.59375 0.234375q0.109375 0.75 0.5625 1.078125q0.609375 0.453125 1.671875 0.453125q1.140625 0 1.75 -0.453125q0.625 -0.453125 0.84375 -1.265625q0.125 -0.5 0.109375 -2.109375q-1.0625 1.265625 -2.671875 1.265625q-2.0 0 -3.09375 -1.4375q-1.09375 -1.4375 -1.09375 -3.4531097q0 -1.390625 0.5 -2.5625q0.515625 -1.171875 1.453125 -1.796875q0.953125 -0.640625 2.25 -0.640625q1.703125 0 2.8125 1.375l0 -1.15625l1.515625 0l0 8.35936q0 2.265625 -0.46875 3.203125q-0.453125 0.9375 -1.453125 1.484375q-0.984375 0.546875 -2.453125 0.546875q-1.71875 0 -2.796875 -0.78125q-1.0625 -0.765625 -1.03125 -2.34375zm1.359375 -5.8124847q0 1.9062347 0.75 2.7812347q0.765625 0.875 1.90625 0.875q1.125 0 1.890625 -0.859375q0.765625 -0.875 0.765625 -2.7343597q0 -1.78125 -0.796875 -2.671875q-0.78125 -0.90625 -1.890625 -0.90625q-1.09375 0 -1.859375 0.890625q-0.765625 0.875 -0.765625 2.625z" fill-rule="nonzero"/><path fill="#000000" fill-opacity="0.0" d="m367.0813 232.80191l-204.03151 -138.70866" fill-rule="evenodd"/><path stroke="#000000" stroke-width="2.0" stroke-linejoin="round" stroke-linecap="butt" d="m357.15744 226.05528l-194.10765 -131.96204" fill-rule="evenodd"/><path fill="#000000" stroke="#000000" stroke-width="2.0" stroke-linecap="butt" d="m355.30014 228.78722l9.36319 2.3708801l-5.6486206 -7.834732z" fill-rule="evenodd"/><path fill="#000000" fill-opacity="0.0" d="m224.75212 91.340454l124.755905 86.708664l-18.960632 27.307083l-124.755905 -86.70866z" fill-rule="evenodd"/><path fill="#000000" d="m252.64821 129.52664l1.4029846 -1.3082886l1.3343658 0.92741394l-1.390152 1.317215l-1.3471985 -0.93634033zm-8.513077 8.06897l7.171402 -6.7941895l1.3600311 0.94525146l-7.1842346 6.7852783l-1.3471985 -0.93634033zm3.454834 2.4011993l7.171402 -6.7941895l1.23172 0.8560791l-1.2575531 1.181015q1.3658142 -0.26852417 2.3171082 -0.15917969q0.9641113 0.118255615 1.6826172 0.61764526q0.97509766 0.6777191 1.1485901 1.578476q0.19525146 0.89682007 -0.41964722 1.7824097q-0.30300903 0.43637085 -1.1549072 1.2523499l-4.3554535 4.1084595l-1.3471985 -0.93634033l4.545456 -4.299881q0.66192627 -0.6245575 0.911438 -0.98391724q0.27627563 -0.39787292 0.17614746 -0.82899475q-0.100128174 -0.43112183 -0.6133423 -0.78782654q-1.0520935 -0.7312317 -2.3772736 -0.54862976q-1.3251953 0.18260193 -2.9755554 1.7375793l-3.3363647 3.1612701l-1.3471832 -0.9363251zm16.012573 6.828781l1.2619934 1.0864258q-1.5469666 1.1320953 -2.9915466 1.2126923q-1.435669 0.06774902 -2.6417236 -0.77049255q-1.2958679 -0.9006653 -1.5249329 -2.2967072q-0.20730591 -1.3999481 0.83535767 -2.901596q0.90005493 -1.2962799 2.286621 -2.1973572q1.3993835 -0.89216614 2.8033142 -0.88682556q1.4167786 0.014251709 2.661316 0.87924194q1.2702332 0.88282776 1.5153198 2.1187744q0.2579651 1.2448578 -0.5708313 2.4384766l-1.3967285 -0.83758545q0.51293945 -0.7661438 0.37078857 -1.4928741q-0.12930298 -0.7178192 -0.82214355 -1.1993713q-0.821167 -0.5707092 -1.7806396 -0.4764557q-0.9466858 0.10317993 -2.0238342 0.9148407q-1.0643616 0.8205719 -1.7416382 1.79599q-0.70401 1.013916 -0.6114197 1.8394165q0.10153198 0.8126526 0.7558594 1.2674408q0.6543579 0.4547882 1.60495 0.3733673q0.9505615 -0.0814209 2.0099182 -0.8674011zm0.05166626 4.3363037l9.916077 -9.377258l1.3471985 0.93634033l-9.903229 9.386169l-1.3600464 -0.94525146zm9.931519 4.7714844q-2.5470276 0.62731934 -4.0481873 -0.41603088q-0.9109802 -0.6331482 -1.1101379 -1.5517273q-0.19915771 -0.9185791 0.33554077 -1.6886444q0.3475647 -0.5005493 1.4379272 -1.5503998l4.143738 -3.9131012l1.3600159 0.94525146l-4.5939026 4.3423157q-0.5778198 0.53079224 -0.82733154 0.89016724q-0.31192017 0.4492035 -0.22070312 0.89315796q0.11294556 0.44003296 0.63897705 0.8056488q0.5773926 0.4012909 1.3034058 0.5063019q0.7349243 0.092178345 1.4495544 -0.11517334q0.727478 -0.19844055 1.4296875 -0.66181946q0.43911743 -0.30368042 1.3790894 -1.1916809l3.0979004 -2.9274292l1.3600159 0.94525146l-7.1842346 6.7852783l-1.2445679 -0.8650055l1.2932129 -1.2323608zm8.259766 6.1593933q-2.081543 0.5322113 -3.3517456 -0.35061646q-1.1290894 -0.78474426 -1.3068237 -2.145111q-0.16491699 -1.3514557 0.9401245 -2.9429321q1.007019 -1.4503021 2.4259949 -2.2337036q1.4407349 -0.787323 2.735962 -0.7624054q1.3169556 0.021011353 2.215088 0.64523315q1.4754944 1.0255127 1.2433167 2.9762726l3.8656921 -3.6496735l1.3471985 0.93634033l-9.903229 9.386169l-1.2573853 -0.87390137l1.0458069 -0.985672zm-2.2019348 -4.7461853q-0.570343 0.82141113 -0.7421875 1.4250488q-0.16293335 0.59080505 -7.9345703E-4 1.179184q0.18386841 0.58447266 0.74838257 0.97683716q0.9109802 0.6331482 2.327423 0.20951843q1.8830261 -0.5750427 3.1841125 -2.448883q0.6505432 -0.93692017 0.51553345 -1.8109131q-0.11325073 -0.8779144 -0.87023926 -1.4040375q-0.48757935 -0.3388672 -1.0368042 -0.39712524q-0.5492554 -0.058258057 -1.3123779 0.19151306q-0.7413635 0.24586487 -1.563324 0.8543396q-0.82196045 0.6084595 -1.2497253 1.2245178zm12.266022 9.457596l1.2324219 1.0468445q-0.9595337 0.77923584 -2.6008606 0.951416q-1.6285095 0.18110657 -3.0527039 -0.8087311q-0.87246704 -0.6063843 -1.3314514 -1.5343018q-0.446167 -0.91900635 -0.29638672 -1.956604q0.15872192 -1.0504303 0.84490967 -2.038681q0.90896606 -1.3091125 2.358612 -2.1092682q1.4496155 -0.80015564 2.809021 -0.73065186q1.3811035 0.065597534 2.497345 0.8414154q1.4241943 0.98983765 1.6560974 2.463974q0.24081421 1.4612885 -0.81967163 2.9886017q-0.4099121 0.5903778 -0.94033813 1.1351013l-5.850647 -4.0663757q-0.19891357 0.20426941 -0.32366943 0.3839569q-0.7752991 1.1165924 -0.6720276 2.0636902q0.103271484 0.9470825 0.8474426 1.4642944q0.6928406 0.48153687 1.671936 0.49604797q1.000824 0.010574341 1.9699707 -0.59072876zm-2.553711 -4.705261l4.4521484 3.0943756q0.15542603 -0.19644165 0.21780396 -0.2862854q0.70401 -1.013916 0.565094 -1.909668q-0.13000488 -0.9085846 -0.9255066 -1.4614716q-0.87246704 -0.6063843 -2.0098267 -0.50253296q-1.1156006 0.09991455 -2.2997131 1.0655823zm5.3948364 6.6418457l1.4006653 0.8593292q-0.4010315 0.5775604 -0.5155029 1.1259308q-0.105529785 0.535553 0.19094849 1.1221924q0.30932617 0.59555054 0.9508667 1.0414276q0.8981018 0.6242218 1.5967102 0.57696533q0.6985779 -0.04725647 1.0283203 -0.52212524q0.24951172 -0.359375 0.19396973 -0.85466003q-0.046661377 -0.50813293 -0.80358887 -1.7192383q-0.756958 -1.2111206 -0.9272766 -1.5959015q-0.28649902 -0.6558075 -0.25793457 -1.2448578q0.03744507 -0.60188293 0.41174316 -1.1409302q0.6505432 -0.93692017 1.8581238 -1.0870972q1.2293091 -0.15409851 2.5765076 0.78222656q1.5011597 1.0433502 1.7897339 2.2714539q0.30145264 1.23703 -0.44430542 2.393219l-1.3839111 -0.82865906q0.4605713 -0.7454834 0.27993774 -1.4989624q-0.18066406 -0.75349426 -1.0659485 -1.3687897q-0.6928406 -0.48155212 -1.3222961 -0.4242859q-0.60769653 0.053329468 -0.8661194 0.4255371q-0.25845337 0.37219238 -0.120910645 0.8864136q0.09725952 0.35302734 0.74871826 1.4147034q1.0890808 1.7464142 1.2194824 2.4078827q0.20483398 1.0747681 -0.4100647 1.9603424q-0.40994263 0.59039307 -1.1701965 0.91825867q-0.7513733 0.3150177 -1.736145 0.14433289q-0.9758606 -0.18351746 -1.9894714 -0.8879852q-1.3728333 -0.95417786 -1.8628235 -2.3032074q-0.5027771 -1.3579559 0.6307678 -2.8535156z" fill-rule="nonzero"/><path fill="#000000" fill-opacity="0.0" d="m682.4907 73.60112l-137.92126 0" fill-rule="evenodd"/><path stroke="#000000" stroke-width="2.0" stroke-linejoin="round" stroke-linecap="butt" d="m682.4907 73.60112l-125.921265 0" fill-rule="evenodd"/><path fill="#000000" stroke="#000000" stroke-width="2.0" stroke-linecap="butt" d="m556.56946 70.29765l-9.076172 3.3034668l9.076172 3.3034668z" fill-rule="evenodd"/><path fill="#000000" fill-opacity="0.0" d="m340.53543 73.60105l-151.90552 0" fill-rule="evenodd"/><path stroke="#000000" stroke-width="2.0" stroke-linejoin="round" stroke-linecap="butt" d="m340.53543 73.60105l-139.9055 0" fill-rule="evenodd"/><path fill="#000000" stroke="#000000" stroke-width="2.0" stroke-linecap="butt" d="m200.62991 70.297585l-9.076187 3.3034668l9.076187 3.3034668z" fill-rule="evenodd"/><path fill="#000000" fill-opacity="0.0" d="m210.66145 219.97113l124.66142 0l0 33.228348l-124.66142 0z" fill-rule="evenodd"/><path fill="#000000" d="m234.43091 250.59425l2.796875 -13.375l1.515625 0l-0.28125 1.34375q0.84375 -0.875 1.515625 -1.21875q0.671875 -0.34375 1.421875 -0.34375q1.375 0 2.28125 1.015625q0.921875 1.0 0.921875 2.875q0 1.515625 -0.5 2.765625q-0.5 1.234375 -1.234375 2.0q-0.71875 0.75 -1.46875 1.109375q-0.75 0.34375 -1.53125 0.34375q-1.75 0 -2.703125 -1.765625l-1.09375 5.25l-1.640625 0zm3.25 -7.65625q0 1.078125 0.15625 1.5q0.234375 0.59375 0.75 0.96875q0.515625 0.359375 1.203125 0.359375q1.421875 0 2.296875 -1.59375q0.875 -1.609375 0.875 -3.28125q0 -1.21875 -0.59375 -1.890625q-0.578125 -0.671875 -1.453125 -0.671875q-0.625 0 -1.171875 0.34375q-0.53125 0.328125 -1.0 0.984375q-0.453125 0.65625 -0.765625 1.609375q-0.296875 0.953125 -0.296875 1.671875zm7.938217 3.953125l2.015625 -9.671875l1.453125 0l-0.40625 1.96875q0.75 -1.109375 1.453125 -1.640625q0.71875 -0.546875 1.46875 -0.546875q0.5 0 1.21875 0.359375l-0.671875 1.53125q-0.4375 -0.3125 -0.9375 -0.3125q-0.875 0 -1.78125 0.96875q-0.90625 0.953125 -1.4375 3.46875l-0.8125 3.875l-1.5625 0zm6.493927 -3.671875q0 -2.828125 1.671875 -4.6875q1.375 -1.53125 3.6093903 -1.53125q1.75 0 2.8125 1.09375q1.078125 1.09375 1.078125 2.953125q0 1.65625 -0.671875 3.09375q-0.671875 1.4375 -1.921875 2.203125q-1.25 0.765625 -2.625 0.765625q-1.1250153 0 -2.0468903 -0.484375q-0.921875 -0.484375 -1.421875 -1.359375q-0.484375 -0.890625 -0.484375 -2.046875zm1.65625 -0.15625q0 1.359375 0.65625 2.0625q0.65625 0.703125 1.6562653 0.703125q0.53125 0 1.046875 -0.203125q0.53125 -0.21875 0.96875 -0.65625q0.453125 -0.4375 0.765625 -1.0q0.3125 -0.5625 0.5 -1.203125q0.28125 -0.90625 0.28125 -1.734375q0 -1.3125 -0.65625 -2.03125q-0.65625 -0.734375 -1.65625 -0.734375q-0.78125 0 -1.4218903 0.375q-0.625 0.375 -1.140625 1.09375q-0.515625 0.703125 -0.765625 1.640625q-0.234375 0.9375 -0.234375 1.6875zm14.953842 2.421875q-1.40625 1.625 -2.953125 1.625q-1.375 0 -2.296875 -1.015625q-0.90625 -1.015625 -0.90625 -2.953125q0 -1.765625 0.71875 -3.21875q0.734375 -1.46875 1.8125 -2.1875q1.09375 -0.734375 2.1875 -0.734375q1.796875 0 2.71875 1.734375l1.09375 -5.203125l1.640625 0l-2.78125 13.359375l-1.53125 0l0.296875 -1.40625zm-4.515625 -2.640625q0 1.0 0.203125 1.59375q0.203125 0.578125 0.671875 0.96875q0.484375 0.375 1.171875 0.375q1.109375 0 2.03125 -1.15625q1.21875 -1.546875 1.21875 -3.828125q0 -1.140625 -0.609375 -1.78125q-0.59375 -0.65625 -1.515625 -0.65625q-0.59375 0 -1.078125 0.265625q-0.484375 0.265625 -0.96875 0.90625q-0.46875 0.625 -0.796875 1.59375q-0.328125 0.96875 -0.328125 1.71875zm14.969482 2.296875q-1.734375 1.96875 -3.5625 1.96875q-1.109375 0 -1.796875 -0.640625q-0.6875 -0.640625 -0.6875 -1.578125q0 -0.609375 0.296875 -2.09375l1.171875 -5.578125l1.65625 0l-1.296875 6.1875q-0.171875 0.765625 -0.171875 1.203125q0 0.546875 0.328125 0.859375q0.34375 0.296875 0.984375 0.296875q0.703125 0 1.359375 -0.328125q0.65625 -0.34375 1.125 -0.921875q0.484375 -0.578125 0.796875 -1.359375q0.1875 -0.5 0.453125 -1.765625l0.875 -4.171875l1.65625 0l-2.03125 9.671875l-1.515625 0l0.359375 -1.75zm10.453827 -1.78125l1.65625 0.171875q-0.625 1.8125 -1.765625 2.703125q-1.140625 0.875 -2.609375 0.875q-1.578125 0 -2.5625 -1.015625q-0.96875 -1.03125 -0.96875 -2.859375q0 -1.578125 0.625 -3.109375q0.640625 -1.53125 1.796875 -2.328125q1.171875 -0.796875 2.6875 -0.796875q1.546875 0 2.453125 0.875q0.921875 0.875 0.921875 2.328125l-1.625 0.109375q-0.015625 -0.921875 -0.546875 -1.4375q-0.515625 -0.515625 -1.359375 -0.515625q-1.0 0 -1.734375 0.625q-0.71875 0.625 -1.140625 1.90625q-0.40625 1.28125 -0.40625 2.46875q0 1.234375 0.546875 1.859375q0.546875 0.609375 1.34375 0.609375q0.796875 0 1.53125 -0.609375q0.734375 -0.609375 1.15625 -1.859375zm9.75 0.25l1.609375 0.15625q-0.34375 1.1875 -1.59375 2.265625q-1.234375 1.078125 -2.96875 1.078125q-1.0625 0 -1.96875 -0.5q-0.890625 -0.5 -1.359375 -1.4375q-0.46875 -0.953125 -0.46875 -2.15625q0 -1.59375 0.734375 -3.078125q0.734375 -1.484375 1.890625 -2.203125q1.171875 -0.734375 2.53125 -0.734375q1.734375 0 2.765625 1.078125q1.03125 1.0625 1.03125 2.921875q0 0.71875 -0.125 1.46875l-7.125 0q-0.046875 0.28125 -0.046875 0.5q0 1.359375 0.625 2.078125q0.625 0.71875 1.53125 0.71875q0.84375 0 1.65625 -0.546875q0.828125 -0.5625 1.28125 -1.609375zm-4.78125 -2.40625l5.421875 0q0.015625 -0.25 0.015625 -0.359375q0 -1.234375 -0.625 -1.890625q-0.625 -0.671875 -1.59375 -0.671875q-1.0625 0 -1.9375 0.734375q-0.859375 0.71875 -1.28125 2.1875zm8.219482 2.375l1.640625 -0.09375q0 0.703125 0.21875 1.21875q0.21875 0.5 0.796875 0.8125q0.59375 0.3125 1.375 0.3125q1.09375 0 1.640625 -0.4375q0.546875 -0.4375 0.546875 -1.015625q0 -0.4375 -0.328125 -0.8125q-0.328125 -0.390625 -1.640625 -0.953125q-1.3125 -0.5625 -1.671875 -0.78125q-0.609375 -0.375 -0.921875 -0.875q-0.3125 -0.515625 -0.3125 -1.171875q0 -1.140625 0.90625 -1.953125q0.921875 -0.828125 2.5625 -0.828125q1.828125 0 2.765625 0.84375q0.953125 0.84375 1.0 2.21875l-1.609375 0.109375q-0.046875 -0.875 -0.625 -1.390625q-0.578125 -0.515625 -1.65625 -0.515625q-0.84375 0 -1.328125 0.40625q-0.46875 0.390625 -0.46875 0.84375q0 0.453125 0.40625 0.796875q0.28125 0.234375 1.421875 0.734375q1.890625 0.8125 2.375 1.28125q0.78125 0.765625 0.78125 1.84375q0 0.71875 -0.4375 1.421875q-0.4375 0.6875 -1.34375 1.109375q-0.90625 0.40625 -2.140625 0.40625q-1.671875 0 -2.84375 -0.828125q-1.1875 -0.828125 -1.109375 -2.703125z" fill-rule="nonzero"/><path fill="#000000" d="m224.40176 263.29736q0 -3.578125 2.0625 -5.78125q2.0625 -2.2031097 5.0 -2.2031097q2.5 0 4.0625 1.6249847q1.578125 1.625 1.578125 4.359375q0 1.953125 -0.78125 3.609375q-0.59375 1.25 -1.5 2.15625q-0.90625 0.90625 -1.9375 1.40625q-1.359375 0.65625 -2.890625 0.65625q-1.609375 0 -2.921875 -0.765625q-1.3125 -0.765625 -2.0 -2.140625q-0.671875 -1.375 -0.671875 -2.921875zm1.765625 0.09375q0 1.171875 0.484375 2.15625q0.484375 0.984375 1.453125 1.546875q0.96875 0.546875 2.03125 0.546875q1.03125 0 1.953125 -0.484375q0.9375 -0.484375 1.65625 -1.359375q0.734375 -0.875 1.15625 -2.140625q0.4375 -1.265625 0.4375 -2.5q0 -2.0 -1.125 -3.171875q-1.109375 -1.1875 -2.75 -1.1875q-2.09375 0 -3.703125 1.796875q-1.59375 1.78125 -1.59375 4.796875zm11.667679 5.5l2.78125 -13.35936l1.65625 0l-1.0 4.7812347q0.78125 -0.71875 1.421875 -1.015625q0.640625 -0.296875 1.328125 -0.296875q1.359375 0 2.265625 1.015625q0.90625 1.0 0.90625 2.9375q0 1.28125 -0.375 2.359375q-0.359375 1.0625 -0.890625 1.78125q-0.53125 0.71875 -1.109375 1.15625q-0.578125 0.4375 -1.1875 0.640625q-0.59375 0.21875 -1.140625 0.21875q-0.96875 0 -1.703125 -0.5q-0.71875 -0.515625 -1.125 -1.546875l-0.390625 1.828125l-1.4375 0zm2.4375 -3.96875l-0.015625 0.3125q0 1.234375 0.59375 1.890625q0.59375 0.640625 1.484375 0.640625q0.859375 0 1.578125 -0.609375q0.734375 -0.609375 1.1875 -1.890625q0.46875 -1.28125 0.46875 -2.375q0 -1.21875 -0.59375 -1.890625q-0.578125 -0.671875 -1.4375 -0.671875q-0.90625 0 -1.65625 0.6875q-0.734375 0.6875 -1.234375 2.125q-0.375 1.0625 -0.375 1.78125zm8.094467 0.65625l1.640625 -0.09375q0 0.703125 0.21875 1.21875q0.21875 0.5 0.796875 0.8125q0.59375 0.3125 1.375 0.3125q1.09375 0 1.640625 -0.4375q0.546875 -0.4375 0.546875 -1.015625q0 -0.4375 -0.328125 -0.8125q-0.328125 -0.390625 -1.640625 -0.953125q-1.3125 -0.5625 -1.671875 -0.78125q-0.609375 -0.375 -0.921875 -0.875q-0.3125 -0.515625 -0.3125 -1.171875q0 -1.140625 0.90625 -1.953125q0.921875 -0.828125 2.5625 -0.828125q1.828125 0 2.765625 0.84375q0.953125 0.84375 1.0 2.21875l-1.609375 0.109375q-0.046875 -0.875 -0.625 -1.390625q-0.578125 -0.515625 -1.65625 -0.515625q-0.84375 0 -1.328125 0.40625q-0.46875 0.390625 -0.46875 0.84375q0 0.453125 0.40625 0.796875q0.28125 0.234375 1.421875 0.734375q1.890625 0.8125 2.375 1.28125q0.78125 0.765625 0.78125 1.84375q0 0.71875 -0.4375 1.421875q-0.4375 0.6875 -1.34375 1.109375q-0.90625 0.40625 -2.140625 0.40625q-1.671875 0 -2.84375 -0.828125q-1.1875 -0.828125 -1.109375 -2.703125zm16.265625 0.03125l1.609375 0.15625q-0.34375 1.1875 -1.59375 2.265625q-1.234375 1.078125 -2.96875 1.078125q-1.0625 0 -1.96875 -0.5q-0.890625 -0.5 -1.359375 -1.4375q-0.46875 -0.953125 -0.46875 -2.15625q0 -1.59375 0.734375 -3.078125q0.734375 -1.484375 1.890625 -2.203125q1.171875 -0.734375 2.53125 -0.734375q1.734375 0 2.765625 1.078125q1.03125 1.0625 1.03125 2.921875q0 0.71875 -0.125 1.46875l-7.125 0q-0.046875 0.28125 -0.046875 0.5q0 1.359375 0.625 2.078125q0.625 0.71875 1.53125 0.71875q0.84375 0 1.65625 -0.546875q0.828125 -0.5625 1.28125 -1.609375zm-4.78125 -2.40625l5.421875 0q0.015625 -0.25 0.015625 -0.359375q0 -1.234375 -0.625 -1.890625q-0.625 -0.671875 -1.59375 -0.671875q-1.0625 0 -1.9375 0.734375q-0.859375 0.71875 -1.28125 2.1875zm8.063202 5.6875l2.015625 -9.671875l1.453125 0l-0.40625 1.96875q0.75 -1.109375 1.453125 -1.640625q0.71875 -0.546875 1.46875 -0.546875q0.5 0 1.21875 0.359375l-0.671875 1.53125q-0.4375 -0.3125 -0.9375 -0.3125q-0.875 0 -1.78125 0.96875q-0.90625 0.953125 -1.4375 3.46875l-0.8125 3.875l-1.5625 0zm8.650177 0l-1.59375 -9.671875l1.609375 0l0.828125 5.328125q0.140625 0.875 0.34375 2.84375q0.46875 -1.015625 1.203125 -2.359375l3.234375 -5.8125l1.75 0l-5.546875 9.671875l-1.828125 0zm13.40625 -1.203125q-0.859375 0.734375 -1.65625 1.078125q-0.78125 0.34375 -1.6875 0.34375q-1.34375 0 -2.171875 -0.78125q-0.8125 -0.796875 -0.8125 -2.03125q0 -0.796875 0.375 -1.421875q0.375 -0.625 0.984375 -1.0q0.609375 -0.390625 1.484375 -0.546875q0.5625 -0.109375 2.109375 -0.171875q1.5625 -0.0625 2.234375 -0.328125q0.1875 -0.671875 0.1875 -1.125q0 -0.578125 -0.421875 -0.90625q-0.5625 -0.453125 -1.671875 -0.453125q-1.03125 0 -1.703125 0.46875q-0.65625 0.453125 -0.953125 1.296875l-1.671875 -0.140625q0.515625 -1.4375 1.609375 -2.203125q1.109375 -0.765625 2.796875 -0.765625q1.796875 0 2.84375 0.859375q0.796875 0.625 0.796875 1.65625q0 0.765625 -0.21875 1.796875l-0.53125 2.40625q-0.265625 1.140625 -0.265625 1.859375q0 0.453125 0.203125 1.3125l-1.671875 0q-0.125 -0.46875 -0.1875 -1.203125zm0.609375 -3.703125q-0.34375 0.140625 -0.75 0.21875q-0.390625 0.0625 -1.3125 0.15625q-1.4375 0.125 -2.03125 0.328125q-0.59375 0.1875 -0.90625 0.625q-0.296875 0.421875 -0.296875 0.9375q0 0.6875 0.484375 1.140625q0.484375 0.4375 1.359375 0.4375q0.828125 0 1.578125 -0.421875q0.75 -0.4375 1.1875 -1.203125q0.4375 -0.78125 0.6875 -2.21875zm7.0944824 3.5625l-0.265625 1.359375q-0.59375 0.140625 -1.15625 0.140625q-0.984375 0 -1.5625 -0.46875q-0.4375 -0.375 -0.4375 -1.0q0 -0.3125 0.234375 -1.46875l1.171875 -5.625l-1.296875 0l0.265625 -1.265625l1.296875 0l0.5 -2.375l1.890625 -1.1406097l-0.734375 3.5156097l1.625 0l-0.28125 1.265625l-1.609375 0l-1.125 5.359375q-0.203125 1.015625 -0.203125 1.21875q0 0.28125 0.15625 0.4375q0.171875 0.15625 0.5625 0.15625q0.546875 0 0.96875 -0.109375zm3.6676636 -10.140625l0.40625 -1.8749847l1.625 0l-0.390625 1.8749847l-1.640625 0zm-2.390625 11.484375l2.015625 -9.671875l1.65625 0l-2.03125 9.671875l-1.640625 0zm4.4885864 -3.671875q0 -2.828125 1.671875 -4.6875q1.375 -1.53125 3.609375 -1.53125q1.75 0 2.8125 1.09375q1.078125 1.09375 1.078125 2.953125q0 1.65625 -0.671875 3.09375q-0.671875 1.4375 -1.921875 2.203125q-1.25 0.765625 -2.625 0.765625q-1.125 0 -2.046875 -0.484375q-0.921875 -0.484375 -1.421875 -1.359375q-0.484375 -0.890625 -0.484375 -2.046875zm1.65625 -0.15625q0 1.359375 0.65625 2.0625q0.65625 0.703125 1.65625 0.703125q0.53125 0 1.046875 -0.203125q0.53125 -0.21875 0.96875 -0.65625q0.453125 -0.4375 0.765625 -1.0q0.3125 -0.5625 0.5 -1.203125q0.28125 -0.90625 0.28125 -1.734375q0 -1.3125 -0.65625 -2.03125q-0.65625 -0.734375 -1.65625 -0.734375q-0.78125 0 -1.421875 0.375q-0.625 0.375 -1.140625 1.09375q-0.515625 0.703125 -0.765625 1.640625q-0.234375 0.9375 -0.234375 1.6875zm8.438202 3.828125l2.015625 -9.671875l1.5 0l-0.359375 1.6875q0.96875 -1.0 1.8125 -1.453125q0.859375 -0.453125 1.734375 -0.453125q1.1875 0 1.84375 0.640625q0.671875 0.625 0.671875 1.703125q0 0.53125 -0.234375 1.6875l-1.234375 5.859375l-1.640625 0l1.28125 -6.125q0.1875 -0.890625 0.1875 -1.328125q0 -0.484375 -0.328125 -0.78125q-0.328125 -0.296875 -0.953125 -0.296875q-1.28125 0 -2.265625 0.90625q-0.984375 0.90625 -1.453125 3.125l-0.9375 4.5l-1.640625 0z" fill-rule="nonzero"/><path fill="#000000" fill-opacity="0.0" d="m218.52486 253.19824l122.01573 0" fill-rule="evenodd"/><path stroke="#000000" stroke-width="2.0" stroke-linejoin="round" stroke-linecap="butt" d="m218.52486 253.19824l110.01573 0" fill-rule="evenodd"/><path fill="#000000" stroke="#000000" stroke-width="2.0" stroke-linecap="butt" d="m328.5406 256.5017l9.076202 -3.3034668l-9.076202 -3.3034668z" fill-rule="evenodd"/><path fill="#000000" fill-opacity="0.0" d="m209.12839 40.466793l124.66144 -0.03149414l0 33.228344l-124.66144 0.03149414z" fill-rule="evenodd"/><path fill="#000000" d="m237.60986 55.89522l0.40625 -1.875103l1.625 -4.119873E-4l-0.390625 1.8750992l-1.640625 4.15802E-4zm-2.390625 11.484982l2.015625 -9.672386l1.65625 -4.196167E-4l-2.03125 9.672386l-1.640625 4.196167E-4zm4.207321 -0.0010681152l2.015625 -9.672382l1.5 -3.7765503E-4l-0.359375 1.6875916q0.96875 -1.000248 1.8125 -1.4535866q0.859375 -0.45333862 1.734375 -0.45355988q1.1875 -3.0136108E-4 1.84375 0.6401558q0.671875 0.62483215 0.671875 1.7029572q0 0.53125 -0.234375 1.687561l-1.234375 5.859688l-1.640625 4.119873E-4l1.28125 -6.1253242q0.1875 -0.8906708 0.1875 -1.3281708q0 -0.484375 -0.328125 -0.7811699q-0.328125 -0.29679108 -0.953125 -0.29663086q-1.28125 3.2043457E-4 -2.265625 0.9068222q-0.984375 0.90649796 -1.453125 3.1253662l-0.9375 4.5002365l-1.640625 4.119873E-4zm9.375717 -0.0023651123l7.578125 -13.36129l2.09375 -5.302429E-4l2.203125 13.358822l-1.71875 4.348755E-4l-0.65625 -3.8435898l-5.40625 0.0013656616l-2.140625 3.8442917l-1.953125 4.9591064E-4zm4.859375 -5.2199783l4.421875 -0.0011177063l-0.515625 -3.3592453q-0.296875 -1.9842987 -0.375 -3.3124046q-0.453125 1.1407394 -1.328125 2.7190857l-2.203125 3.953682zm15.256073 1.6836433l1.65625 0.1714592q-0.625 1.8126602 -1.765625 2.7035675q-1.140625 0.8752899 -2.609375 0.87566376q-1.578125 3.9672852E-4 -2.5625 -1.0149765q-0.96875 -1.0310059 -0.96875 -2.8591347q0 -1.578125 0.625 -3.1095314q0.640625 -1.531414 1.796875 -2.328579q1.171875 -0.79717255 2.6875 -0.797554q1.546875 -3.9291382E-4 2.453125 0.8743782q0.921875 0.8747673 0.921875 2.3278923l-1.625 0.10978699q-0.015625 -0.9218712 -0.546875 -1.4373627q-0.515625 -0.5154953 -1.359375 -0.5152817q-1.0 2.5177002E-4 -1.734375 0.6254387q-0.71875 0.6251831 -1.140625 1.9065399q-0.40625 1.281353 -0.40625 2.468853q0 1.2343712 0.546875 1.8592339q0.546875 0.6092377 1.34375 0.6090393q0.796875 -2.0599365E-4 1.53125 -0.6097641q0.734375 -0.6095581 1.15625 -1.8596687zm6.5 2.1858559l-0.265625 1.3594437q-0.59375 0.14077759 -1.15625 0.14092255q-0.984375 2.4414062E-4 -1.5625 -0.4683609q-0.4375 -0.37488556 -0.4375 -0.99988556q0 -0.3125 0.234375 -1.468811l1.171875 -5.6252975l-1.296875 3.2806396E-4l0.265625 -1.2656898l1.296875 -3.2806396E-4l0.5 -2.375126l1.890625 -1.1411057l-0.734375 3.515812l1.625 -4.119873E-4l-0.28125 1.2656975l-1.609375 4.081726E-4l-1.125 5.359661q-0.203125 1.0156708 -0.203125 1.2187958q0 0.28125 0.15625 0.43746185q0.171875 0.15620422 0.5625 0.15611267q0.546875 -1.449585E-4 0.96875 -0.10962677zm3.6676636 -10.141548l0.40625 -1.875103l1.625 -4.119873E-4l-0.390625 1.8750992l-1.640625 4.15802E-4zm-2.390625 11.484978l2.015625 -9.672382l1.65625 -4.196167E-4l-2.03125 9.67239l-1.640625 4.119873E-4zm6.6448364 -0.0016784668l-1.59375 -9.671471l1.609375 -4.081726E-4l0.828125 5.327915q0.140625 0.87496567 0.34375 2.843666q0.46875 -1.0157471 1.203125 -2.3596802l3.234375 -5.8133163l1.75 -4.4250488E-4l-5.546875 9.673279l-1.828125 4.5776367E-4zm9.21875 -11.486702l0.40625 -1.875103l1.625 -4.119873E-4l-0.390625 1.8750992l-1.640625 4.15802E-4zm-2.390625 11.484978l2.015625 -9.672386l1.65625 -4.15802E-4l-2.03125 9.67239l-1.640625 4.119873E-4zm8.051056 -1.345787l-0.265625 1.3594437q-0.59375 0.14077759 -1.15625 0.14091492q-0.984375 2.5177002E-4 -1.5625 -0.46835327q-0.4375 -0.37488556 -0.4375 -0.99988556q0 -0.3125 0.234375 -1.468811l1.171875 -5.6252975l-1.296875 3.2806396E-4l0.265625 -1.2656937l1.296875 -3.2424927E-4l0.5 -2.3751297l1.890625 -1.1411018l-0.734375 3.515812l1.625 -4.119873E-4l-0.28125 1.2656975l-1.609375 4.043579E-4l-1.125 5.359665q-0.203125 1.0156708 -0.203125 1.2187958q0 0.28125 0.15625 0.43746185q0.171875 0.15620422 0.5625 0.15610504q0.546875 -1.373291E-4 0.96875 -0.10961914zm0.7145691 5.0779495l0.09375 -1.5468979q0.515625 0.1404953 1.0 0.1403656q0.5 -1.2207031E-4 0.8125 -0.21894836q0.40625 -0.3126068 0.875 -1.1408463l0.53125 -0.9376373l-1.625 -9.702713l1.625 -4.119873E-4l0.734375 4.890438q0.21875 1.4530678 0.375 2.8905296l4.328125 -7.782341l1.71875 -4.348755E-4l-6.171875 10.954681q-0.890625 1.6096039 -1.59375 2.1254044q-0.6875 0.5158005 -1.578125 0.5160217q-0.578125 1.5258789E-4 -1.125 -0.18721008z" fill-rule="nonzero"/><path fill="#000000" fill-opacity="0.0" d="m442.55118 232.28346l0 -137.76378" fill-rule="evenodd"/><path stroke="#000000" stroke-width="2.0" stroke-linejoin="round" stroke-linecap="butt" d="m442.55118 232.28346l0 -125.76378" fill-rule="evenodd"/><path fill="#000000" stroke="#000000" stroke-width="2.0" stroke-linecap="butt" d="m445.85464 106.519684l-3.3034668 -9.076195l-3.3034668 9.076195z" fill-rule="evenodd"/><path fill="#000000" fill-opacity="0.0" d="m405.89502 239.8819l0 -144.66142l33.228333 0l0 144.66142z" fill-rule="evenodd"/><path fill="#000000" d="m421.33063 225.2582l-1.875 -0.40625l0 -1.625l1.875 0.390625l0 1.640625zm11.484375 2.390625l-9.671875 -2.015625l0 -1.65625l9.671875 2.03125l0 1.640625zm-3.3125 -4.363571l-0.09375 -1.640625q0.703125 0 1.21875 -0.21875q0.5 -0.21875 0.8125 -0.796875q0.3125 -0.59375 0.3125 -1.375q0 -1.09375 -0.4375 -1.640625q-0.4375 -0.546875 -1.015625 -0.546875q-0.4375 0 -0.8125 0.328125q-0.390625 0.328125 -0.953125 1.640625q-0.5625 1.3125 -0.78125 1.671875q-0.375 0.609375 -0.875 0.921875q-0.515625 0.3125 -1.171875 0.3125q-1.140625 0 -1.953125 -0.90625q-0.828125 -0.921875 -0.828125 -2.5625q0 -1.828125 0.84375 -2.765625q0.84375 -0.953125 2.21875 -1.0l0.109375 1.609375q-0.875 0.046875 -1.390625 0.625q-0.515625 0.578125 -0.515625 1.65625q0 0.84375 0.40625 1.328125q0.390625 0.46875 0.84375 0.46875q0.453125 0 0.796875 -0.40625q0.234375 -0.28125 0.734375 -1.421875q0.8125 -1.890625 1.28125 -2.375q0.765625 -0.78125 1.84375 -0.78125q0.71875 0 1.421875 0.4375q0.6875 0.4375 1.109375 1.34375q0.40625 0.90625 0.40625 2.140625q0 1.671875 -0.828125 2.84375q-0.828125 1.1875 -2.703125 1.109375zm3.3125 -9.421875l-13.359375 -2.796875l0 -5.609375q0 -1.65625 0.28125 -2.5q0.28125 -0.859375 1.046875 -1.34375q0.765625 -0.5 1.921875 -0.5q1.640625 0 2.71875 1.078125q1.0625 1.0625 1.390625 3.4375q0.53125 -0.734375 1.046875 -1.109375q1.1875 -0.828125 2.4375 -1.34375l2.515625 -1.015625l0 2.0l-2.484375 0.953125q-1.34375 0.515625 -2.328125 1.1875q-0.6875 0.453125 -0.90625 0.921875q-0.21875 0.46875 -0.21875 1.546875l0 2.0625l5.9375 1.25l0 1.78125zm-7.375 -3.328125l0 -2.46875q0 -1.703125 -0.046875 -2.234375q-0.109375 -1.0 -0.453125 -1.640625q-0.359375 -0.65625 -0.953125 -1.015625q-0.609375 -0.359375 -1.296875 -0.359375q-0.59375 0 -1.015625 0.265625q-0.4375 0.265625 -0.59375 0.703125q-0.15625 0.421875 -0.15625 1.453125l0 4.359375l4.515625 0.9375zm4.09375 -16.988571l0.15625 -1.609375q1.1875 0.34375 2.265625 1.59375q1.078125 1.234375 1.078125 2.96875q0 1.0625 -0.5 1.96875q-0.5 0.890625 -1.4375 1.359375q-0.953125 0.46875 -2.15625 0.46875q-1.59375 0 -3.078125 -0.734375q-1.484375 -0.734375 -2.203125 -1.890625q-0.734375 -1.171875 -0.734375 -2.53125q0 -1.734375 1.078125 -2.765625q1.0625 -1.03125 2.921875 -1.03125q0.71875 0 1.46875 0.125l0 7.125q0.28125 0.046875 0.5 0.046875q1.359375 0 2.078125 -0.625q0.71875 -0.625 0.71875 -1.53125q0 -0.84375 -0.546875 -1.65625q-0.5625 -0.828125 -1.609375 -1.28125zm-2.40625 4.78125l0 -5.421875q-0.25 -0.015625 -0.359375 -0.015625q-1.234375 0 -1.890625 0.625q-0.671875 0.625 -0.671875 1.59375q0 1.0625 0.734375 1.9375q0.71875 0.859375 2.1875 1.28125zm5.6875 -8.281967l-8.40625 -1.765625l0 1.484375l-1.265625 -0.265625l0 -1.484375l-1.375 -0.28125q-1.03125 -0.21875 -1.484375 -0.4375q-0.453125 -0.234375 -0.75 -0.75q-0.296875 -0.53125 -0.296875 -1.4375q0 -0.625 0.265625 -1.828125l1.4375 0.296875q-0.21875 0.84375 -0.21875 1.40625q0 0.484375 0.25 0.734375q0.234375 0.25 1.125 0.4375l1.046875 0.21875l0 -1.84375l1.265625 0.265625l0 1.84375l8.40625 1.75l0 1.65625zm0 -4.823929l-13.359375 -2.796875l0 -1.640625l13.359375 2.78125l0 1.65625zm-3.28125 -11.379181l0.15625 -1.609375q1.1875 0.34375 2.265625 1.59375q1.078125 1.234375 1.078125 2.9687347q0 1.0625 -0.5 1.96875q-0.5 0.890625 -1.4375 1.359375q-0.953125 0.46875 -2.15625 0.46875q-1.59375 0 -3.078125 -0.734375q-1.484375 -0.734375 -2.203125 -1.890625q-0.734375 -1.171875 -0.734375 -2.5312347q0 -1.734375 1.078125 -2.765625q1.0625 -1.03125 2.921875 -1.03125q0.71875 0 1.46875 0.125l0 7.1249847q0.28125 0.046875 0.5 0.046875q1.359375 0 2.078125 -0.625q0.71875 -0.625 0.71875 -1.53125q0 -0.84375 -0.546875 -1.6562347q-0.5625 -0.828125 -1.609375 -1.28125zm-2.40625 4.7812347l0 -5.4218597q-0.25 -0.015625 -0.359375 -0.015625q-1.234375 0 -1.890625 0.625q-0.671875 0.625 -0.671875 1.59375q0 1.0624847 0.734375 1.9374847q0.71875 0.859375 2.1875 1.28125zm2.15625 -14.735077l0.171875 -1.65625q1.8125 0.625 2.703125 1.765625q0.875 1.140625 0.875 2.609375q0 1.578125 -1.015625 2.5625q-1.03125 0.96875 -2.859375 0.96875q-1.578125 0 -3.109375 -0.625q-1.53125 -0.640625 -2.328125 -1.796875q-0.796875 -1.171875 -0.796875 -2.6875q0 -1.546875 0.875 -2.453125q0.875 -0.921875 2.328125 -0.921875l0.109375 1.625q-0.921875 0.015625 -1.4375 0.546875q-0.515625 0.515625 -0.515625 1.359375q0 1.0 0.625 1.734375q0.625 0.71875 1.90625 1.140625q1.28125 0.40625 2.46875 0.40625q1.234375 0 1.859375 -0.546875q0.609375 -0.546875 0.609375 -1.34375q0 -0.796875 -0.609375 -1.53125q-0.609375 -0.734375 -1.859375 -1.15625zm2.1875 -6.5l1.359375 0.265625q0.140625 0.59375 0.140625 1.15625q0 0.984375 -0.46875 1.5625q-0.375 0.4375 -1.0 0.4375q-0.3125 0 -1.46875 -0.234375l-5.625 -1.171875l0 1.296875l-1.265625 -0.265625l0 -1.296875l-2.375 -0.5l-1.140625 -1.890625l3.515625 0.734375l0 -1.625l1.265625 0.28125l0 1.609375l5.359375 1.125q1.015625 0.203125 1.21875 0.203125q0.28125 0 0.4375 -0.15625q0.15625 -0.171875 0.15625 -0.5625q0 -0.546875 -0.109375 -0.96875zm-10.140625 -3.6676788l-1.875 -0.40625l0 -1.625l1.875 0.390625l0 1.640625zm11.484375 2.390625l-9.671875 -2.015625l0 -1.65625l9.671875 2.03125l0 1.640625zm-3.671875 -4.488571q-2.828125 0 -4.6875 -1.671875q-1.53125 -1.375 -1.53125 -3.609375q0 -1.75 1.09375 -2.8125q1.09375 -1.078125 2.953125 -1.078125q1.65625 0 3.09375 0.671875q1.4375 0.671875 2.203125 1.921875q0.765625 1.25 0.765625 2.625q0 1.125 -0.484375 2.046875q-0.484375 0.921875 -1.359375 1.421875q-0.890625 0.484375 -2.046875 0.484375zm-0.15625 -1.65625q1.359375 0 2.0625 -0.65625q0.703125 -0.65625 0.703125 -1.65625q0 -0.53125 -0.203125 -1.046875q-0.21875 -0.53125 -0.65625 -0.96875q-0.4375 -0.453125 -1.0 -0.765625q-0.5625 -0.3125 -1.203125 -0.5q-0.90625 -0.28125 -1.734375 -0.28125q-1.3125 0 -2.03125 0.65625q-0.734375 0.65625 -0.734375 1.65625q0 0.78125 0.375 1.421875q0.375 0.625 1.09375 1.140625q0.703125 0.515625 1.640625 0.765625q0.9375 0.234375 1.6875 0.234375zm3.828125 -8.438217l-9.671875 -2.015625l0 -1.5l1.6875 0.359375q-1.0 -0.96875 -1.453125 -1.8125q-0.453125 -0.859375 -0.453125 -1.734375q0 -1.1875 0.640625 -1.84375q0.625 -0.671875 1.703125 -0.671875q0.53125 0 1.6875 0.234375l5.859375 1.234375l0 1.640625l-6.125 -1.28125q-0.890625 -0.1875 -1.328125 -0.1875q-0.484375 0 -0.78125 0.328125q-0.296875 0.328125 -0.296875 0.953125q0 1.28125 0.90625 2.265625q0.90625 0.984375 3.125 1.453125l4.5 0.9375l0 1.640625zm-5.59375 -11.453842q-3.578125 0 -5.78125 -2.0625q-2.203125 -2.0625076 -2.203125 -5.0000076q0 -2.5 1.625 -4.0625q1.625 -1.578125 4.359375 -1.578125q1.953125 0 3.609375 0.78125q1.25 0.59375 2.15625 1.5q0.90625 0.90625 1.40625 1.9375q0.65625 1.359375 0.65625 2.890625q0 1.609375 -0.765625 2.921875q-0.765625 1.3125076 -2.140625 2.0000076q-1.375 0.671875 -2.921875 0.671875zm0.09375 -1.765625q1.171875 0 2.15625 -0.48438263q0.984375 -0.484375 1.546875 -1.453125q0.546875 -0.96875 0.546875 -2.03125q0 -1.03125 -0.484375 -1.953125q-0.484375 -0.9375 -1.359375 -1.65625q-0.875 -0.734375 -2.140625 -1.15625q-1.265625 -0.4375 -2.5 -0.4375q-2.0 0 -3.171875 1.125q-1.1875 1.109375 -1.1875 2.75q0 2.09375 1.796875 3.703125q1.78125 1.5937576 4.796875 1.5937576zm5.5 -11.667686l-9.671875 -2.015625l0 -1.5l1.6875 0.359375q-1.0 -0.96875 -1.453125 -1.8125q-0.453125 -0.859375 -0.453125 -1.734375q0 -1.1875 0.640625 -1.84375q0.625 -0.671875 1.703125 -0.671875q0.53125 0 1.6875 0.234375l5.859375 1.234375l0 1.640625l-6.125 -1.28125q-0.890625 -0.1875 -1.328125 -0.1875q-0.484375 0 -0.78125 0.328125q-0.296875 0.328125 -0.296875 0.953125q0 1.28125 0.90625 2.265625q0.90625 0.984375 3.125 1.453125l4.5 0.9375l0 1.640625z" fill-rule="nonzero"/><path fill="#000000" fill-opacity="0.0" d="m37.65871 73.60506l-24.999765 0l0 -45.913452l100.495834 0l0 25.000069" fill-rule="evenodd"/><path stroke="#000000" stroke-width="2.0" stroke-linejoin="round" stroke-linecap="butt" d="m37.65871 73.60506l-24.999765 0l0 -45.913452l100.49583 0l0 13.000071" fill-rule="evenodd"/><path fill="#000000" stroke="#000000" stroke-width="2.0" stroke-linecap="butt" d="m109.85131 40.691673l3.3034592 9.076195l3.3034668 -9.076195z" fill-rule="evenodd"/><path fill="#000000" fill-opacity="0.0" d="m7.75328 -5.55704l217.19685 -0.12598467l0 33.259842l-217.19685 0.12598419z" fill-rule="evenodd"/><path fill="#000000" d="m28.607822 20.147741q-0.859375 0.7348728 -1.65625 1.0790844q-0.78125 0.34420395 -1.6875 0.34473038q-1.34375 7.7819824E-4 -2.171875 -0.77999115q-0.8124981 -0.7964039 -0.8124981 -2.030779q0 -0.796875 0.375 -1.4220924q0.3749981 -0.62521744 0.9843731 -1.0005722q0.609375 -0.39097786 1.484375 -0.5477352q0.5625 -0.10970211 2.109375 -0.17309856q1.5625 -0.063406944 2.234375 -0.32942104q0.1875 -0.6719847 0.1875 -1.1251097q0 -0.578125 -0.421875 -0.9060049q-0.5625 -0.45279884 -1.671875 -0.4521551q-1.03125 5.979538E-4 -1.703125 0.469738q-0.65625 0.45350552 -0.953125 1.2974272l-1.671875 -0.13965511q0.515625 -1.4377995 1.609375 -2.2040586q1.109375 -0.76626873 2.796875 -0.7672472q1.796875 -0.001042366 2.84375 0.85772514q0.796875 0.6245384 0.796875 1.6557884q0 0.765625 -0.21875 1.7970018l-0.53125 2.406559q-0.265625 1.1407795 -0.265625 1.8595295q0 0.453125 0.203125 1.3123817l-1.671875 9.7084045E-4q-0.125 -0.46867752 -0.1875 -1.2030163zm0.609375 -3.7034798q-0.34375 0.14082336 -0.75 0.21918488q-0.390625 0.062726974 -1.3125 0.15701103q-1.4375 0.12583351 -2.03125 0.32930374q-0.59375 0.18784523 -0.90625 0.6255264q-0.296875 0.42204666 -0.296875 0.93767166q0 0.6875 0.484375 1.1403446q0.484375 0.4372177 1.359375 0.43671036q0.828125 -4.787445E-4 1.578125 -0.42279053q0.75 -0.43793488 1.1875 -1.2038136q0.4375 -0.7815037 0.6875 -2.2191486zm9.922592 1.3692436l1.6562462 0.1709156q-0.625 1.8128624 -1.7656212 2.7041492q-1.140625 0.87566185 -2.609375 0.87651443q-1.578125 9.1552734E-4 -2.5625 -1.0141392q-0.96875 -1.0306892 -0.96875 -2.8588142q0 -1.578125 0.625 -3.1097374q0.640625 -1.5316219 1.796875 -2.3291683q1.171875 -0.79755497 2.6875 -0.7984333q1.546875 -8.9740753E-4 2.4531212 0.8735771q0.921875 0.874465 0.921875 2.32759l-1.6249962 0.110318184q-0.015625 -0.9218664 -0.546875 -1.4371834q-0.515625 -0.51532555 -1.359375 -0.5148363q-1.0 5.79834E-4 -1.734375 0.6260061q-0.71875 0.62541676 -1.140625 1.9069118q-0.40625 1.2814865 -0.40625 2.4689865q0 1.234375 0.546875 1.8590584q0.546875 0.6090565 1.34375 0.6085949q0.796875 -4.6157837E-4 1.53125 -0.6102638q0.734375 -0.60980034 1.15625 -1.8600464zm6.499996 2.183731l-0.265625 1.3595295q-0.59375 0.14096832 -1.15625 0.14129448q-0.984375 5.722046E-4 -1.5625 -0.4678421q-0.4375 -0.37474632 -0.4375 -0.9997463q0 -0.3125 0.234375 -1.4688873l1.171875 -5.62568l-1.296875 7.5149536E-4l0.265625 -1.2657785l1.296875 -7.5244904E-4l0.5 -2.3752909l1.890625 -1.1417217l-0.734375 3.5160513l1.625 -9.422302E-4l-0.28125 1.2657881l-1.609375 9.3364716E-4l-1.125 5.3600283q-0.203125 1.0157433 -0.203125 1.2188683q0 0.28125 0.15625 0.43741035q0.171875 0.15614891 0.5625 0.15592384q0.546875 -3.1852722E-4 0.96875 -0.10993767zm1.4958038 -1.9696178l1.640625 -0.09470177q0 0.703125 0.21875 1.2186241q0.21875 0.4998722 0.796875 0.8120365q0.59375 0.31215668 1.375 0.31170273q1.09375 -6.351471E-4 1.640625 -0.43845177q0.546875 -0.43781662 0.546875 -1.0159416q0 -0.4375 -0.328125 -0.8123112q-0.328125 -0.39043427 -1.640625 -0.95217323q-1.3125 -0.56173897 -1.671875 -0.78027916q-0.609375 -0.37464714 -0.921875 -0.87446594q-0.3125 -0.5154438 -0.3125 -1.1716938q0 -1.140625 0.90625 -1.9536514q0.921875 -0.82866 2.5625 -0.8296108q1.828125 -0.0010604858 2.765625 0.8421459q0.953125 0.84319687 1.0 2.2181702l-1.609375 0.11030865q-0.046875 -0.8749733 -0.625 -1.3902636q-0.578125 -0.5152893 -1.65625 -0.5146637q-0.84375 4.892349E-4 -1.328125 0.40702057q-0.46875 0.3908968 -0.46875 0.8440218q0 0.453125 0.40625 0.79663944q0.28125 0.23421192 1.421875 0.7335501q1.890625 0.8114042 2.375 1.279872q0.78125 0.76517296 0.78125 1.843298q0 0.71875 -0.4375 1.4221287q-0.4375 0.6877537 -1.34375 1.1101551q-0.90625 0.40677643 -2.140625 0.40749168q-1.671875 9.689331E-4 -2.84375 -0.82647514q-1.1875 -0.82743645 -1.109375 -2.7024822zm8.359375 7.0107765l2.796875 -13.376624l1.515625 -8.792877E-4l-0.28125 1.343914q0.84375 -0.8754902 1.515625 -1.2196293q0.671875 -0.34414005 1.421875 -0.34457493q1.3749962 -7.982254E-4 2.28125 1.0143013q0.921875 0.99946594 0.921875 2.874466q0 1.515625 -0.5 2.765915q-0.5 1.2346668 -1.2343788 2.0007172q-0.71875 0.7504177 -1.4687462 1.1102276q-0.75 0.34418488 -1.53125 0.34463692q-1.75 0.0010166168 -2.703125 -1.7640572l-1.09375 5.250635l-1.640625 9.5176697E-4zm3.25 -7.6581364q0 1.078125 0.15625 1.4999104q0.234375 0.5936146 0.75 0.9683151q0.515625 0.35907555 1.203125 0.3586769q1.421875 -8.239746E-4 2.2968712 -1.5950832q0.8750038 -1.6098824 0.8750038 -3.2817574q0 -1.21875 -0.5937538 -1.8902807q-0.578125 -0.67154026 -1.4531212 -0.67103195q-0.625 3.6239624E-4 -1.171875 0.34442902q-0.53125 0.32843304 -1.0 0.9849558q-0.453125 0.65651226 -0.765625 1.6098194q-0.296875 0.95329666 -0.296875 1.6720467zm15.031967 0.6631565l1.6093674 0.1553173q-0.34375 1.1876984 -1.5937424 2.2665482q-1.234375 1.0788422 -2.96875 1.0798473q-1.0625 6.160736E-4 -1.96875 -0.4988575q-0.890625 -0.4994831 -1.359375 -1.4367123q-0.46875 -0.95285225 -0.46875 -2.1559772q0 -1.593751 0.734375 -3.0785522q0.734375 -1.4848013 1.890625 -2.2042217q1.171875 -0.73505497 2.53125 -0.73584366q1.7343674 -0.0010061264 2.7656174 1.0765209q1.03125 1.061902 1.03125 2.921277q0 0.71875095 -0.125 1.4688234l-7.1249924 0.0041332245q-0.046875 0.2812767 -0.046875 0.5000267q0 1.359375 0.625 2.0777626q0.625 0.7183876 1.53125 0.7178612q0.84375 -4.8828125E-4 1.65625 -0.5478344q0.828125 -0.56298065 1.28125 -1.6101189zm-4.78125 -2.4034767l5.4218674 -0.003145218q0.015625 -0.25000954 0.015625 -0.35938454q0 -1.234375 -0.6249924 -1.8902626q-0.625 -0.6715126 -1.59375 -0.6709509q-1.0625 6.170273E-4 -1.9375 0.7354994q-0.859375 0.7192488 -1.28125 2.1882439zm14.735085 2.1477032l1.65625 0.1709137q-0.625 1.8128624 -1.765625 2.7041492q-1.140625 0.87566185 -2.609375 0.87651443q-1.578125 9.1552734E-4 -2.5625 -1.0141392q-0.96875 -1.0306873 -0.96875 -2.8588123q0 -1.5781269 0.625 -3.1097393q0.640625 -1.5316219 1.796875 -2.3291674q1.171875 -0.79755497 2.6875 -0.79843426q1.546875 -8.9740753E-4 2.453125 0.8735771q0.921875 0.87446594 0.921875 2.327591l-1.625 0.110318184q-0.015625 -0.9218664 -0.546875 -1.4371834q-0.515625 -0.5153265 -1.359375 -0.5148363q-1.0 5.79834E-4 -1.734375 0.6260061q-0.71875 0.62541676 -1.140625 1.9069118q-0.40625 1.2814856 -0.40625 2.4689856q0 1.234375 0.546875 1.8590584q0.546875 0.6090584 1.34375 0.6085949q0.796875 -4.6157837E-4 1.53125 -0.6102619q0.734375 -0.60980225 1.15625 -1.8600464zm4.734375 -4.2839975l0.390625 -1.859602l1.859375 -0.001077652l-0.390625 1.859601l-1.859375 0.0010786057zm-1.640625 7.8134527l0.390625 -1.875227l1.875 -0.0010871887l-0.40625 1.8752365l-1.859375 0.001077652zm4.745804 -0.002752304l2.78125 -13.360991l1.65625 -9.6035004E-4l-1.078125 5.1412506q0.921875 -0.90678406 1.71875 -1.2822466q0.796875 -0.39108753 1.625 -0.39156818q1.203125 -6.971359E-4 1.859375 0.63954735q0.671875 0.62460995 0.671875 1.65586q0 0.515625 -0.28125 1.875164l-1.203125 5.719448l-1.640625 9.5176697E-4l1.234375 -5.860092q0.25 -1.26577 0.25 -1.593895q0 -0.484375 -0.328125 -0.78105927q-0.328125 -0.29668522 -0.9375 -0.2963314q-0.890625 5.159378E-4 -1.703125 0.469738q-0.8125 0.46922112 -1.28125 1.2819929q-0.453125 0.8127632 -0.828125 2.6254816l-0.875 4.1567574l-1.640625 9.5176697E-4zm16.891342 -1.212923q-0.859375 0.7348747 -1.65625 1.0790863q-0.78125 0.34420204 -1.6875 0.34472847q-1.34375 7.801056E-4 -2.171875 -0.77998924q-0.8125 -0.7964039 -0.8125 -2.0307808q0 -0.796875 0.375 -1.4220924q0.375 -0.62521744 0.984375 -1.0005703q0.609375 -0.3909788 1.484375 -0.54773617q0.5625 -0.10970116 2.109375 -0.17309856q1.5625 -0.063406944 2.234375 -0.32942104q0.1875 -0.6719847 0.1875 -1.1251097q0 -0.578125 -0.421875 -0.9060049q-0.5625 -0.45279884 -1.671875 -0.4521551q-1.03125 5.979538E-4 -1.703125 0.469738q-0.65625 0.45350552 -0.953125 1.2974281l-1.671875 -0.13965607q0.515625 -1.4377985 1.609375 -2.2040586q1.109375 -0.76626873 2.796875 -0.7672472q1.796875 -0.001042366 2.84375 0.85772514q0.796875 0.6245384 0.796875 1.6557884q0 0.765625 -0.21875 1.7970018l-0.53125 2.406558q-0.265625 1.1407795 -0.265625 1.8595295q0 0.453125 0.203125 1.3123837l-1.671875 9.689331E-4q-0.125 -0.46867752 -0.1875 -1.2030163zm0.609375 -3.7034798q-0.34375 0.14082527 -0.75 0.21918678q-0.390625 0.06272507 -1.3125 0.15701103q-1.4375 0.12583351 -2.03125 0.32930183q-0.59375 0.18784523 -0.90625 0.6255264q-0.296875 0.42204666 -0.296875 0.93767166q0 0.6875019 0.484375 1.1403446q0.484375 0.43721962 1.359375 0.43671227q0.828125 -4.8065186E-4 1.578125 -0.42279053q0.75 -0.43793488 1.1875 -1.2038136q0.4375 -0.7815037 0.6875 -2.2191505zm3.4069672 1.591774l1.640625 -0.09469986q0 0.703125 0.21875 1.2186222q0.21875 0.49987411 0.796875 0.8120384q0.59375 0.31215477 1.375 0.31170273q1.09375 -6.351471E-4 1.640625 -0.43845177q0.546875 -0.43781853 0.546875 -1.0159435q0 -0.4375 -0.328125 -0.81230927q-0.328125 -0.39043427 -1.640625 -0.95217323q-1.3125 -0.56173897 -1.671875 -0.78028107q-0.609375 -0.3746462 -0.921875 -0.874465q-0.3125 -0.5154438 -0.3125 -1.1716938q0 -1.140625 0.90625 -1.9536514q0.921875 -0.82865906 2.5625 -0.8296108q1.828125 -0.0010604858 2.7656174 0.8421459q0.953125 0.84319687 1.0 2.2181702l-1.609375 0.11030865q-0.046875 -0.8749733 -0.6249924 -1.3902626q-0.578125 -0.51529026 -1.65625 -0.51466465q-0.84375 4.892349E-4 -1.328125 0.40702057q-0.46875 0.3908968 -0.46875 0.8440218q0 0.453125 0.40625 0.79663944q0.28125 0.23421192 1.421875 0.7335501q1.890625 0.8114033 2.3749924 1.2798729q0.78125 0.76517296 0.78125 1.843298q0 0.71875 -0.4375 1.4221287q-0.4375 0.6877537 -1.3437424 1.1101551q-0.90625 0.40677452 -2.140625 0.40749168q-1.671875 9.689331E-4 -2.84375 -0.82647705q-1.1875 -0.82743645 -1.109375 -2.7024822zm9.859367 -1.0057182l1.75 -0.17288971l-0.015625 0.46875954q0 0.765625 0.34375 1.4216747q0.359375 0.6404171 1.171875 0.999321q0.828125 0.34326935 1.953125 0.34261703q1.609375 -9.326935E-4 2.453125 -0.7045479q0.84375 -0.7036152 0.84375 -1.6098652q0 -0.625 -0.453125 -1.1403618q-0.453125 -0.5153618 -2.484375 -1.389184q-1.578125 -0.6865854 -2.140625 -1.0456343q-0.90625 -0.5932245 -1.34375 -1.2804708q-0.421875 -0.7028799 -0.421875 -1.5935049q0 -1.03125 0.5625 -1.8597021q0.5625 -0.82845116 1.65625 -1.2665854q1.09375 -0.43813467 2.453125 -0.43892336q1.640625 -9.5176697E-4 2.75 0.54528q1.125 0.5462227 1.625 1.4521828q0.515625 0.9059515 0.515625 1.7340765q0 0.09375 -0.015625 0.28125858l-1.71875 0.14162254q0 -0.578125 -0.109375 -0.89056206q-0.171875 -0.5624008 -0.5625 -0.93717384q-0.375 -0.39040756 -1.046875 -0.6087675q-0.671875 -0.2339859 -1.5 -0.23350525q-1.453125 8.430481E-4 -2.265625 0.65756416q-0.625 0.5003624 -0.625 1.3284874q0 0.484375 0.25 0.87485504q0.265625 0.39047146 0.921875 0.76509094q0.484375 0.26534367 2.25 1.0455704q1.453125 0.63978195 2.0 0.9988394q0.71875 0.48395824 1.109375 1.1712313q0.390625 0.68727493 0.390625 1.5622749q0 1.078125 -0.65625 2.0003796q-0.65625 0.90663147 -1.828125 1.4229374q-1.15625 0.5006695 -2.671875 0.50154877q-2.265625 0.0013141632 -3.703125 -0.9822273q-1.421875 -0.9991741 -1.4375 -3.5616665zm18.349823 2.551857q-1.734375 1.9697571 -3.5625 1.9708157q-1.109375 6.4468384E-4 -1.796875 -0.6395817q-0.6875 -0.64022636 -0.6875 -1.5777264q0 -0.609375 0.296875 -2.0939236l1.171875 -5.578805l1.65625 -9.6035004E-4l-1.296875 6.1882534q-0.171875 0.7657242 -0.171875 1.2032242q0 0.546875 0.328125 0.85918427q0.34375 0.29667664 0.984375 0.2963047q0.703125 -4.081726E-4 1.359375 -0.32891273q0.65625 -0.34413147 1.125 -0.9225292q0.484375 -0.5784054 0.796875 -1.3598366q0.1875 -0.5001087 0.453125 -1.7658882l0.87498474 -4.1723833l1.65625 -9.6035004E-4l-2.0312347 9.673054l-1.515625 8.792877E-4l0.359375 -1.7502079zm3.7819672 1.7478065l2.78125 -13.360991l1.65625 -9.608269E-4l-1.0 4.7818313q0.78125 -0.71920395 1.421875 -1.0164499q0.640625 -0.29724693 1.328125 -0.29764557q1.359375 -7.8868866E-4 2.265625 1.0143108q0.90625 0.9994745 0.90625 2.9369745q0 1.28125 -0.375 2.3595924q-0.359375 1.0627098 -0.890625 1.7817669q-0.53125 0.719059 -1.109375 1.1568947q-0.578125 0.4378357 -1.1875 0.64131355q-0.59375 0.21909523 -1.140625 0.21941185q-0.96875 5.6266785E-4 -1.703125 -0.499012q-0.71875 -0.5152092 -1.125 -1.5462227l-0.390625 1.828352l-1.4375 8.3351135E-4zm2.4375 -3.9701653l-0.015625 0.31250954q0 1.234375 0.59375 1.8902817q0.59375 0.64027977 1.484375 0.6397629q0.859375 -4.97818E-4 1.578125 -0.6102905q0.734375 -0.60980034 1.1875 -1.8913136q0.46875 -1.2815228 0.46875 -2.3752718q0 -1.218751 -0.59375 -1.8902817q-0.578125 -0.6715393 -1.4375 -0.67104053q-0.90625 5.2547455E-4 -1.65625 0.68846035q-0.734375 0.6879263 -1.234375 2.1257162q-0.375 1.0627174 -0.375 1.7814674zm14.453827 2.7572422q-0.859375 0.7348728 -1.65625 1.0790863q-0.78125 0.34420204 -1.6875 0.34472847q-1.34375 7.801056E-4 -2.171875 -0.77999115q-0.8125 -0.7964039 -0.8125 -2.030779q0 -0.796875 0.375 -1.4220924q0.375 -0.62521744 0.984375 -1.0005703q0.609375 -0.3909788 1.484375 -0.5477371q0.5625 -0.10970116 2.109375 -0.17309856q1.5625 -0.06340599 2.234375 -0.32942104q0.1875 -0.6719837 0.1875 -1.1251087q0 -0.578125 -0.421875 -0.9060049q-0.5625 -0.45279884 -1.671875 -0.45215607q-1.03125 5.9890747E-4 -1.703125 0.469738q-0.65625 0.45350647 -0.953125 1.2974281l-1.671875 -0.13965511q0.515625 -1.4377995 1.609375 -2.2040586q1.109375 -0.76626873 2.796875 -0.7672472q1.796875 -0.001042366 2.84375 0.85772514q0.796875 0.6245384 0.796875 1.6557884q0 0.765625 -0.21875 1.7970018l-0.53125 2.406558q-0.265625 1.1407795 -0.265625 1.8595295q0 0.453125 0.203125 1.3123837l-1.671875 9.689331E-4q-0.125 -0.46867752 -0.1875 -1.2030163zm0.609375 -3.7034798q-0.34375 0.14082527 -0.75 0.21918488q-0.390625 0.062726974 -1.3125 0.15701294q-1.4375 0.12583351 -2.03125 0.32930183q-0.59375 0.18784523 -0.90625 0.6255264q-0.296875 0.42204666 -0.296875 0.93767166q0 0.6875 0.484375 1.1403446q0.484375 0.43721962 1.359375 0.43671227q0.828125 -4.8065186E-4 1.578125 -0.42279053q0.75 -0.43793488 1.1875 -1.2038136q0.4375 -0.7815056 0.6875 -2.2191505zm9.922607 1.3692455l1.65625 0.1709137q-0.625 1.8128624 -1.765625 2.7041492q-1.140625 0.87566185 -2.609375 0.87651443q-1.578125 9.1552734E-4 -2.5625 -1.0141392q-0.96875 -1.0306873 -0.96875 -2.8588123q0 -1.5781269 0.625 -3.1097393q0.640625 -1.5316219 1.796875 -2.3291674q1.171875 -0.79755497 2.6875 -0.79843426q1.546875 -8.9645386E-4 2.453125 0.8735771q0.921875 0.87446594 0.921875 2.327591l-1.625 0.110318184q-0.015625 -0.9218664 -0.546875 -1.4371834q-0.515625 -0.5153265 -1.359375 -0.5148363q-1.0 5.79834E-4 -1.734375 0.6260061q-0.71875 0.62541676 -1.140625 1.9069118q-0.40625 1.2814856 -0.40625 2.4689856q0 1.234375 0.546875 1.8590584q0.546875 0.6090584 1.34375 0.6085949q0.796875 -4.6157837E-4 1.53125 -0.6102619q0.734375 -0.60980225 1.15625 -1.8600464zm6.5 2.1837292l-0.265625 1.3595295q-0.59375 0.14097023 -1.15625 0.14129639q-0.984375 5.7029724E-4 -1.5625 -0.467844q-0.4375 -0.37474632 -0.4375 -0.9997463q0 -0.3125 0.234375 -1.4688854l1.171875 -5.625682l-1.296875 7.5244904E-4l0.265625 -1.2657795l1.296875 -7.5149536E-4l0.5 -2.3752909l1.890625 -1.1417217l-0.734375 3.5160513l1.625 -9.422302E-4l-0.28125 1.2657881l-1.609375 9.3364716E-4l-1.125 5.360029q-0.203125 1.0157413 -0.203125 1.2188663q0 0.28125 0.15625 0.43741035q0.171875 0.15615082 0.5625 0.15592384q0.546875 -3.1661987E-4 0.96875 -0.10993767zm3.6676636 -10.142754l0.40625 -1.875236l1.625 -9.422302E-4l-0.390625 1.8752265l-1.640625 9.5176697E-4zm-2.390625 11.485764l2.015625 -9.673045l1.65625 -9.613037E-4l-2.03125 9.673055l-1.640625 9.5176697E-4zm6.6448364 -0.0038547516l-1.59375 -9.670952l1.609375 -9.3364716E-4l0.828125 5.3276453q0.140625 0.8749199 0.34375 2.8435516q0.46875 -1.0158978 1.203125 -2.360073l3.234375 -5.814377l1.75 -0.0010156631l-5.546875 9.675094l-1.828125 0.0010604858zm9.21875 -11.489723l0.40625 -1.8752365l1.625 -9.422302E-4l-0.390625 1.875227l-1.640625 9.5176697E-4zm-2.390625 11.485764l2.015625 -9.673046l1.65625 -9.6035004E-4l-2.03125 9.673055l-1.640625 9.5176697E-4zm8.051056 -1.3484211l-0.265625 1.3595295q-0.59375 0.14097023 -1.15625 0.14129639q-0.984375 5.7029724E-4 -1.5625 -0.467844q-0.4375 -0.37474632 -0.4375 -0.9997463q0 -0.3125 0.234375 -1.4688873l1.171875 -5.62568l-1.296875 7.5244904E-4l0.265625 -1.2657795l1.296875 -7.5244904E-4l0.5 -2.37529l1.890625 -1.1417217l-0.734375 3.5160513l1.625 -9.422302E-4l-0.28125 1.2657881l-1.609375 9.3364716E-4l-1.125 5.360029q-0.203125 1.0157413 -0.203125 1.2188663q0 0.28125 0.15625 0.43741035q0.171875 0.15615082 0.5625 0.15592384q0.546875 -3.1661987E-4 0.96875 -0.10993767zm0.7145691 5.077711l0.09375 -1.5469284q0.515625 0.14032555 1.0 0.14004517q0.5 -2.89917E-4 0.8125 -0.21922112q0.40625 -0.3127365 0.875 -1.1411343l0.53125 -0.9378071l-1.625 -9.702185l1.625 -9.422302E-4l0.734375 4.8901997q0.21875 1.4529991 0.375 2.8904076l4.328125 -7.783761l1.71875 -9.975433E-4l-6.171875 10.956706q-0.890625 1.6098919 -1.59375 2.125925q-0.6875 0.51602364 -1.578125 0.5165405q-0.578125 3.3569336E-4 -1.125 -0.18684769z" fill-rule="nonzero"/><path fill="#000000" fill-opacity="0.0" d="m552.56964 40.488377l131.30707 -0.12598419l0 33.259846l-131.30707 0.12598419z" fill-rule="evenodd"/><path fill="#000000" d="m569.3114 55.907944l0.40625 -1.8753929l1.625 -0.0015563965l-0.390625 1.8753738l-1.640625 0.00157547zm-2.390625 11.486671l2.015625 -9.673813l1.65625 -0.0015869141l-2.03125 9.673828l-1.640625 0.0015716553zm4.3635864 -3.3166885l1.640625 -0.095321655q0 0.703125 0.21875 1.218544q0.21875 0.49978638 0.796875 0.81172943q0.59375 0.31193542 1.374939 0.3111801q1.09375 -0.001045227 1.640625 -0.43907166q0.546875 -0.43802643 0.546875 -1.0161514q0 -0.4375 -0.328125 -0.81217957q-0.328125 -0.3903122 -1.640625 -0.95155334q-1.312439 -0.56124115 -1.671814 -0.7796478q-0.609375 -0.37441635 -0.921875 -0.874115q-0.3125 -0.51532745 -0.3125 -1.1715775q0 -1.140625 0.90625 -1.9539948q0.921875 -0.82901 2.562439 -0.8305855q1.828125 -0.001750946 2.765625 0.8410988q0.953125 0.8428345 1.0 2.2177925l-1.609375 0.11091614q-0.046875 -0.8749542 -0.625 -1.3900261q-0.578125 -0.51506805 -1.65625 -0.5140343q-0.84375 8.087158E-4 -1.328125 0.4075241q-0.46868896 0.39107513 -0.46868896 0.84420013q0 0.453125 0.40625 0.7964859q0.28118896 0.23410416 1.421814 0.73300934q1.890625 0.810688 2.375 1.2789726q0.78125 0.7648773 0.78125 1.8430023q0 0.71875 -0.4375 1.4222946q-0.4375 0.6879196 -1.34375 1.1106644q-0.90625 0.40711975 -2.140625 0.4083023q-1.671814 0.0016098022 -2.843689 -0.8253937q-1.1875 -0.8269882 -1.109375 -2.7020645zm9.390564 3.3034973l2.796875 -13.362068l9.625 -0.009235382l-0.3125 1.5315514l-7.859375 0.0075416565l-0.859375 4.157074l7.640625 -0.0073280334l-0.3125 1.5159225l-7.65625 0.007347107l-0.96875 4.641556l8.40625 -0.00806427l-0.3125 1.5159225l-10.1875 0.009780884zm12.2248535 -0.011734009l2.015625 -9.673813l1.5 -0.0014381409l-0.359375 1.6878471q0.96875 -1.0009308 1.8125 -1.4548645q0.859375 -0.4539528 1.734375 -0.45479202q1.1875 -0.0011367798 1.84375 0.6388588q0.671875 0.6243553 0.671875 1.7024803q0 0.53125 -0.234375 1.6877251l-1.234375 5.860565l-1.640625 0.0015716553l1.28125 -6.126232q0.1875 -0.8908043 0.1875 -1.3283081q0 -0.484375 -0.328125 -0.7809334q-0.328125 -0.2965622 -0.953125 -0.29595947q-1.28125 0.0012283325 -2.265625 0.9084244q-0.984375 0.90719223 -1.453125 3.1263924l-0.9375 4.500904l-1.640625 0.0015716553zm10.281982 0.8651352l1.671875 0.15464783q-0.03125 0.5625305 0.125 0.8436279q0.15625 0.28110504 0.5 0.43701935q0.4375 0.20270538 1.15625 0.20201874q1.484314 -0.0014266968 2.140564 -0.7833023q0.4375 -0.5160446 0.796875 -2.2507706l0.171875 -0.7814102q-1.296875 1.2981186 -2.734314 1.2994995q-1.46875 0.0014038086 -2.46875 -1.0757599q-0.984375 -1.077179 -0.984375 -3.0615578q0 -1.625 0.78125 -2.9851227q0.78125 -1.3757515 1.859375 -2.0642853q1.078125 -0.7041626 2.203064 -0.70524216q1.90625 -0.00182724 2.9375 1.7940598l0.328125 -1.5784416l1.515625 -0.0014533997l-1.953125 9.330002q-0.3125 1.5471802 -0.84375 2.4070587q-0.515625 0.8598709 -1.4375 1.3295059q-0.921875 0.48526 -2.140564 0.48643494q-1.15625 0.0011062622 -2.0 -0.31058502q-0.84375 -0.29606628 -1.265625 -0.8737869q-0.40625 -0.5777359 -0.40625 -1.3277359q0 -0.21875 0.046875 -0.48442078zm2.0625 -5.15823q0 1.0000038 0.1875 1.4998207q0.265625 0.68724823 0.765625 1.0617676q0.515625 0.3745041 1.140625 0.37390137q0.81243896 -7.7819824E-4 1.609314 -0.56404114q0.796875 -0.57888794 1.296875 -1.7668686q0.5 -1.2036057 0.5 -2.2817345q0 -1.203125 -0.671875 -1.9056053q-0.65625 -0.7024956 -1.625 -0.7015648q-0.609375 5.836487E-4 -1.171814 0.32925034q-0.5625 0.31303787 -1.046875 0.98537827q-0.484375 0.6567154 -0.734375 1.5788307q-0.25 0.9221153 -0.25 1.3908653zm14.922546 3.0638084q-0.859375 0.735199 -1.65625 1.0797119q-0.78125 0.3445053 -1.6875 0.34537506q-1.34375 0.0012893677 -2.171875 -0.7791672q-0.8125 -0.7960968 -0.8125 -2.0304718q0 -0.7968788 0.375 -1.4222374q0.375 -0.6253586 0.984375 -1.000946q0.609375 -0.39120865 1.484375 -0.5482979q0.5625 -0.10991669 2.109375 -0.1739006q1.5625 -0.063999176 2.234375 -0.33026886q0.1875 -0.6720543 0.1875 -1.1251793q0 -0.578125 -0.421875 -0.90584564q-0.5625 -0.45258713 -1.671875 -0.451519q-1.03125 9.880066E-4 -1.703125 0.4703827q-0.65625 0.45375443 -0.953125 1.2977905l-1.671875 -0.13902283q0.515625 -1.4379959 1.609375 -2.20467q1.109375 -0.7666893 2.796875 -0.76830673q1.796875 -0.0017242432 2.84375 0.8566475q0.796875 0.62423325 0.796875 1.6554832q0 0.765625 -0.21875 1.7970886l-0.53125 2.4067574q-0.265625 1.1408844 -0.265625 1.8596344q0 0.453125 0.203125 1.3123016l-1.671875 0.0016098022q-0.125 -0.46863556 -0.1875 -1.2029495zm0.609375 -3.7037125q-0.34375 0.14095688 -0.75 0.21947098q-0.390625 0.06287384 -1.3125 0.15750885q-1.4375 0.12638092 -2.03125 0.3300743q-0.59375 0.18806839 -0.90625 0.62586975q-0.296875 0.4221573 -0.296875 0.9377823q0 0.6875 0.484375 1.1401672q0.484375 0.4370346 1.359375 0.43619537q0.828125 -7.9345703E-4 1.578125 -0.42339325q0.75 -0.43821716 1.1875 -1.2042618q0.4375 -0.78167343 0.6875 -2.2194138zm3.1569824 5.7782288l1.671875 0.1546402q-0.03125 0.5625305 0.125 0.84363556q0.15625 0.2810974 0.5 0.43701935q0.4375 0.20270538 1.15625 0.20201111q1.484375 -0.0014190674 2.140625 -0.7833023q0.4375 -0.5160446 0.796875 -2.250763l0.171875 -0.78141785q-1.296875 1.2981186 -2.734375 1.2994995q-1.46875 0.001411438 -2.46875 -1.0757599q-0.984375 -1.077179 -0.984375 -3.061554q0 -1.625 0.78125 -2.9851265q0.78125 -1.3757477 1.859375 -2.0642853q1.078125 -0.7041588 2.203125 -0.70523834q1.90625 -0.00182724 2.9375 1.7940598l0.328125 -1.5784416l1.515625 -0.0014533997l-1.953125 9.329998q-0.3125 1.5471802 -0.84375 2.4070663q-0.515625 0.8598709 -1.4375 1.3295059q-0.921875 0.48526 -2.140625 0.4864273q-1.15625 0.0011062622 -2.0 -0.31058502q-0.84375 -0.29606628 -1.265625 -0.8737869q-0.40625 -0.5777359 -0.40625 -1.3277359q0 -0.21875 0.046875 -0.48441315zm2.0625 -5.1582336q0 1.0 0.1875 1.4998169q0.265625 0.68724823 0.765625 1.0617676q0.515625 0.3745041 1.140625 0.373909q0.8125 -7.7819824E-4 1.609375 -0.56404877q0.796875 -0.57888794 1.296875 -1.7668686q0.5 -1.2036057 0.5 -2.2817307q0 -1.203125 -0.671875 -1.9056053q-0.65625 -0.7024956 -1.625 -0.7015648q-0.609375 5.836487E-4 -1.171875 0.32924652q-0.5625 0.3130417 -1.046875 0.9853821q-0.484375 0.6567154 -0.734375 1.5788307q-0.25 0.9221153 -0.25 1.3908653zm15.500671 0.9851303l1.609375 0.15470123q-0.34375 1.1878281 -1.59375 2.2671585q-1.234314 1.0793076 -2.968689 1.0809708q-1.0625 0.0010223389 -1.96875 -0.4981079q-0.890625 -0.4991455 -1.359375 -1.4361954q-0.46875 -0.9526825 -0.46875 -2.1558037q0 -1.59375 0.734375 -3.0788307q0.734375 -1.4850807 1.890625 -2.2049408q1.171875 -0.73550034 2.53125 -0.73680496q1.734314 -0.001663208 2.765564 1.0754738q1.03125 1.0615082 1.03125 2.920887q0 0.71875 -0.125 1.4688683l-7.124939 0.0068359375q-0.046875 0.28129578 -0.046875 0.5000458q0 1.359375 0.625 2.07753q0.625 0.7181473 1.53125 0.7172775q0.84375 -8.087158E-4 1.65625 -0.5484619q0.82806396 -0.56329346 1.281189 -1.6106033zm-4.781189 -2.4016685l5.421814 -0.0051994324q0.015625 -0.25001526 0.015625 -0.35939026q0 -1.234375 -0.625 -1.8900261q-0.625 -0.6712761 -1.593689 -0.6703491q-1.0625 0.0010223389 -1.9375 0.7362366q-0.859375 0.719574 -1.28125 2.1887283zm14.578796 4.267269q-1.40625 1.6263428 -2.953125 1.6278305q-1.375 0.0013198853 -2.296875 -1.0134201q-0.90625 -1.0147552 -0.90625 -2.952259q0 -1.765625 0.71875 -3.2194405q0.734375 -1.4694557 1.8125 -2.1892395q1.09375 -0.73542404 2.1875 -0.7364731q1.796875 -0.0017242432 2.71875 1.7317657l1.09375 -5.204178l1.640625 -0.0015716553l-2.78125 13.362045l-1.53125 0.0014724731l0.296875 -1.4065323zm-4.515625 -2.6362991q0 1.0 0.203125 1.5935593q0.203125 0.57792664 0.671875 0.9681015q0.484375 0.3745346 1.171875 0.37387848q1.109375 -0.0010604858 2.03125 -1.1582031q1.21875 -1.5480423 1.21875 -3.8292923q0 -1.140625 -0.609375 -1.7806664q-0.59375 -0.6556816 -1.515625 -0.6547966q-0.59375 5.722046E-4 -1.078125 0.26665878q-0.484375 0.2660904 -0.96875 0.9071808q-0.46875 0.62545013 -0.796875 1.5945168q-0.328125 0.9690628 -0.328125 1.7190628zm8.813232 4.0384216l2.796875 -13.362064l1.78125 -0.0017089844l-2.796875 13.362064l-1.78125 0.0017089844zm4.7457886 -0.0045547485l2.015625 -9.673809l1.5 -0.0014419556l-0.359375 1.6878471q0.96875 -1.0009308 1.8125 -1.4548645q0.859375 -0.45394897 1.734375 -0.4547882q1.1875 -0.0011405945 1.84375 0.638855q0.671875 0.6243553 0.671875 1.7024803q0 0.53125 -0.234375 1.6877251l-1.234375 5.860565l-1.640625 0.0015716553l1.28125 -6.126232q0.1875 -0.8908043 0.1875 -1.3283043q0 -0.484375 -0.328125 -0.7809372q-0.328125 -0.29655838 -0.953125 -0.29595947q-1.28125 0.0012283325 -2.265625 0.9084244q-0.984375 0.90719604 -1.453125 3.1263962l-0.9375 4.5009003l-1.640625 0.0015716553z" fill-rule="nonzero"/><path fill="#000000" fill-opacity="0.0" d="m113.13903 232.28485l0 -137.76378" fill-rule="evenodd"/><path stroke="#000000" stroke-width="2.0" stroke-linejoin="round" stroke-linecap="butt" stroke-dasharray="8.0,6.0" d="m113.13902 232.28487l0 -125.763794" fill-rule="evenodd"/><path stroke="#000000" stroke-width="2.0" stroke-linecap="butt" d="m116.44249 106.52107l-3.3034668 -9.076202l-3.3034592 9.076202z" fill-rule="evenodd"/></g></svg>