<?xml version="1.0" encoding="utf-8"?>
<!-- Generator: Adobe Illustrator 14.0.0, SVG Export Plug-In  -->
<!DOCTYPE svg PUBLIC "-//W3C//DTD SVG 1.1//EN" "http://www.w3.org/Graphics/SVG/1.1/DTD/svg11.dtd" [
	<!ENTITY ns_flows "http://ns.adobe.com/Flows/1.0/">
]>
<svg version="1.1"
	 xmlns="http://www.w3.org/2000/svg" xmlns:xlink="http://www.w3.org/1999/xlink" xmlns:a="http://ns.adobe.com/AdobeSVGViewerExtensions/3.0/"
	 x="0px" y="0px" width="1141px" height="999px" viewBox="-0.357 -0.801 1141 999" enable-background="new -0.357 -0.801 1141 999"
	 xml:space="preserve">
<defs>
</defs>
<polygon id="Top_6_" fill="#7CAD0B" stroke="#000000" stroke-width="5" stroke-linecap="round" stroke-linejoin="round" points="
	286.855,200.972 570.313,399.458 853.779,200.972 570.322,2.5 "/>
<polygon id="Left_6_" fill="#689109" stroke="#000000" stroke-width="5" stroke-linecap="round" stroke-linejoin="round" points="
	287.119,200.718 287.119,399.199 570.576,597.695 570.576,399.204 "/>
<polygon id="Right_6_" fill="#729F0A" stroke="#000000" stroke-width="5" stroke-linecap="round" stroke-linejoin="round" points="
	570.557,399.292 570.244,597.539 853.701,399.067 853.701,201.03 "/>
<path id="Pin_1_12_" fill="#689109" stroke="#000000" stroke-width="5" stroke-linecap="round" stroke-linejoin="round" d="
	M629.844,272.275c0,24.268-26.641,43.94-59.521,43.94s-59.531-19.673-59.531-43.94v28.345c0,24.268,26.65,43.94,59.531,43.94
	s59.521-19.673,59.521-43.94V272.275z"/>
<path id="Pin_2_12_" fill="#689109" stroke="#000000" stroke-width="5" stroke-linecap="round" stroke-linejoin="round" d="
	M488.369,172.373c0,24.268-26.641,43.94-59.521,43.94s-59.521-19.673-59.521-43.94v28.345c0,24.268,26.641,43.94,59.521,43.94
	s59.521-19.673,59.521-43.94V172.373z"/>
<path id="Pin_3_12_" fill="#689109" stroke="#000000" stroke-width="5" stroke-linecap="round" stroke-linejoin="round" d="
	M771.494,172.686c0,24.268-26.641,43.94-59.521,43.94s-59.521-19.673-59.521-43.94v28.345c0,24.268,26.641,43.94,59.521,43.94
	s59.521-19.673,59.521-43.94V172.686z"/>
<path id="Pin_4_12_" fill="#689109" stroke="#000000" stroke-width="5" stroke-linecap="round" stroke-linejoin="round" d="
	M628.896,73.984c0,24.268-26.641,43.94-59.521,43.94s-59.521-19.673-59.521-43.94v28.345c0,24.268,26.641,43.94,59.521,43.94
	s59.521-19.673,59.521-43.94V73.984z"/>
<path id="Pin_1_11_" fill="#7CAD0B" stroke="#000000" stroke-width="5" stroke-linecap="round" stroke-linejoin="round" d="
	M629.844,272.275c0,24.268-26.641,43.94-59.521,43.94s-59.531-19.673-59.531-43.94c0-24.263,26.65-43.936,59.531-43.936
	S629.844,248.013,629.844,272.275z"/>
<path id="Pin_2_11_" fill="#7CAD0B" stroke="#000000" stroke-width="5" stroke-linecap="round" stroke-linejoin="round" d="
	M488.369,172.373c0,24.268-26.641,43.94-59.521,43.94s-59.531-19.673-59.531-43.94c0-24.263,26.65-43.936,59.531-43.936
	S488.369,148.11,488.369,172.373z"/>
<path id="Pin_3_11_" fill="#7CAD0B" stroke="#000000" stroke-width="5" stroke-linecap="round" stroke-linejoin="round" d="
	M771.494,172.686c0,24.268-26.641,43.94-59.521,43.94s-59.521-19.673-59.521-43.94c0-24.263,26.641-43.936,59.521-43.936
	S771.494,148.423,771.494,172.686z"/>
<path id="Pin_4_11_" fill="#7CAD0B" stroke="#000000" stroke-width="5" stroke-linecap="round" stroke-linejoin="round" d="
	M628.896,73.984c0,24.268-26.641,43.94-59.521,43.94s-59.521-19.673-59.521-43.94c0-24.263,26.641-43.936,59.521-43.936
	S628.896,49.722,628.896,73.984z"/>
<polygon id="Top_5_" fill="#AF157F" stroke="#000000" stroke-width="5" stroke-linecap="round" stroke-linejoin="round" points="
	570.313,598.604 853.77,797.09 1137.236,598.604 853.779,400.132 "/>
<polygon id="Left_5_" fill="#93126B" stroke="#000000" stroke-width="5" stroke-linecap="round" stroke-linejoin="round" points="
	570.576,598.35 570.576,796.836 854.033,995.322 854.033,796.836 "/>
<polygon id="Right_5_" fill="#A11476" stroke="#000000" stroke-width="5" stroke-linecap="round" stroke-linejoin="round" points="
	854.014,796.924 853.701,995.176 1137.158,796.699 1137.158,598.662 "/>
<path id="Pin_1_10_" fill="#93126B" stroke="#000000" stroke-width="5" stroke-linecap="round" stroke-linejoin="round" d="
	M913.301,669.902c0,24.277-26.641,43.945-59.521,43.945s-59.531-19.668-59.531-43.945v28.35c0,24.268,26.65,43.936,59.531,43.936
	s59.521-19.668,59.521-43.936V669.902z"/>
<path id="Pin_2_10_" fill="#93126B" stroke="#000000" stroke-width="5" stroke-linecap="round" stroke-linejoin="round" d="
	M771.826,570c0,24.277-26.641,43.945-59.521,43.945S652.783,594.277,652.783,570v28.35c0,24.268,26.641,43.936,59.521,43.936
	s59.521-19.668,59.521-43.936V570z"/>
<path id="Pin_3_10_" fill="#93126B" stroke="#000000" stroke-width="5" stroke-linecap="round" stroke-linejoin="round" d="
	M1054.951,570.313c0,24.277-26.641,43.945-59.521,43.945s-59.521-19.668-59.521-43.945v28.35c0,24.268,26.641,43.936,59.521,43.936
	s59.521-19.668,59.521-43.936V570.313z"/>
<path id="Pin_4_10_" fill="#93126B" stroke="#000000" stroke-width="5" stroke-linecap="round" stroke-linejoin="round" d="
	M912.354,471.616c0,24.268-26.641,43.94-59.521,43.94s-59.521-19.673-59.521-43.94v28.345c0,24.268,26.641,43.945,59.521,43.945
	s59.521-19.678,59.521-43.945V471.616z"/>
<path id="Pin_1_9_" fill="#AF157F" stroke="#000000" stroke-width="5" stroke-linecap="round" stroke-linejoin="round" d="
	M913.301,669.902c0,24.277-26.641,43.945-59.521,43.945s-59.531-19.668-59.531-43.945c0-24.258,26.65-43.926,59.531-43.926
	S913.301,645.645,913.301,669.902z"/>
<path id="Pin_2_9_" fill="#AF157F" stroke="#000000" stroke-width="5" stroke-linecap="round" stroke-linejoin="round" d="
	M771.826,570c0,24.277-26.641,43.945-59.521,43.945S652.773,594.277,652.773,570c0-24.258,26.65-43.926,59.531-43.926
	S771.826,545.742,771.826,570z"/>
<path id="Pin_3_9_" fill="#AF157F" stroke="#000000" stroke-width="5" stroke-linecap="round" stroke-linejoin="round" d="
	M1054.951,570.313c0,24.277-26.641,43.945-59.521,43.945s-59.521-19.668-59.521-43.945c0-24.258,26.641-43.926,59.521-43.926
	S1054.951,546.055,1054.951,570.313z"/>
<path id="Pin_4_9_" fill="#AF157F" stroke="#000000" stroke-width="5" stroke-linecap="round" stroke-linejoin="round" d="
	M912.354,471.616c0,24.268-26.641,43.94-59.521,43.94s-59.521-19.673-59.521-43.94c0-24.263,26.641-43.936,59.521-43.936
	S912.354,447.354,912.354,471.616z"/>
<polygon id="Top_4_" fill="#DD7300" stroke="#000000" stroke-width="5" stroke-linecap="round" stroke-linejoin="round" points="
	2.5,598.574 285.957,797.051 569.424,598.574 285.967,400.098 "/>
<polygon id="Left_4_" fill="#BA6100" stroke="#000000" stroke-width="5" stroke-linecap="round" stroke-linejoin="round" points="
	2.764,598.32 2.764,796.797 286.221,995.293 286.221,796.797 "/>
<polygon id="Right_4_" fill="#CB6A00" stroke="#000000" stroke-width="5" stroke-linecap="round" stroke-linejoin="round" points="
	286.201,796.895 285.889,995.137 569.346,796.66 569.346,598.633 "/>
<path id="Pin_1_3_" fill="#BA6100" stroke="#000000" stroke-width="5" stroke-linecap="round" stroke-linejoin="round" d="
	M345.488,669.873c0,24.268-26.641,43.936-59.521,43.936s-59.531-19.668-59.531-43.936v28.35c0,24.258,26.65,43.936,59.531,43.936
	s59.521-19.678,59.521-43.936V669.873z"/>
<path id="Pin_2_3_" fill="#BA6100" stroke="#000000" stroke-width="5" stroke-linecap="round" stroke-linejoin="round" d="
	M204.014,569.971c0,24.268-26.641,43.936-59.521,43.936s-59.521-19.668-59.521-43.936v28.35c0,24.258,26.641,43.936,59.521,43.936
	s59.521-19.678,59.521-43.936V569.971z"/>
<path id="Pin_3_3_" fill="#BA6100" stroke="#000000" stroke-width="5" stroke-linecap="round" stroke-linejoin="round" d="
	M487.139,570.283c0,24.268-26.641,43.936-59.521,43.936s-59.521-19.668-59.521-43.936v28.35c0,24.258,26.641,43.936,59.521,43.936
	s59.521-19.678,59.521-43.936V570.283z"/>
<path id="Pin_4_3_" fill="#BA6100" stroke="#000000" stroke-width="5" stroke-linecap="round" stroke-linejoin="round" d="
	M344.541,471.582c0,24.268-26.641,43.945-59.521,43.945s-59.521-19.678-59.521-43.945v28.345c0,24.272,26.641,43.94,59.521,43.94
	s59.521-19.668,59.521-43.94V471.582z"/>
<path id="Pin_1_2_" fill="#DD7300" stroke="#000000" stroke-width="5" stroke-linecap="round" stroke-linejoin="round" d="
	M345.488,669.873c0,24.268-26.641,43.936-59.521,43.936s-59.531-19.668-59.531-43.936s26.65-43.936,59.531-43.936
	S345.488,645.605,345.488,669.873z"/>
<path id="Pin_2_2_" fill="#DD7300" stroke="#000000" stroke-width="5" stroke-linecap="round" stroke-linejoin="round" d="
	M204.014,569.971c0,24.268-26.641,43.936-59.521,43.936s-59.531-19.668-59.531-43.936s26.65-43.936,59.531-43.936
	S204.014,545.703,204.014,569.971z"/>
<path id="Pin_3_2_" fill="#DD7300" stroke="#000000" stroke-width="5" stroke-linecap="round" stroke-linejoin="round" d="
	M487.139,570.283c0,24.268-26.641,43.936-59.521,43.936s-59.521-19.668-59.521-43.936s26.641-43.936,59.521-43.936
	S487.139,546.016,487.139,570.283z"/>
<path id="Pin_4_2_" fill="#DD7300" stroke="#000000" stroke-width="5" stroke-linecap="round" stroke-linejoin="round" d="
	M344.541,471.582c0,24.268-26.641,43.945-59.521,43.945s-59.521-19.678-59.521-43.945c0-24.263,26.641-43.936,59.521-43.936
	S344.541,447.319,344.541,471.582z"/>
<g>
	<g>
		<g enable-background="new    ">
			<defs>
				<polygon id="SVGID_1_" enable-background="new    " points="588.061,543.256 588.944,436.655 839.137,261.486 838.253,368.086 
									"/>
			</defs>
			<clipPath id="SVGID_2_">
				<use xlink:href="#SVGID_1_"  overflow="visible"/>
			</clipPath>
			<g clip-path="url(#SVGID_2_)">
				<g>
					<g>
						<g>
							<path fill="#FFFFFF" d="M593.354,512.591l0.603-72.701l13.973-9.783l-0.603,72.7L593.354,512.591 M608.968,422.636
								l-15.975,11.184c-1.194,0.836-2.171,2.087-2.931,3.753c-0.765,1.67-1.154,3.403-1.169,5.201l-0.613,74.021
								c-0.016,1.806,0.35,3.01,1.096,3.623c0.74,0.607,1.708,0.497,2.902-0.339l15.975-11.185c1.189-0.833,2.177-2.091,2.951-3.76
								c0.775-1.677,1.17-3.414,1.185-5.219l0.614-74.021c0.015-1.797-0.355-2.999-1.111-3.604
								C611.136,421.686,610.157,421.803,608.968,422.636"/>
							<path fill="#FFFFFF" d="M645.133,429.426c-1.51,1.057-3.431,2.627-5.771,4.702c-1.922,1.749-3.833,3.468-5.734,5.165
								l0.012-1.485l-4.851,3.396l-0.444,53.625l4.851-3.396l0.387-46.622l10.688-7.926l-0.39,47.068l4.851-3.396l0.397-47.951
								C649.16,428.603,647.827,427.54,645.133,429.426"/>
							<path fill="#FFFFFF" d="M671.192,394.912l-4.778,3.346l-0.139,16.7l-4.266,2.987l-0.054,6.447l4.267-2.987l-0.34,40.949
								c-0.034,4.158,1.309,5.276,4.034,3.368l6.894-4.826l0.053-6.447l-6.2,4.341l0.338-40.73l6.2-4.341l0.054-6.447l-6.2,4.341
								L671.192,394.912"/>
							<path fill="#FFFFFF" d="M695.382,441.482l0.338-40.73l10.689-7.484l-0.338,40.73L695.382,441.482 M707.191,386.311
								l-12.184,8.53c-2.726,1.908-4.102,4.931-4.137,9.088l-0.341,41.168c-0.035,4.158,1.308,5.276,4.033,3.368l12.184-8.531
								c2.746-1.922,4.139-4.956,4.173-9.114l0.342-41.168C711.296,385.496,709.938,384.388,707.191,386.311"/>
							<polyline fill="#FFFFFF" points="732.037,336.471 727.259,339.816 726.543,426.075 731.322,422.729 732.037,336.471 							
								"/>
							<path fill="#FFFFFF" d="M751.942,401.882l0.337-40.73l10.685-7.48l-0.338,40.73L751.942,401.882 M763.746,346.715
								l-12.184,8.53c-2.72,1.904-4.098,4.927-4.132,9.084l-0.342,41.168c-0.034,4.158,1.309,5.276,4.028,3.372l12.185-8.53
								c2.746-1.923,4.139-4.957,4.174-9.114l0.341-41.168C767.852,345.899,766.492,344.792,763.746,346.715"/>
							<path fill="#FFFFFF" d="M791.508,374.181c-2.679,1.875-3.995,0.754-3.961-3.364l0.238-28.712
								c0.033-4.118,1.385-7.107,4.063-8.983c0.631-0.442,2.863-1.826,6.702-4.149l-0.336,40.512L791.508,374.181 M789.969,328.021
								c-2.069,1.449-3.743,3.677-5.022,6.671c-1.284,2.997-1.938,6.08-1.963,9.237l-0.261,31.36
								c-0.027,3.306,0.669,5.553,2.083,6.739c1.414,1.177,3.205,1.011,5.372-0.506l7.984-5.59l-0.117,14.113l-10.136,7.097
								l0.059-7.111l-4.778,3.346c-0.005,0.555-0.032,1.46-0.079,2.712c-0.046,1.26-0.069,2.193-0.074,2.818
								c-0.044,5.26,1.331,6.908,4.128,4.949l11.522-8.067c2.751-1.926,4.139-4.965,4.174-9.115l0.562-67.738l-4.815,3.372
								l-0.013,1.484C793.402,326.223,790.526,327.63,789.969,328.021"/>
							<polyline fill="#FFFFFF" points="838.866,294.12 834.016,297.517 827.537,344.022 821.837,306.043 816.836,309.544 
								825.149,356.602 821.404,379.883 826.183,376.537 829.893,353.281 838.866,294.12 							"/>
						</g>
					</g>
				</g>
			</g>
		</g>
	</g>
</g>
<g>
	<g>
		<g enable-background="new    ">
			<defs>
				<polygon id="SVGID_3_" enable-background="new    " points="339.611,914.438 340.495,807.838 526.22,677.804 525.336,784.403 
									"/>
			</defs>
			<clipPath id="SVGID_4_">
				<use xlink:href="#SVGID_3_"  overflow="visible"/>
			</clipPath>
			<g clip-path="url(#SVGID_4_)">
				<g>
					<g>
						<g>
							<path fill="#FFFFFF" d="M344.903,883.772l0.603-72.7l7.039-4.928c1.877-1.314,3.39-1.503,4.56-0.59
								c1.165,0.917,1.735,2.794,1.711,5.623l-0.445,53.633c-0.024,2.969-0.659,5.744-1.899,8.313
								c-1.245,2.573-2.85,4.544-4.82,5.924L344.903,883.772 M353.552,798.695l-13.058,9.143l-0.715,86.258l13.058-9.142
								c3.015-2.111,5.525-5.321,7.53-9.623c2.005-4.31,3.029-8.748,3.067-13.304l0.457-55.063c0.038-4.556-0.914-7.604-2.86-9.146
								C359.084,796.274,356.593,796.566,353.552,798.695"/>
							<path fill="#FFFFFF" d="M384.053,831.92l0.134-16.146l10.436-7.307l-0.134,16.146L384.053,831.92 M395.289,801.918
								l-11.667,8.169c-2.726,1.908-4.103,4.938-4.137,9.089l-0.341,41.167c-0.034,4.158,1.308,5.276,4.034,3.368l11.667-8.168
								c2.725-1.908,4.103-4.932,4.137-9.089l0.081-9.698l-4.701,3.292l-0.082,9.807l-10.436,7.307l0.161-19.396l13.497-9.45
								l1.661-3.742l0.16-19.287C399.357,801.137,398.015,800.011,395.289,801.918"/>
							<path fill="#FFFFFF" d="M429.788,777.765l-10.979,7.687c-2.746,1.923-4.139,4.965-4.173,9.114l-0.074,8.925
								c-0.02,2.352,0.575,3.84,1.778,4.457l12.561,6.822l-0.089,10.691l-9.81,6.868l0.1-12.066l-4.778,3.346l-0.101,12.176
								c-0.035,4.157,1.324,5.265,4.07,3.343l11.124-7.789c2.751-1.926,4.139-4.956,4.173-9.113l0.084-10.136
								c0.02-2.462-0.559-3.999-1.736-4.597l-12.674-6.742l0.078-9.37l9.811-6.868l-0.088,10.581l4.706-3.295l0.088-10.69
								C433.892,776.957,432.534,775.842,429.788,777.765"/>
							<path fill="#FFFFFF" d="M454.217,760.66l-4.778,3.346l-0.445,53.625l4.778-3.346L454.217,760.66 M454.464,739.612
								l-4.923,3.446l-0.077,9.26l4.923-3.446L454.464,739.612"/>
							<path fill="#FFFFFF" d="M478.184,790.784c-2.674,1.872-3.996,0.755-3.962-3.364l0.238-28.711
								c0.034-4.118,1.391-7.111,4.064-8.983c0.631-0.441,2.869-1.829,6.708-4.152l-0.336,40.512L478.184,790.784 M476.643,744.626
								c-2.063,1.444-3.737,3.673-5.022,6.669c-1.279,2.994-1.937,6.081-1.963,9.238l-0.26,31.36
								c-0.027,3.305,0.668,5.553,2.083,6.738c1.42,1.174,3.21,1.007,5.372-0.506l7.99-5.595l-0.117,14.113l-10.141,7.101
								l0.059-7.111l-4.779,3.346c-0.004,0.555-0.027,1.457-0.074,2.709c-0.046,1.261-0.075,2.196-0.08,2.821
								c-0.043,5.26,1.331,6.907,4.129,4.949l11.527-8.071c2.746-1.922,4.139-4.964,4.173-9.113l0.562-67.738l-4.814,3.371
								l-0.012,1.485C480.082,742.823,477.202,744.234,476.643,744.626"/>
							<path fill="#FFFFFF" d="M521.903,712.938c-1.51,1.057-3.431,2.627-5.771,4.7c-1.922,1.75-3.833,3.469-5.734,5.165
								l0.012-1.484l-4.851,3.396l-0.444,53.625l4.851-3.396l0.387-46.623l10.688-7.925l-0.39,47.067l4.856-3.399l0.397-47.951
								C525.936,712.11,524.603,711.047,521.903,712.938"/>
						</g>
					</g>
				</g>
			</g>
		</g>
	</g>
</g>
<g>
	<g>
		<g enable-background="new    ">
			<defs>
				<polygon id="SVGID_5_" enable-background="new    " points="877.837,916.046 878.555,829.451 1126.782,655.657 
					1126.064,742.252 				"/>
			</defs>
			<clipPath id="SVGID_6_">
				<use xlink:href="#SVGID_5_"  overflow="visible"/>
			</clipPath>
			<g clip-path="url(#SVGID_6_)">
				<g>
					<g>
						<g>
							<path fill="#FFFFFF" d="M883.254,871.1l0.318-38.418l12.473-8.732l-0.318,38.417L883.254,871.1 M897.084,816.479
								l-18.529,12.973l-0.715,86.259l5.073-3.552l0.284-34.229l13.455-9.421c1.195-0.837,2.178-2.1,2.952-3.792
								c0.775-1.692,1.17-3.438,1.185-5.243l0.33-39.737c0.015-1.798-0.355-2.998-1.111-3.604
								C899.252,815.528,898.279,815.642,897.084,816.479"/>
							<path fill="#FFFFFF" d="M919.94,879.933l0.16-19.287l10.835-7.585l-0.158,18.958L919.94,879.933 M931.788,824.626
								l-11.673,8.172c-2.725,1.908-4.102,4.931-4.137,9.088l-0.074,9.034l4.705-3.295l0.076-9.143l10.431-7.304l-0.134,16.146
								l-11.418,7.994c-2.746,1.923-4.139,4.941-4.173,9.06l-0.162,19.568c-0.033,3.97,1.274,5.027,3.927,3.17
								c1.433-1.003,3.343-2.565,5.73-4.672c1.927-1.714,3.849-3.44,5.775-5.194l-0.012,1.485l4.777-3.346l0.394-47.396
								C935.855,823.836,934.508,822.722,931.788,824.626"/>
							<path fill="#FFFFFF" d="M957.995,789.673l-4.778,3.346l-0.139,16.7l-4.266,2.987l-0.054,6.447l4.267-2.987l-0.34,40.949
								c-0.035,4.157,1.309,5.276,4.034,3.368l6.894-4.827l0.053-6.446l-6.2,4.341l0.338-40.73l6.2-4.341l0.054-6.447l-6.2,4.341
								L957.995,789.673"/>
							<path fill="#FFFFFF" d="M984.432,771.164l-4.778,3.346l-0.139,16.7l-4.267,2.987l-0.054,6.447l4.267-2.987l-0.34,40.949
								c-0.034,4.157,1.309,5.275,4.034,3.368l6.894-4.827l0.054-6.446l-6.2,4.341l0.337-40.73l6.201-4.341l0.053-6.447l-6.2,4.341
								L984.432,771.164"/>
							<path fill="#FFFFFF" d="M1008.683,792.923l0.134-16.145l10.431-7.304l-0.134,16.146L1008.683,792.923 M1019.919,762.922
								l-11.672,8.172c-2.72,1.904-4.103,4.931-4.137,9.088l-0.342,41.168c-0.034,4.158,1.313,5.272,4.033,3.368l11.673-8.172
								c2.725-1.908,4.102-4.931,4.137-9.088l0.08-9.698l-4.706,3.295l-0.081,9.807l-10.431,7.304l0.16-19.396l13.498-9.45
								l1.66-3.742l0.16-19.286C1023.986,762.132,1022.645,761.014,1019.919,762.922"/>
							<path fill="#FFFFFF" d="M1054.053,738.689c-1.287,0.901-2.903,2.258-4.856,4.06c-1.632,1.547-3.249,3.061-4.86,4.554
								l0.013-1.485l-4.851,3.396l-0.445,53.624l4.851-3.396l0.387-46.63l8.939-6.694l-0.092,11.081l4.779-3.346l0.099-11.964
								C1058.049,737.888,1056.731,736.813,1054.053,738.689"/>
							<path fill="#FFFFFF" d="M1088.039,714.894c-1.505,1.054-3.431,2.627-5.767,4.698c-1.922,1.749-3.833,3.468-5.734,5.164
								l0.013-1.484l-4.851,3.396l-0.444,53.625l4.85-3.396l0.387-46.63l10.688-7.918l-0.39,47.068l4.851-3.396l0.397-47.951
								C1092.071,714.067,1090.738,713.004,1088.039,714.894"/>
							<path fill="#FFFFFF" d="M1122.317,691.229l-10.979,7.687c-2.746,1.922-4.139,4.956-4.174,9.114l-0.073,8.924
								c-0.02,2.353,0.569,3.844,1.777,4.458l12.561,6.822l-0.089,10.69l-9.81,6.868l0.1-12.065l-4.778,3.346l-0.101,12.175
								c-0.035,4.158,1.318,5.27,4.069,3.343l11.124-7.788c2.746-1.923,4.139-4.956,4.173-9.114l0.085-10.143
								c0.02-2.462-0.559-3.991-1.741-4.586l-12.669-6.746l0.078-9.37l9.81-6.868l-0.088,10.582l4.706-3.295l0.089-10.691
								C1126.422,690.413,1125.063,689.306,1122.317,691.229"/>
						</g>
					</g>
				</g>
			</g>
		</g>
	</g>
</g>
</svg>
