<?xml version="1.0" encoding="utf-8"?>
<!-- Generator: Adobe Illustrator 14.0.0, SVG Export Plug-In  -->
<!DOCTYPE svg PUBLIC "-//W3C//DTD SVG 1.1//EN" "http://www.w3.org/Graphics/SVG/1.1/DTD/svg11.dtd" [
	<!ENTITY ns_flows "http://ns.adobe.com/Flows/1.0/">
]>
<svg version="1.1"
	 xmlns="http://www.w3.org/2000/svg" xmlns:xlink="http://www.w3.org/1999/xlink" xmlns:a="http://ns.adobe.com/AdobeSVGViewerExtensions/3.0/"
	 x="0px" y="0px" width="1141px" height="999px" viewBox="-0.35 -0.801 1141 999" enable-background="new -0.35 -0.801 1141 999"
	 xml:space="preserve">
<defs>
</defs>
<polygon id="Top_7_" display="none" fill="#ECEDED" stroke="#000000" stroke-width="0.5" stroke-linejoin="round" points="
	513.183,508.882 541.528,528.73 569.875,508.882 541.529,489.035 "/>
<polygon id="Left_7_" display="none" fill="#C6C7C8" stroke="#000000" stroke-width="0.5" stroke-linejoin="round" points="
	513.208,508.856 513.208,528.705 541.555,548.554 541.555,528.705 "/>
<polygon id="Right_7_" display="none" fill="#D9DADB" stroke="#000000" stroke-width="0.5" stroke-linejoin="round" points="
	541.553,528.714 541.521,548.539 569.867,528.691 569.867,508.888 "/>
<linearGradient id="Pin_1_17_" gradientUnits="userSpaceOnUse" x1="535.5762" y1="519.6265" x2="547.4814" y2="519.6265">
	<stop  offset="0" style="stop-color:#666666"/>
	<stop  offset="0.6" style="stop-color:#FFFFFF"/>
	<stop  offset="1" style="stop-color:#B2B2B2"/>
</linearGradient>
<path id="Pin_1_16_" display="none" fill="url(#Pin_1_17_)" stroke="#000000" stroke-width="0.5" stroke-linejoin="round" d="
	M547.481,516.012c0,2.427-2.664,4.394-5.952,4.394s-5.953-1.967-5.953-4.394v2.834c0,2.427,2.665,4.394,5.953,4.394
	s5.952-1.967,5.952-4.394V516.012z"/>
<linearGradient id="Pin_2_17_" gradientUnits="userSpaceOnUse" x1="521.4292" y1="509.6362" x2="533.334" y2="509.6362">
	<stop  offset="0" style="stop-color:#666666"/>
	<stop  offset="0.6" style="stop-color:#FFFFFF"/>
	<stop  offset="1" style="stop-color:#B2B2B2"/>
</linearGradient>
<path id="Pin_2_16_" display="none" fill="url(#Pin_2_17_)" stroke="#000000" stroke-width="0.5" stroke-linejoin="round" d="
	M533.334,506.022c0,2.427-2.664,4.394-5.952,4.394s-5.953-1.967-5.953-4.394v2.834c0,2.427,2.665,4.394,5.953,4.394
	s5.952-1.967,5.952-4.394V506.022z"/>
<linearGradient id="Pin_3_17_" gradientUnits="userSpaceOnUse" x1="549.7422" y1="509.6675" x2="561.6465" y2="509.6675">
	<stop  offset="0" style="stop-color:#666666"/>
	<stop  offset="0.6" style="stop-color:#FFFFFF"/>
	<stop  offset="1" style="stop-color:#B2B2B2"/>
</linearGradient>
<path id="Pin_3_16_" display="none" fill="url(#Pin_3_17_)" stroke="#000000" stroke-width="0.5" stroke-linejoin="round" d="
	M561.646,506.053c0,2.427-2.664,4.394-5.952,4.394s-5.952-1.967-5.952-4.394v2.834c0,2.427,2.664,4.394,5.952,4.394
	s5.952-1.967,5.952-4.394V506.053z"/>
<linearGradient id="Pin_4_17_" gradientUnits="userSpaceOnUse" x1="535.4824" y1="499.7974" x2="547.3867" y2="499.7974">
	<stop  offset="0" style="stop-color:#666666"/>
	<stop  offset="0.6" style="stop-color:#FFFFFF"/>
	<stop  offset="1" style="stop-color:#B2B2B2"/>
</linearGradient>
<path id="Pin_4_16_" display="none" fill="url(#Pin_4_17_)" stroke="#000000" stroke-width="0.5" stroke-linejoin="round" d="
	M547.387,496.183c0,2.427-2.664,4.394-5.952,4.394s-5.952-1.967-5.952-4.394v2.834c0,2.427,2.664,4.394,5.952,4.394
	s5.952-1.967,5.952-4.394V496.183z"/>
<ellipse id="Pin_1_15_" display="none" fill="#ECEDED" stroke="#000000" stroke-width="0.5" stroke-linejoin="round" cx="541.529" cy="516.012" rx="5.953" ry="4.394"/>
<ellipse id="Pin_2_15_" display="none" fill="#ECEDED" stroke="#000000" stroke-width="0.5" stroke-linejoin="round" cx="527.381" cy="506.022" rx="5.953" ry="4.394"/>
<ellipse id="Pin_3_15_" display="none" fill="#ECEDED" stroke="#000000" stroke-width="0.5" stroke-linejoin="round" cx="555.694" cy="506.053" rx="5.952" ry="4.394"/>
<ellipse id="Pin_4_15_" display="none" fill="#ECEDED" stroke="#000000" stroke-width="0.5" stroke-linejoin="round" cx="541.435" cy="496.183" rx="5.952" ry="4.394"/>
<polygon id="Top_6_" fill="#7CAD0B" stroke="#000000" stroke-width="5" stroke-linecap="round" stroke-linejoin="round" points="
	286.855,200.972 570.313,399.458 853.779,200.972 570.322,2.5 "/>
<polygon id="Left_6_" fill="#689109" stroke="#000000" stroke-width="5" stroke-linecap="round" stroke-linejoin="round" points="
	287.119,200.718 287.119,399.199 570.576,597.69 570.576,399.204 "/>
<polygon id="Right_6_" fill="#729F0A" stroke="#000000" stroke-width="5" stroke-linecap="round" stroke-linejoin="round" points="
	570.557,399.292 570.244,597.544 853.701,399.067 853.701,201.03 "/>
<path id="Pin_1_14_" fill="#689109" stroke="#000000" stroke-width="5" stroke-linecap="round" stroke-linejoin="round" d="
	M629.844,272.275c0,24.268-26.641,43.94-59.521,43.94s-59.531-19.673-59.531-43.94v28.345c0,24.268,26.65,43.94,59.531,43.94
	s59.521-19.673,59.521-43.94V272.275z"/>
<path id="Pin_2_14_" fill="#689109" stroke="#000000" stroke-width="5" stroke-linecap="round" stroke-linejoin="round" d="
	M488.369,172.373c0,24.268-26.641,43.94-59.521,43.94s-59.521-19.673-59.521-43.94v28.345c0,24.268,26.641,43.94,59.521,43.94
	s59.521-19.673,59.521-43.94V172.373z"/>
<path id="Pin_3_14_" fill="#689109" stroke="#000000" stroke-width="5" stroke-linecap="round" stroke-linejoin="round" d="
	M771.494,172.686c0,24.268-26.641,43.94-59.521,43.94s-59.521-19.673-59.521-43.94v28.345c0,24.268,26.641,43.94,59.521,43.94
	s59.521-19.673,59.521-43.94V172.686z"/>
<path id="Pin_4_14_" fill="#689109" stroke="#000000" stroke-width="5" stroke-linecap="round" stroke-linejoin="round" d="
	M628.896,73.984c0,24.268-26.641,43.94-59.521,43.94s-59.521-19.673-59.521-43.94v28.345c0,24.268,26.641,43.94,59.521,43.94
	s59.521-19.673,59.521-43.94V73.984z"/>
<path id="Pin_1_13_" fill="#7CAD0B" stroke="#000000" stroke-width="5" stroke-linecap="round" stroke-linejoin="round" d="
	M629.844,272.275c0,24.268-26.641,43.94-59.521,43.94s-59.531-19.673-59.531-43.94c0-24.263,26.65-43.936,59.531-43.936
	S629.844,248.013,629.844,272.275z"/>
<path id="Pin_2_13_" fill="#7CAD0B" stroke="#000000" stroke-width="5" stroke-linecap="round" stroke-linejoin="round" d="
	M488.369,172.373c0,24.268-26.641,43.94-59.521,43.94s-59.531-19.673-59.531-43.94c0-24.263,26.65-43.936,59.531-43.936
	S488.369,148.11,488.369,172.373z"/>
<path id="Pin_3_13_" fill="#7CAD0B" stroke="#000000" stroke-width="5" stroke-linecap="round" stroke-linejoin="round" d="
	M771.494,172.686c0,24.268-26.641,43.94-59.521,43.94s-59.521-19.673-59.521-43.94c0-24.263,26.641-43.936,59.521-43.936
	S771.494,148.423,771.494,172.686z"/>
<path id="Pin_4_13_" fill="#7CAD0B" stroke="#000000" stroke-width="5" stroke-linecap="round" stroke-linejoin="round" d="
	M628.896,73.984c0,24.268-26.641,43.94-59.521,43.94s-59.521-19.673-59.521-43.94c0-24.263,26.641-43.936,59.521-43.936
	S628.896,49.722,628.896,73.984z"/>
<polygon id="Top_4_" fill="#AF157F" stroke="#000000" stroke-width="5" stroke-linecap="round" stroke-linejoin="round" points="
	570.313,598.604 853.77,797.09 1137.236,598.604 853.779,400.132 "/>
<polygon id="Left_4_" fill="#93126B" stroke="#000000" stroke-width="5" stroke-linecap="round" stroke-linejoin="round" points="
	570.576,598.35 570.576,796.831 854.033,995.322 854.033,796.836 "/>
<polygon id="Right_4_" fill="#A11476" stroke="#000000" stroke-width="5" stroke-linecap="round" stroke-linejoin="round" points="
	854.014,796.924 853.701,995.176 1137.158,796.699 1137.158,598.662 "/>
<path id="Pin_1_10_" fill="#93126B" stroke="#000000" stroke-width="5" stroke-linecap="round" stroke-linejoin="round" d="
	M913.301,669.907c0,24.268-26.641,43.94-59.521,43.94s-59.531-19.673-59.531-43.94v28.345c0,24.268,26.65,43.94,59.531,43.94
	s59.521-19.673,59.521-43.94V669.907z"/>
<path id="Pin_2_10_" fill="#93126B" stroke="#000000" stroke-width="5" stroke-linecap="round" stroke-linejoin="round" d="
	M771.826,570.005c0,24.268-26.641,43.94-59.521,43.94s-59.521-19.673-59.521-43.94v28.345c0,24.268,26.641,43.94,59.521,43.94
	s59.521-19.673,59.521-43.94V570.005z"/>
<path id="Pin_3_10_" fill="#93126B" stroke="#000000" stroke-width="5" stroke-linecap="round" stroke-linejoin="round" d="
	M1054.951,570.317c0,24.268-26.641,43.94-59.521,43.94s-59.521-19.673-59.521-43.94v28.345c0,24.268,26.641,43.94,59.521,43.94
	s59.521-19.673,59.521-43.94V570.317z"/>
<path id="Pin_4_10_" fill="#93126B" stroke="#000000" stroke-width="5" stroke-linecap="round" stroke-linejoin="round" d="
	M912.354,471.616c0,24.268-26.641,43.94-59.521,43.94s-59.521-19.673-59.521-43.94v28.345c0,24.268,26.641,43.94,59.521,43.94
	s59.521-19.673,59.521-43.94V471.616z"/>
<path id="Pin_1_9_" fill="#AF157F" stroke="#000000" stroke-width="5" stroke-linecap="round" stroke-linejoin="round" d="
	M913.301,669.907c0,24.268-26.641,43.94-59.521,43.94s-59.531-19.673-59.531-43.94c0-24.263,26.65-43.936,59.531-43.936
	S913.301,645.645,913.301,669.907z"/>
<path id="Pin_2_9_" fill="#AF157F" stroke="#000000" stroke-width="5" stroke-linecap="round" stroke-linejoin="round" d="
	M771.826,570.005c0,24.268-26.641,43.94-59.521,43.94s-59.531-19.673-59.531-43.94c0-24.263,26.65-43.936,59.531-43.936
	S771.826,545.742,771.826,570.005z"/>
<path id="Pin_3_9_" fill="#AF157F" stroke="#000000" stroke-width="5" stroke-linecap="round" stroke-linejoin="round" d="
	M1054.951,570.317c0,24.268-26.641,43.94-59.521,43.94s-59.521-19.673-59.521-43.94c0-24.263,26.641-43.936,59.521-43.936
	S1054.951,546.055,1054.951,570.317z"/>
<path id="Pin_4_9_" fill="#AF157F" stroke="#000000" stroke-width="5" stroke-linecap="round" stroke-linejoin="round" d="
	M912.354,471.616c0,24.268-26.641,43.94-59.521,43.94s-59.521-19.673-59.521-43.94c0-24.263,26.641-43.936,59.521-43.936
	S912.354,447.354,912.354,471.616z"/>
<polygon id="Top_2_" fill="#DD7300" stroke="#000000" stroke-width="5" stroke-linecap="round" stroke-linejoin="round" points="
	2.5,598.569 285.957,797.056 569.424,598.569 285.967,400.098 "/>
<polygon id="Left_2_" fill="#BA6100" stroke="#000000" stroke-width="5" stroke-linecap="round" stroke-linejoin="round" points="
	2.764,598.315 2.764,796.797 286.221,995.288 286.221,796.802 "/>
<polygon id="Right_2_" fill="#CB6A00" stroke="#000000" stroke-width="5" stroke-linecap="round" stroke-linejoin="round" points="
	286.201,796.89 285.889,995.142 569.346,796.665 569.346,598.628 "/>
<path id="Pin_1_6_" fill="#BA6100" stroke="#000000" stroke-width="5" stroke-linecap="round" stroke-linejoin="round" d="
	M345.488,669.873c0,24.268-26.641,43.94-59.521,43.94s-59.531-19.673-59.531-43.94v28.345c0,24.268,26.65,43.94,59.531,43.94
	s59.521-19.673,59.521-43.94V669.873z"/>
<path id="Pin_2_6_" fill="#BA6100" stroke="#000000" stroke-width="5" stroke-linecap="round" stroke-linejoin="round" d="
	M204.014,569.971c0,24.268-26.641,43.94-59.521,43.94s-59.521-19.673-59.521-43.94v28.345c0,24.268,26.641,43.94,59.521,43.94
	s59.521-19.673,59.521-43.94V569.971z"/>
<path id="Pin_3_6_" fill="#BA6100" stroke="#000000" stroke-width="5" stroke-linecap="round" stroke-linejoin="round" d="
	M487.139,570.283c0,24.268-26.641,43.94-59.521,43.94s-59.521-19.673-59.521-43.94v28.345c0,24.268,26.641,43.94,59.521,43.94
	s59.521-19.673,59.521-43.94V570.283z"/>
<path id="Pin_4_6_" fill="#BA6100" stroke="#000000" stroke-width="5" stroke-linecap="round" stroke-linejoin="round" d="
	M344.541,471.582c0,24.268-26.641,43.94-59.521,43.94s-59.521-19.673-59.521-43.94v28.345c0,24.268,26.641,43.94,59.521,43.94
	s59.521-19.673,59.521-43.94V471.582z"/>
<path id="Pin_1_5_" fill="#DD7300" stroke="#000000" stroke-width="5" stroke-linecap="round" stroke-linejoin="round" d="
	M345.488,669.873c0,24.268-26.641,43.94-59.521,43.94s-59.531-19.673-59.531-43.94c0-24.263,26.65-43.936,59.531-43.936
	S345.488,645.61,345.488,669.873z"/>
<path id="Pin_2_5_" fill="#DD7300" stroke="#000000" stroke-width="5" stroke-linecap="round" stroke-linejoin="round" d="
	M204.014,569.971c0,24.268-26.641,43.94-59.521,43.94s-59.531-19.673-59.531-43.94c0-24.263,26.65-43.936,59.531-43.936
	S204.014,545.708,204.014,569.971z"/>
<path id="Pin_3_5_" fill="#DD7300" stroke="#000000" stroke-width="5" stroke-linecap="round" stroke-linejoin="round" d="
	M487.139,570.283c0,24.268-26.641,43.94-59.521,43.94s-59.521-19.673-59.521-43.94c0-24.263,26.641-43.936,59.521-43.936
	S487.139,546.021,487.139,570.283z"/>
<path id="Pin_4_5_" fill="#DD7300" stroke="#000000" stroke-width="5" stroke-linecap="round" stroke-linejoin="round" d="
	M344.541,471.582c0,24.268-26.641,43.94-59.521,43.94s-59.521-19.673-59.521-43.94c0-24.263,26.641-43.936,59.521-43.936
	S344.541,447.319,344.541,471.582z"/>
<g>
	<g>
		<g enable-background="new    ">
			<defs>
				<polygon id="SVGID_1_" enable-background="new    " points="588.069,543.26 588.953,436.66 839.15,261.487 838.267,368.087 				
					"/>
			</defs>
			<clipPath id="SVGID_2_">
				<use xlink:href="#SVGID_1_"  overflow="visible"/>
			</clipPath>
			<g clip-path="url(#SVGID_2_)">
				<g>
					<g>
						<g>
							<path fill="#FFFFFF" d="M593.362,512.595l0.603-72.7l13.973-9.783l-0.603,72.7L593.362,512.595 M608.977,422.641
								l-15.975,11.185c-1.189,0.833-2.171,2.088-2.931,3.754c-0.765,1.669-1.154,3.402-1.169,5.2l-0.613,74.021
								c-0.016,1.805,0.35,3.01,1.096,3.623c0.74,0.608,1.713,0.494,2.902-0.339l15.975-11.184c1.194-0.836,2.177-2.091,2.951-3.76
								c0.775-1.677,1.17-3.414,1.185-5.219l0.614-74.021c0.015-1.797-0.355-2.999-1.111-3.604S610.171,421.805,608.977,422.641"/>
							<path fill="#FFFFFF" d="M645.142,429.431c-1.51,1.058-3.431,2.627-5.771,4.702c-1.922,1.75-3.834,3.469-5.734,5.165
								l0.012-1.484l-4.851,3.396l-0.444,53.624l4.851-3.396l0.387-46.63l10.692-7.922l-0.39,47.068l4.851-3.396l0.397-47.951
								C649.174,428.604,647.841,427.541,645.142,429.431"/>
							<path fill="#FFFFFF" d="M671.201,394.917l-4.778,3.346l-0.139,16.7l-4.266,2.987l-0.054,6.447l4.266-2.987l-0.339,40.949
								c-0.034,4.157,1.309,5.276,4.034,3.368l6.894-4.827l0.053-6.447l-6.2,4.341l0.338-40.73l6.2-4.341l0.054-6.447l-6.2,4.341
								L671.201,394.917"/>
							<path fill="#FFFFFF" d="M695.391,441.487l0.338-40.73l10.689-7.484l-0.338,40.73L695.391,441.487 M707.2,386.315
								l-12.184,8.53c-2.72,1.904-4.103,4.931-4.137,9.088l-0.341,41.168c-0.035,4.158,1.313,5.272,4.033,3.368l12.184-8.53
								c2.746-1.923,4.139-4.956,4.173-9.114l0.342-41.168C711.305,385.5,709.946,384.393,707.2,386.315"/>
							<polyline fill="#FFFFFF" points="732.046,336.475 727.268,339.821 726.552,426.079 731.331,422.734 732.046,336.475 							
								"/>
							<path fill="#FFFFFF" d="M751.951,401.887l0.337-40.73l10.685-7.48l-0.338,40.73L751.951,401.887 M763.755,346.719
								l-12.179,8.526c-2.725,1.908-4.103,4.931-4.137,9.089l-0.342,41.168c-0.034,4.158,1.309,5.276,4.034,3.368l12.179-8.526
								c2.751-1.926,4.139-4.957,4.173-9.114l0.341-41.167C767.859,345.904,766.506,344.793,763.755,346.719"/>
							<path fill="#FFFFFF" d="M791.517,374.186c-2.673,1.872-3.995,0.754-3.961-3.364l0.238-28.719
								c0.033-4.11,1.39-7.104,4.063-8.975c0.631-0.442,2.868-1.83,6.708-4.153l-0.336,40.511L791.517,374.186 M789.977,328.026
								c-2.068,1.448-3.742,3.677-5.021,6.67c-1.284,2.997-1.938,6.08-1.963,9.237l-0.261,31.36
								c-0.027,3.306,0.669,5.553,2.083,6.738c1.414,1.178,3.205,1.012,5.372-0.506l7.989-5.594l-0.116,14.114l-10.142,7.1
								l0.059-7.112l-4.778,3.346c-0.005,0.547-0.032,1.453-0.079,2.712c-0.046,1.252-0.069,2.193-0.074,2.818
								c-0.044,5.26,1.33,6.908,4.128,4.949l11.527-8.071c2.746-1.922,4.134-4.96,4.168-9.11l0.562-67.738l-4.809,3.367
								l-0.013,1.485C793.411,326.228,790.535,327.635,789.977,328.026"/>
							<polyline fill="#FFFFFF" points="838.88,294.121 834.029,297.517 827.551,344.023 821.846,306.048 816.85,309.545 
								825.158,356.606 821.413,379.887 826.191,376.542 829.901,353.286 838.88,294.121 							"/>
						</g>
					</g>
				</g>
			</g>
		</g>
	</g>
</g>
<g>
	<g>
		<g enable-background="new    ">
			<defs>
				<polygon id="SVGID_3_" enable-background="new    " points="339.608,914.44 340.492,807.841 526.218,677.807 525.334,784.406 
									"/>
			</defs>
			<clipPath id="SVGID_4_">
				<use xlink:href="#SVGID_3_"  overflow="visible"/>
			</clipPath>
			<g clip-path="url(#SVGID_4_)">
				<g>
					<g>
						<g>
							<path fill="#FFFFFF" d="M344.907,883.771l0.603-72.7l7.039-4.928c1.872-1.311,3.39-1.503,4.555-0.586
								c1.165,0.917,1.735,2.794,1.712,5.622l-0.445,53.626c-0.024,2.977-0.659,5.752-1.899,8.321
								c-1.24,2.562-2.85,4.544-4.815,5.92L344.907,883.771 M353.55,798.698l-13.058,9.143l-0.715,86.258l13.058-9.142
								c3.015-2.111,5.525-5.321,7.535-9.634c2.005-4.303,3.029-8.74,3.067-13.297l0.457-55.063c0.038-4.556-0.919-7.6-2.865-9.143
								C359.082,796.277,356.591,796.569,353.55,798.698"/>
							<path fill="#FFFFFF" d="M384.056,831.919l0.134-16.145l10.431-7.304l-0.134,16.146L384.056,831.919 M395.292,801.918
								l-11.671,8.172c-2.726,1.908-4.103,4.931-4.137,9.089l-0.342,41.168c-0.034,4.157,1.309,5.275,4.034,3.367l11.672-8.172
								c2.72-1.904,4.103-4.931,4.137-9.089l0.081-9.697l-4.706,3.295l-0.081,9.807l-10.431,7.304l0.161-19.396l13.492-9.446
								l1.666-3.746l0.16-19.287C399.36,801.128,398.012,800.014,395.292,801.918"/>
							<path fill="#FFFFFF" d="M429.791,777.764l-10.979,7.688c-2.751,1.926-4.139,4.956-4.173,9.113l-0.074,8.925
								c-0.02,2.353,0.57,3.844,1.772,4.461l12.566,6.819l-0.089,10.69l-9.81,6.868l0.1-12.066l-4.778,3.346l-0.101,12.176
								c-0.034,4.157,1.319,5.269,4.07,3.343l11.124-7.788c2.746-1.923,4.139-4.957,4.174-9.114l0.084-10.143
								c0.021-2.462-0.563-3.988-1.741-4.586l-12.669-6.746l0.078-9.37l9.811-6.868l-0.088,10.581l4.706-3.294l0.088-10.691
								C433.895,776.949,432.537,775.842,429.791,777.764"/>
							<path fill="#FFFFFF" d="M454.22,760.66l-4.778,3.346l-0.445,53.624l4.778-3.346L454.22,760.66 M454.467,739.611l-4.923,3.447
								l-0.077,9.252l4.923-3.447L454.467,739.611"/>
							<path fill="#FFFFFF" d="M478.187,790.784c-2.679,1.875-3.996,0.754-3.962-3.364l0.238-28.719
								c0.034-4.111,1.385-7.101,4.064-8.976c0.631-0.442,2.863-1.826,6.703-4.149l-0.336,40.512L478.187,790.784 M476.646,744.625
								c-2.068,1.448-3.743,3.677-5.021,6.67c-1.285,2.997-1.938,6.08-1.963,9.237l-0.26,31.36c-0.027,3.306,0.664,5.557,2.083,6.73
								c1.415,1.186,3.205,1.02,5.372-0.498l7.985-5.591l-0.117,14.113l-10.137,7.097l0.059-7.11l-4.778,3.346
								c-0.004,0.547-0.032,1.451-0.079,2.712c-0.046,1.252-0.07,2.193-0.075,2.817c-0.043,5.253,1.331,6.908,4.129,4.949
								l11.522-8.067c2.75-1.926,4.139-4.964,4.173-9.113l0.562-67.738l-4.814,3.371l-0.012,1.484
								C480.08,742.826,477.205,744.233,476.646,744.625"/>
							<path fill="#FFFFFF" d="M521.901,712.939c-1.505,1.055-3.431,2.627-5.767,4.698c-1.927,1.753-3.839,3.472-5.74,5.168
								l0.013-1.484l-4.851,3.396l-0.445,53.624l4.851-3.396l0.387-46.631l10.692-7.921l-0.39,47.068l4.851-3.396l0.397-47.951
								C525.934,712.113,524.601,711.05,521.901,712.939"/>
						</g>
					</g>
				</g>
			</g>
		</g>
	</g>
</g>
<g>
	<g>
		<g enable-background="new    ">
			<defs>
				<polygon id="SVGID_5_" enable-background="new    " points="877.835,916.04 878.553,829.453 1126.78,655.66 1126.063,742.246 
									"/>
			</defs>
			<clipPath id="SVGID_6_">
				<use xlink:href="#SVGID_5_"  overflow="visible"/>
			</clipPath>
			<g clip-path="url(#SVGID_6_)">
				<g>
					<g>
						<g>
							<path fill="#FFFFFF" d="M883.252,871.102l0.318-38.417l12.473-8.733l-0.318,38.417L883.252,871.102 M897.082,816.48
								l-18.529,12.973l-0.715,86.259l5.073-3.552l0.284-34.229l13.455-9.421c1.195-0.837,2.177-2.099,2.952-3.791
								c0.774-1.692,1.17-3.438,1.185-5.243l0.329-39.737c0.016-1.798-0.355-2.998-1.111-3.604
								C899.249,815.531,898.277,815.645,897.082,816.48"/>
							<path fill="#FFFFFF" d="M919.938,879.935l0.16-19.294l10.835-7.586l-0.158,18.967L919.938,879.935 M931.786,824.628
								l-11.673,8.172c-2.725,1.908-4.103,4.932-4.137,9.089l-0.075,9.034l4.701-3.292l0.076-9.15l10.436-7.307l-0.134,16.152
								l-11.418,7.994c-2.746,1.923-4.139,4.941-4.173,9.06l-0.162,19.568c-0.033,3.962,1.274,5.021,3.927,3.162
								c1.433-1.002,3.343-2.558,5.73-4.664c1.927-1.714,3.849-3.448,5.775-5.193l-0.012,1.484l4.772-3.342L935.814,828
								C935.849,823.842,934.506,822.724,931.786,824.628"/>
							<path fill="#FFFFFF" d="M957.993,789.676l-4.778,3.346l-0.139,16.7l-4.266,2.987l-0.054,6.446l4.267-2.986l-0.34,40.948
								c-0.034,4.15,1.309,5.276,4.033,3.368l6.894-4.826l0.054-6.446l-6.201,4.341l0.338-40.73l6.201-4.341l0.053-6.447l-6.2,4.341
								L957.993,789.676"/>
							<path fill="#FFFFFF" d="M984.43,771.167l-4.778,3.346l-0.139,16.7l-4.267,2.986l-0.054,6.447l4.267-2.987l-0.34,40.949
								c-0.034,4.15,1.309,5.276,4.034,3.368l6.894-4.826l0.054-6.447l-6.2,4.341l0.337-40.73l6.201-4.341l0.053-6.447l-6.2,4.342
								L984.43,771.167"/>
							<path fill="#FFFFFF" d="M1008.681,792.926l0.134-16.153l10.431-7.303l-0.134,16.152L1008.681,792.926 M1019.917,762.924
								l-11.672,8.172c-2.721,1.905-4.104,4.932-4.138,9.089l-0.342,41.168c-0.034,4.15,1.314,5.272,4.034,3.368l11.673-8.173
								c2.725-1.907,4.102-4.938,4.137-9.088l0.08-9.698l-4.706,3.295l-0.081,9.808l-10.431,7.303l0.16-19.396l13.498-9.45
								l1.66-3.743l0.16-19.286C1023.984,762.135,1022.642,761.016,1019.917,762.924"/>
							<path fill="#FFFFFF" d="M1054.051,738.691c-1.288,0.902-2.908,2.254-4.856,4.061c-1.633,1.547-3.249,3.06-4.86,4.553
								l0.013-1.484l-4.852,3.396l-0.444,53.625l4.851-3.396l0.387-46.631l8.939-6.693l-0.092,11.081l4.779-3.346l0.099-11.964
								C1058.047,737.89,1056.729,736.816,1054.051,738.691"/>
							<path fill="#FFFFFF" d="M1088.037,714.896c-1.505,1.054-3.43,2.619-5.767,4.697c-1.927,1.753-3.839,3.473-5.734,5.165
								l0.013-1.485l-4.852,3.396l-0.444,53.625l4.851-3.396l0.387-46.631l10.688-7.918l-0.39,47.068l4.851-3.396l0.397-47.951
								C1092.069,714.069,1090.736,713.007,1088.037,714.896"/>
							<path fill="#FFFFFF" d="M1122.315,691.23l-10.979,7.687c-2.752,1.927-4.139,4.957-4.174,9.114l-0.073,8.925
								c-0.02,2.352,0.569,3.843,1.772,4.461l12.565,6.819l-0.089,10.69l-9.811,6.868l0.101-12.074l-4.778,3.346l-0.101,12.184
								c-0.035,4.149,1.318,5.269,4.069,3.343l11.124-7.789c2.746-1.922,4.139-4.964,4.173-9.113l0.085-10.144
								c0.02-2.461-0.559-3.991-1.741-4.585l-12.67-6.746l0.078-9.37l9.811-6.868l-0.088,10.581l4.706-3.295l0.089-10.69
								C1126.42,690.416,1125.062,689.309,1122.315,691.23"/>
						</g>
					</g>
				</g>
			</g>
		</g>
	</g>
</g>
<polygon display="none" fill="none" stroke="#000000" stroke-width="3" points="704.552,474.125 690.379,484.05 690.379,493.974 
	676.205,503.898 676.205,513.823 690.379,523.746 704.552,513.822 718.725,523.746 732.897,513.822 732.897,503.898 
	718.725,493.974 718.725,484.05 "/>
<polyline display="none" fill="#BD1789" stroke="#000000" points="718.725,493.974 732.897,503.898 732.897,513.822 
	718.725,523.746 704.552,513.822 704.552,503.898 718.725,493.974 "/>
<polygon display="none" fill="#86BA0C" stroke="#000000" points="704.566,474.148 690.331,484.029 690.331,494.041 704.565,503.921 
	718.771,494.02 718.771,484.095 "/>
<polygon display="none" fill="#EF7C00" stroke="#000000" points="690.444,494.005 676.209,503.886 676.209,513.897 690.443,523.778 
	704.649,513.877 704.649,503.952 "/>
</svg>
