<?xml version="1.0" encoding="utf-8"?>
<!-- Generator: Adobe Illustrator 14.0.0, SVG Export Plug-In . SVG Version: 6.00 Build 43363)  -->
<!DOCTYPE svg PUBLIC "-//W3C//DTD SVG 1.1//EN" "http://www.w3.org/Graphics/SVG/1.1/DTD/svg11.dtd">
<svg version="1.1" id="Layer_1" xmlns="http://www.w3.org/2000/svg" xmlns:xlink="http://www.w3.org/1999/xlink" x="0px" y="0px"
	 width="800px" height="800px" viewBox="0 0 800 800" enable-background="new 0 0 800 800" xml:space="preserve">
<path fill="#DFB8D7" d="M275,275v250v250h50V525h200V275H275z M475,475H325V325h150V475z"/>
<g>
	<polygon fill="#7D7DB1" points="250,625 175,625 175,175 525,175 525,125 125,125 125,675 250,675 	"/>
	<polygon fill="#7D7DB1" points="625,125 625,175 625,201 625,625 350,625 350,675 675,675 675,125 	"/>
</g>
<polygon fill="#B693C9" points="550,25 550,200 200,200 200,600 250,600 250,550 250,514 250,250 550,250 550,550 350,550 350,600 
	600,600 600,200 600,25 "/>
</svg>
